<svg width="170" height="27" viewBox="0 0 170 27" fill="none" xmlns="http://www.w3.org/2000/svg">
<path d="M3.54151 26.1794H0L9.16627 1.07634H12.9508L22.1518 26.1794H18.5756L16.3187 19.9297H5.76364L3.54151 26.1794ZM10.6245 6.49277L6.80526 16.9784H15.3118L11.4578 6.49277C11.2842 6.00668 11.1106 5.41643 11.0412 5.0345C10.9718 5.38171 10.7981 5.97196 10.6245 6.49277Z" fill="white"/>
<path d="M23.5444 21.2491H26.6693C26.6693 22.9851 27.9887 24.0267 30.1414 24.0267C32.433 24.0267 33.7523 23.0893 33.7523 21.5268C33.7523 20.3811 33.1968 19.6867 31.4261 19.2353L28.4401 18.5409C25.4194 17.8117 23.9958 16.3187 23.9958 13.8188C23.9958 10.694 26.6346 8.7149 30.3844 8.7149C34.0996 8.7149 36.53 10.7981 36.5994 14.0272H33.4746C33.4051 12.3259 32.2594 11.2495 30.2803 11.2495C28.2317 11.2495 27.086 12.1523 27.086 13.7147C27.086 14.8605 27.9193 15.6243 29.5859 16.041L32.5718 16.7701C35.4537 17.4645 36.8772 18.7839 36.8772 21.3185C36.8772 24.5476 34.0996 26.5961 30.0719 26.5961C26.0791 26.5961 23.5444 24.4781 23.5444 21.2491Z" fill="white"/>
<path d="M39.1077 21.2491H42.2326C42.2326 22.9851 43.552 24.0267 45.7047 24.0267C47.9963 24.0267 49.3156 23.0893 49.3156 21.5268C49.3156 20.3811 48.7601 19.6867 46.9893 19.2353L44.0034 18.5409C40.9827 17.8117 39.5591 16.3187 39.5591 13.8188C39.5591 10.694 42.1979 8.7149 45.9477 8.7149C49.6628 8.7149 52.0933 10.7981 52.1627 14.0272H49.0379C48.9684 12.3259 47.8226 11.2495 45.8436 11.2495C43.795 11.2495 42.6493 12.1523 42.6493 13.7147C42.6493 14.8605 43.4826 15.6243 45.1492 16.041L48.1351 16.7701C51.017 17.4645 52.4405 18.7839 52.4405 21.3185C52.4405 24.5476 49.6628 26.5961 45.6352 26.5961C41.6424 26.5961 39.1077 24.4781 39.1077 21.2491Z" fill="white"/>
<path d="M67.7955 9.20099H71.0245V26.1794H68.108L67.7607 23.6101C66.7886 25.3809 64.5317 26.5961 62.0318 26.5961C58.0737 26.5961 55.8515 23.9226 55.8515 19.7561V9.20099H59.1153V18.6798C59.1153 22.3254 60.6777 23.7143 63.1776 23.7143C66.1636 23.7143 67.7955 21.8046 67.7955 18.1589V9.20099Z" fill="white"/>
<path d="M85.4816 9.06211V12.0481H84.0233C80.9332 12.0481 79.0236 13.923 79.0236 17.1868V26.1794H75.7598V9.23571H78.8152L79.0236 11.805C79.718 10.0343 81.4193 8.85378 83.7456 8.85378C84.3358 8.85378 84.8219 8.92323 85.4816 9.06211Z" fill="white"/>
<path d="M95.2585 26.5961C90.2587 26.5961 86.8213 22.9851 86.8213 17.7076C86.8213 12.3953 90.1893 8.7149 95.1196 8.7149C99.9458 8.7149 103.105 12.0481 103.105 17.0826V18.2978L89.9809 18.3325C90.224 21.9088 92.0989 23.8879 95.3279 23.8879C97.8625 23.8879 99.5291 22.8462 100.085 20.9019H103.14C102.307 24.5476 99.4597 26.5961 95.2585 26.5961ZM95.1196 11.4578C92.2725 11.4578 90.467 13.1592 90.0504 16.1451H99.8416C99.8416 13.3328 98.0014 11.4578 95.1196 11.4578Z" fill="white"/>
<path d="M105.64 7.95105C105.64 3.29847 109.563 0 115.084 0C120.604 0 124.076 3.05542 124.076 7.91633H118.486C118.486 6.11085 117.132 4.99978 115.014 4.99978C112.723 4.99978 111.264 6.04141 111.264 7.74272C111.264 9.30515 112.063 10.069 113.869 10.4509L117.723 11.2495C122.306 12.187 124.493 14.3744 124.493 18.4367C124.493 23.4018 120.604 26.6308 114.702 26.6308C108.973 26.6308 105.258 23.5407 105.258 18.7145H110.848C110.848 20.5894 112.237 21.631 114.737 21.631C117.271 21.631 118.868 20.6241 118.868 18.9922C118.868 17.5687 118.209 16.8396 116.507 16.4923L112.584 15.6938C108.001 14.7563 105.64 12.1523 105.64 7.95105Z" fill="#B81736"/>
<path d="M126.624 17.4645C126.624 11.9787 130.652 8.29825 136.207 8.29825C141.728 8.29825 145.755 11.9787 145.755 17.4645C145.755 22.9504 141.728 26.5961 136.207 26.5961C130.652 26.5961 126.624 22.9504 126.624 17.4645ZM132.006 17.4298C132.006 20.0686 133.707 21.8046 136.207 21.8046C138.672 21.8046 140.373 20.0686 140.373 17.4298C140.373 14.8257 138.672 13.0897 136.207 13.0897C133.707 13.0897 132.006 14.8257 132.006 17.4298Z" fill="#B81736"/>
<path d="M147.223 8.81907H149.619V7.43023C149.619 2.25685 152.292 0 156.355 0C157.084 0 157.917 0.0694406 158.75 0.208324V4.79146H157.257C155.417 4.79146 154.966 5.93724 154.966 7.43023V8.81907H161.355V3.43735H166.702V8.81907H170V13.2633H166.702V26.1794H161.355V13.2633H154.966V26.1794H149.619V13.2633H147.223V8.81907Z" fill="#B81736"/>
</svg>
