<svg width="44" height="41" viewBox="0 0 44 41" fill="none" xmlns="http://www.w3.org/2000/svg">
<g clip-path="url(#clip0_237_1119)">
<path d="M0.793182 28.3436C0.807556 28.3418 0.822827 28.34 0.837201 28.3373C1.61516 28.1522 2.25207 27.8181 2.3428 26.9081C2.3455 26.8802 2.36526 26.8524 2.38323 26.829C2.81623 26.2595 2.75514 25.698 2.40479 25.1087C2.33831 24.9964 2.38772 24.7323 2.48205 24.6218C2.79197 24.2598 3.13423 23.922 3.49267 23.6076C3.59328 23.5196 3.84122 23.4665 3.93734 23.5285C4.5518 23.9229 5.14021 23.9454 5.7349 23.5052C5.74658 23.4962 5.76185 23.4908 5.77623 23.489C6.52184 23.3579 6.97999 22.9401 7.1381 22.1837C7.15966 22.0831 7.35909 21.9834 7.49204 21.952C7.66182 21.9115 7.85137 21.9636 8.02655 21.9376C8.85391 21.8145 9.47556 21.9852 9.62648 22.9482C9.64444 23.0605 9.83399 23.1755 9.96784 23.2357C10.3487 23.4055 10.7656 23.5043 11.1222 23.7118C11.4456 23.8995 11.7007 23.8986 12.0277 23.7396C12.7527 23.3884 12.7608 23.4046 13.3168 23.9606C13.3384 23.9822 13.3563 24.0064 13.3806 24.0235C14.0517 24.4924 14.3122 25.0395 13.7714 25.7905C13.6959 25.8956 13.7417 26.1274 13.7965 26.2774C13.9133 26.5981 14.1433 26.8919 14.1999 27.218C14.2996 27.7947 14.6419 28.0597 15.1611 28.1666C15.5734 28.2511 15.7333 28.4855 15.657 28.8952C15.6435 28.967 15.6462 29.0452 15.657 29.1188C15.7783 29.9669 15.6462 30.6442 14.6149 30.7817C14.5125 30.7951 14.4038 30.9712 14.3499 31.0943C14.225 31.3799 14.1873 31.7177 14.0157 31.9666C13.6447 32.5047 13.6681 33.0068 14.0157 33.5234C14.199 33.7965 14.1379 33.9959 13.8944 34.2079C13.5791 34.4819 13.2881 34.7846 13.0069 35.0937C12.8407 35.276 12.6907 35.3398 12.4715 35.1952C11.9028 34.8179 11.3315 34.7595 10.7638 35.2032C10.7296 35.2293 10.6829 35.2464 10.6398 35.2527C9.89508 35.3658 9.47645 35.8006 9.30937 36.5292C9.28421 36.6379 9.06232 36.7636 8.92398 36.7726C8.46314 36.8032 7.9978 36.7681 7.53606 36.7906C7.27824 36.8032 7.1372 36.7098 7.09049 36.4699C6.96292 35.8051 6.5991 35.3856 5.90469 35.294C5.87594 35.2904 5.8472 35.276 5.82294 35.2589C5.19231 34.8215 4.56258 34.7595 3.90321 35.2167C3.82325 35.2724 3.60765 35.1988 3.49447 35.1242C3.33546 35.0191 3.23036 34.8349 3.07405 34.7244C2.37784 34.2366 2.14427 33.6716 2.68327 32.9116C2.75155 32.8155 2.70753 32.6035 2.65722 32.4669C2.55391 32.1884 2.34011 31.936 2.29789 31.653C2.16583 30.7646 1.50376 30.5688 0.794081 30.4062C0.794081 29.7189 0.794081 29.0317 0.794081 28.3445L0.793182 28.3436ZM12.0223 29.3578C12.0196 27.2377 10.3272 25.5534 8.20442 25.5579C6.11759 25.5624 4.41885 27.2548 4.40358 29.3434C4.3883 31.4312 6.11759 33.1712 8.2125 33.1757C10.3164 33.1802 12.0241 31.4689 12.0223 29.3578Z" fill="#B81736"/>
<path d="M28.469 32.5063V36.8713C28.813 36.8713 29.1364 36.8713 29.4598 36.8713C30.4911 36.8713 31.5224 36.8677 32.5528 36.8731C33.1637 36.8767 33.7386 37.0132 34.2372 37.3869C34.7052 37.7382 34.9855 38.1918 34.9828 38.7946C34.981 39.2132 34.9765 39.6309 34.9855 40.0496C34.9945 40.4691 34.7941 40.655 34.3818 40.629C34.3072 40.6245 34.2327 40.629 34.1581 40.629C26.5969 40.629 19.0356 40.629 11.4743 40.629C10.7242 40.629 10.6578 40.5616 10.6569 39.8133C10.6569 39.6336 10.6569 39.4549 10.6569 39.2752C10.6569 37.7382 11.4573 36.909 13.0141 36.8785C14.2241 36.8551 15.4351 36.8722 16.6451 36.8713C16.8077 36.8713 16.9712 36.8713 17.1464 36.8713V27.8898H38.4378V27.3076C38.4378 23.9461 38.4144 20.5845 38.4602 17.2239C38.4683 16.6543 38.7153 16.065 38.9534 15.5305C39.1546 15.0795 40.4518 15.1056 40.6863 15.5278C40.7393 15.6221 40.7249 15.7605 40.7249 15.8782C40.7267 20.4498 40.7312 25.0214 40.7231 29.593C40.7204 31.3654 39.5867 32.4946 37.7972 32.5027C34.8831 32.5153 31.9698 32.5063 29.0556 32.5063C28.8786 32.5063 28.7016 32.5063 28.4708 32.5063H28.469Z" fill="#B81736"/>
<path d="M42.341 3.57922C42.217 3.85949 42.1146 4.1245 41.9844 4.37514C41.864 4.60601 41.8496 4.80274 41.9987 5.03721C42.1488 5.27437 42.3024 5.53758 42.3464 5.80708C42.4533 6.45567 42.8441 6.77817 43.4441 6.90664C43.764 6.97491 43.8852 7.15637 43.8367 7.47618C43.817 7.60733 43.8152 7.74747 43.8367 7.87863C43.9697 8.70869 43.781 9.31596 42.827 9.46598C42.7129 9.48395 42.5961 9.6708 42.5359 9.80465C42.4021 10.1029 42.359 10.455 42.1784 10.7156C41.8209 11.2303 41.8703 11.6992 42.1883 12.1879C42.3697 12.4664 42.3392 12.6901 42.0697 12.9183C41.7517 13.1878 41.4588 13.4905 41.1813 13.8022C41.0079 13.9972 40.848 14.0214 40.6423 13.8876C40.0862 13.5255 39.5301 13.4447 38.9732 13.8876C38.9282 13.9235 38.8663 13.9478 38.8097 13.9567C38.0928 14.078 37.6562 14.4724 37.5062 15.2027C37.4819 15.3222 37.2502 15.4363 37.0938 15.4812C36.9285 15.5288 36.7336 15.465 36.5602 15.4965C35.7212 15.6474 35.1606 15.4057 35.007 14.4886C34.9873 14.3718 34.8058 14.2505 34.6728 14.1894C34.3755 14.0538 34.0233 14.0097 33.7628 13.8292C33.2463 13.4716 32.7675 13.5237 32.286 13.84C31.968 14.0493 31.7578 13.9549 31.5305 13.6917C31.2673 13.3872 30.9762 13.1051 30.6762 12.8365C30.4893 12.6694 30.4354 12.5104 30.5764 12.2993C30.96 11.7253 30.9915 11.1539 30.5648 10.5844C30.5477 10.561 30.5342 10.5314 30.5297 10.5027C30.413 9.74446 29.971 9.31057 29.2263 9.14258C29.1212 9.11923 29.0125 8.92878 28.9837 8.79852C28.9424 8.61346 29.0008 8.40775 28.9684 8.2191C28.8256 7.38724 29.0448 6.81321 29.9701 6.65959C30.0896 6.63983 30.2162 6.46376 30.2764 6.3317C30.4058 6.04873 30.4399 5.70916 30.6106 5.45942C30.9789 4.92312 30.9645 4.42275 30.616 3.90441C30.4345 3.63401 30.4875 3.43189 30.7337 3.21898C31.049 2.94589 31.3391 2.64226 31.6212 2.33413C31.7865 2.15356 31.941 2.08439 32.1593 2.22902C32.7468 2.6189 33.2741 2.52278 33.9245 2.2398C34.6216 1.93617 35.184 1.65679 35.3322 0.850982C35.3484 0.762946 35.5406 0.652451 35.6556 0.647061C36.147 0.624603 36.642 0.618315 37.1334 0.649756C37.2663 0.657841 37.4801 0.797981 37.5035 0.910272C37.6553 1.63253 38.0766 2.04487 38.7989 2.16075C38.8132 2.16344 38.8303 2.16614 38.8411 2.17422C39.4583 2.62968 40.0772 2.63687 40.7177 2.21016C40.7977 2.15716 40.9971 2.16973 41.0663 2.23351C41.4714 2.60812 41.8559 3.00518 42.2431 3.39955C42.2907 3.44806 42.3123 3.52172 42.3419 3.57742L42.341 3.57922ZM36.3949 11.8636C38.5087 11.8654 40.2245 10.1604 40.2218 8.06099C40.2191 5.96518 38.4863 4.23769 36.394 4.24668C34.3036 4.25566 32.6157 5.94542 32.604 8.03943C32.5923 10.1604 34.2794 11.8618 36.3949 11.8636Z" fill="#B81736"/>
<path d="M27.5356 8.08801C27.5356 8.53088 27.5446 8.91896 27.5329 9.30614C27.5203 9.73644 27.4512 10.1847 28.0432 10.3644C27.8734 10.3644 27.7036 10.3644 27.5338 10.3644C21.0209 10.3644 14.5089 10.3644 7.996 10.3644C7.24679 10.3644 7.22164 10.3904 7.22164 11.1513C7.22164 14.0637 7.22164 16.9752 7.22164 19.8876C7.22164 20.0655 7.22164 20.2442 7.22164 20.4284C7.14528 20.458 7.08599 20.5056 7.04018 20.4958C6.30085 20.3269 6.03315 20.7599 5.8966 21.3734C5.78521 21.872 5.49685 22.181 4.93449 22.2241C4.9282 22.0804 4.91652 21.9376 4.91652 21.7947C4.91563 18.196 4.91383 14.5964 4.91652 10.9977C4.91832 9.22619 6.05291 8.07184 7.82173 8.07004C14.2601 8.06375 20.6975 8.06734 27.1358 8.06824C27.2517 8.06824 27.3676 8.07902 27.5365 8.08801H27.5356Z" fill="#B81736"/>
<path d="M16.5841 19.1221C17.5785 19.9594 18.5155 20.7481 19.4506 21.5378C19.5764 21.6438 19.7076 21.7444 19.8189 21.8639C20.0911 22.1549 20.1055 22.5655 19.8468 22.835C19.571 23.1224 19.2386 23.1566 18.9143 22.9374C18.6556 22.7631 18.4274 22.5421 18.1876 22.3409C17.1814 21.4946 16.1744 20.6502 15.171 19.8013C14.6068 19.3234 14.6077 18.9092 15.1683 18.4358C16.3433 17.4432 17.5165 16.4478 18.7014 15.4659C18.8658 15.3303 19.1039 15.1605 19.2781 15.1893C19.5225 15.2288 19.8171 15.3887 19.9492 15.5899C20.1504 15.8962 20.0094 16.2205 19.7264 16.4595C18.8362 17.2105 17.945 17.9615 17.0548 18.7125C16.9092 18.8356 16.7673 18.9622 16.5823 19.1221H16.5841Z" fill="#B81736"/>
<path d="M29.0592 19.1086C28 18.2165 26.9831 17.3631 25.9707 16.5052C25.5467 16.1459 25.4973 15.6697 25.8405 15.3499C26.1306 15.0795 26.5052 15.093 26.8852 15.411C27.8698 16.2339 28.849 17.063 29.8299 17.8895C30.0806 18.1006 30.3375 18.3063 30.58 18.5282C30.9834 18.8965 31.0041 19.3358 30.5989 19.6835C29.3421 20.7615 28.0737 21.8278 26.8008 22.886C26.4549 23.1735 26.0183 23.1187 25.7659 22.8025C25.5171 22.4908 25.5683 22.0757 25.9204 21.7748C26.8502 20.9798 27.7889 20.1946 28.7232 19.405C28.8238 19.3197 28.9208 19.2307 29.0592 19.1086Z" fill="#B81736"/>
<path d="M21.7324 24.2336C21.135 24.2336 20.8349 23.8195 20.9742 23.2607C21.2042 22.3364 21.4602 21.4174 21.7063 20.4975C22.2112 18.6137 22.716 16.7299 23.2218 14.8452C23.2488 14.7446 23.2739 14.643 23.3071 14.5442C23.4509 14.1184 23.8174 13.9046 24.2073 14.0178C24.5909 14.1301 24.7921 14.5038 24.6753 14.9449C24.1767 16.8305 23.6701 18.7143 23.1661 20.599C22.9011 21.5916 22.6361 22.5843 22.3711 23.5769C22.2705 23.956 22.0701 24.2237 21.7324 24.2336Z" fill="#B81736"/>
</g>
<defs>
<clipPath id="clip0_237_1119">
<rect width="43.0804" height="40" fill="white" transform="translate(0.793182 0.630859)"/>
</clipPath>
</defs>
</svg>
