<svg width="42" height="41" viewBox="0 0 42 41" fill="none" xmlns="http://www.w3.org/2000/svg">
<g clip-path="url(#clip0_237_1096)">
<path d="M32.3703 40.6284C29.745 40.6284 27.1192 40.6284 24.4939 40.6284C23.921 40.6284 23.7024 40.4102 23.7028 39.8364C23.7033 38.5874 23.6899 37.3381 23.7114 36.0891C23.7315 34.9262 24.0404 33.8405 24.7221 32.8843C25.5857 31.6726 26.7821 31.0477 28.255 30.9412C28.6035 30.9159 28.9548 30.925 29.3048 30.9302C29.4475 30.9321 29.5306 30.8858 29.5597 30.745C29.6557 30.279 29.7607 29.815 29.8433 29.3466C29.8576 29.266 29.7798 29.169 29.7426 29.0802C29.7368 29.0669 29.7178 29.0607 29.7077 29.0483C29.4518 28.727 29.1334 28.6186 28.7109 28.5823C27.5556 28.483 26.4804 28.0896 25.4869 27.4852C25.2401 27.3348 25.1122 27.1205 25.1518 26.8273C25.1881 26.5581 25.3809 26.3752 25.6946 26.3022C26.3195 26.1571 26.6647 25.726 26.8552 25.1492C27.0304 24.6184 27.0409 24.0693 26.9741 23.5194C26.8117 22.1859 26.9979 20.9136 27.6611 19.7354C28.6054 18.0578 30.0772 17.1927 31.9678 17.0017C35.1034 16.6857 37.4853 19.0823 37.7875 21.9152C37.8509 22.5101 37.7908 23.1202 37.7645 23.7227C37.7402 24.2851 37.7574 24.838 37.9865 25.3617C38.2028 25.8563 38.5566 26.1967 39.1027 26.3093C39.382 26.3671 39.552 26.5442 39.6002 26.8221C39.647 27.0909 39.5515 27.3138 39.3161 27.4551C38.2085 28.1192 37.025 28.5479 35.7222 28.6143C35.6143 28.6195 35.5073 28.7126 35.4066 28.7752C35.0166 29.0182 34.964 29.3753 35.0758 29.7844C35.1636 30.1062 35.2548 30.4266 35.3388 30.7493C35.3751 30.8892 35.4572 30.9226 35.5971 30.9307C36.1829 30.9651 36.7858 30.9398 37.3497 31.0749C39.2569 31.5313 40.3607 32.826 40.8438 34.6722C40.9833 35.2045 41.0348 35.7702 41.0487 36.3226C41.0787 37.5071 41.0587 38.6934 41.0577 39.8788C41.0577 40.4016 40.8271 40.6269 40.2943 40.6269C37.6528 40.6269 35.0118 40.6269 32.3703 40.6269V40.6284ZM39.8045 39.3575C39.8045 38.9498 39.8098 38.5535 39.8036 38.1578C39.7892 37.2836 39.8308 36.4028 39.7358 35.5368C39.5973 34.2726 39.0125 33.2452 37.8615 32.5988C37.691 32.5028 37.5936 32.521 37.4614 32.667C36.5104 33.7159 35.5508 34.7567 34.5912 35.7979C34.2775 36.1383 33.9667 36.1622 33.6048 35.8815C33.253 35.6084 32.8983 35.3386 32.5574 35.0517C32.4166 34.9333 32.3259 34.9491 32.1931 35.0598C31.8575 35.3401 31.5095 35.606 31.1653 35.8762C30.8034 36.1603 30.4845 36.1388 30.178 35.8056C29.2351 34.782 28.286 33.7632 27.3569 32.7272C27.1751 32.5243 27.0342 32.4847 26.827 32.6451C26.7836 32.679 26.7306 32.7009 26.6843 32.7315C25.6411 33.4142 25.1241 34.423 25.0124 35.6232C24.9303 36.5074 24.967 37.4025 24.9546 38.2929C24.9498 38.6419 24.9537 38.9909 24.9537 39.3575H39.805H39.8045ZM28.2526 23.6998C28.2612 23.802 28.2636 23.8717 28.2736 23.94C28.4421 25.0757 28.9348 26.074 29.5812 27.0049C30.0429 27.67 30.5847 28.2581 31.2794 28.6902C31.9993 29.138 32.7379 29.171 33.4683 28.7399C33.7867 28.5518 34.0971 28.3274 34.3563 28.0648C35.5651 26.8412 36.2359 25.3445 36.5037 23.6597C36.5629 23.2888 36.5696 22.9097 36.6054 22.4757C35.0624 23.3704 33.7891 23.0109 32.6663 21.8226C31.5615 23.316 30.114 23.9571 28.2526 23.6998ZM32.4027 18.2124C30.1574 18.2091 28.3199 19.9569 28.1986 22.206C28.1915 22.3397 28.2168 22.4084 28.3619 22.4337C29.3392 22.6065 30.23 22.4351 31.0015 21.784C31.4465 21.4082 31.7778 20.9456 32.0069 20.4104C32.1101 20.1693 32.291 20.0295 32.5526 20.0108C32.8157 19.9922 33.0109 20.1101 33.1465 20.3345C33.2205 20.4568 33.2926 20.5814 33.3776 20.6959C33.6889 21.118 34.0474 21.4932 34.5606 21.6594C35.1946 21.8646 35.704 21.5763 36.1891 21.2106C36.297 21.1289 36.3118 21.0564 36.2659 20.9299C35.6725 19.2876 34.151 18.2143 32.4022 18.212L32.4027 18.2124ZM32.3812 33.2132C32.9823 32.5892 33.5614 31.9896 34.1372 31.3862C34.1687 31.3527 34.1925 31.283 34.1806 31.2415C34.0593 30.8238 33.9304 30.4084 33.7987 29.9773C32.8997 30.4079 31.984 30.4203 31.0769 30.0012C30.9385 30.4633 30.8039 30.9011 30.6802 31.3422C30.6673 31.389 30.7012 31.4673 30.7385 31.5069C31.276 32.0703 31.8174 32.6293 32.3812 33.2132ZM31.4469 34.0558C30.8487 33.4343 30.2768 32.8394 29.7039 32.246C29.6776 32.2188 29.6385 32.1882 29.6046 32.1877C29.2766 32.1834 28.9486 32.1853 28.5567 32.1853C29.3205 33.0165 30.0371 33.7966 30.7676 34.5915C30.9972 34.4106 31.2073 34.2449 31.4469 34.0558ZM33.9949 34.591C34.7282 33.7928 35.4443 33.0132 36.2086 32.181C35.8511 32.181 35.5675 32.1705 35.2858 32.1868C35.1875 32.1925 35.07 32.2426 35.0008 32.3114C34.6179 32.6924 34.247 33.0857 33.8722 33.4753C33.6917 33.6625 33.5122 33.8501 33.316 34.0544C33.548 34.2377 33.7581 34.4034 33.9954 34.591H33.9949ZM27.1808 26.9386C27.5312 27.0446 27.8477 27.14 28.2263 27.2546C28.032 26.8966 27.8754 26.6082 27.7121 26.3079C27.5379 26.5146 27.377 26.7061 27.1808 26.9386ZM37.5817 26.9348C37.3941 26.7166 37.2389 26.5356 37.0685 26.3375C36.9119 26.6354 36.7682 26.909 36.592 27.2436C36.9534 27.131 37.2504 27.0384 37.5817 26.9348Z" fill="#B81736"/>
<path d="M18.7392 39.3748C18.7392 38.4324 18.7512 37.5335 18.7359 36.6355C18.7225 35.8573 18.7583 35.0667 18.6323 34.3047C18.3081 32.3435 16.5703 30.758 14.6292 30.5499C14.4802 30.5341 14.3781 30.5652 14.2721 30.6735C13.5984 31.3615 12.9215 32.0456 12.2369 32.7221C12.1185 32.8391 12.0922 32.9436 12.1295 33.1002C12.3557 34.0436 12.5682 34.9903 12.7964 35.9332C12.8661 36.2206 12.8155 36.4564 12.6298 36.688C12.097 37.3516 11.5761 38.0252 11.0505 38.6945C10.6901 39.1538 10.2661 39.1581 9.90709 38.7046C9.37908 38.0371 8.85631 37.3649 8.32256 36.7023C8.13208 36.466 8.07383 36.2249 8.14688 35.927C8.37603 34.9927 8.5861 34.0531 8.81048 33.1179C8.84963 32.9556 8.82719 32.8453 8.70067 32.7207C8.02036 32.0509 7.35055 31.371 6.6817 30.6898C6.57333 30.5795 6.47259 30.5322 6.30836 30.5494C4.07264 30.7891 2.26897 32.7641 2.21503 35.0891C2.18304 36.465 2.20834 37.8419 2.20882 39.2183C2.20882 39.2569 2.21694 39.2961 2.22553 39.3748C2.36684 39.3748 2.50577 39.3748 2.6447 39.3748C3.07437 39.3748 3.50404 39.3715 3.93371 39.3768C4.33522 39.3815 4.60639 39.636 4.60686 39.996C4.60686 40.3545 4.32996 40.6238 3.93992 40.6266C3.16794 40.6319 2.39644 40.6328 1.62447 40.6271C1.22535 40.6242 0.954181 40.3836 0.954181 40.0022C0.954181 38.2362 0.892594 36.466 0.991896 34.7053C1.14801 31.9406 3.41285 29.6237 6.16227 29.3244C6.76238 29.259 7.12235 28.8789 7.52385 28.5271C7.63032 28.434 7.71625 28.317 7.83131 28.1886C7.74776 28.1327 7.67853 28.086 7.60883 28.0396C6.02096 26.9841 5.19933 25.4993 5.14682 23.5983C5.12342 22.7475 5.13918 21.8958 5.14347 21.0441C5.15446 18.8265 6.90465 17.0296 9.12127 16.9761C10.004 16.9551 10.8877 16.9556 11.7704 16.9737C14.0458 17.0205 15.7907 18.8146 15.7922 21.0923C15.7926 21.8882 15.7974 22.6836 15.7907 23.4794C15.7745 25.4454 14.9304 26.9621 13.2953 28.0454C13.2428 28.0802 13.1903 28.1151 13.1206 28.1614C13.1564 28.2187 13.1802 28.2774 13.2213 28.3189C13.3946 28.4937 13.5684 28.6689 13.7512 28.8336C14.0701 29.1215 14.4272 29.2814 14.8736 29.3353C17.6512 29.6719 19.9046 32.1387 19.9776 34.943C20.0211 36.6207 19.9905 38.3007 19.9877 39.9793C19.9872 40.3674 19.7299 40.6185 19.3412 40.6271C19.039 40.6338 18.7364 40.6285 18.4342 40.6285C14.4163 40.6285 10.3984 40.63 6.37997 40.6238C6.2124 40.6238 6.0286 40.586 5.8806 40.5101C5.64953 40.3917 5.55787 40.1072 5.61945 39.8484C5.6777 39.6026 5.88155 39.415 6.13697 39.3854C6.24725 39.3725 6.35944 39.3753 6.47068 39.3753C10.4332 39.3753 14.3953 39.3753 18.3578 39.3753C18.4752 39.3753 18.5931 39.3753 18.7392 39.3753V39.3748ZM6.40098 21.9684C6.40098 22.5661 6.38379 23.1194 6.4048 23.6718C6.43822 24.5612 6.70223 25.3776 7.27703 26.0718C8.2901 27.2958 9.59391 27.8196 11.1574 27.5388C12.6961 27.2624 13.7885 26.3845 14.3246 24.8882C14.6664 23.9339 14.5222 22.9371 14.5308 21.955C14.5308 21.946 14.5089 21.9374 14.4917 21.9235C13.0532 22.726 11.6936 22.5718 10.4022 21.5526C9.83548 21.9985 9.21867 22.325 8.49204 22.4124C7.76399 22.4997 7.09084 22.3245 6.40146 21.9684H6.40098ZM10.4618 18.204C10.4618 18.2135 10.4609 18.2231 10.4609 18.2331C10.0078 18.2331 9.55429 18.2226 9.10122 18.235C7.90912 18.2689 6.83829 19.1096 6.5232 20.2593C6.50076 20.3409 6.51938 20.4712 6.57285 20.5299C7.2207 21.2351 8.37174 21.3917 9.17474 20.8703C9.47265 20.677 9.7357 20.4287 10.0083 20.1981C10.3583 19.9021 10.7249 19.9193 10.9966 20.2912C11.7108 21.269 13.1354 21.6056 14.3246 20.4612C14.3814 20.4063 14.4191 20.2726 14.3943 20.2001C14.0458 19.1803 13.354 18.5 12.2913 18.3028C11.696 18.1925 11.0729 18.2322 10.4623 18.2045L10.4618 18.204ZM7.81269 30.0367C7.80791 30.03 7.81937 30.0515 7.8356 30.0677C8.24331 30.4807 8.65007 30.8955 9.06064 31.3056C9.31319 31.5577 9.5328 31.9014 9.83978 32.0246C10.1563 32.1516 10.5607 32.0728 10.9249 32.0571C11.0443 32.0518 11.187 31.9907 11.2725 31.9076C11.8416 31.3524 12.3982 30.7843 12.9587 30.22C13.0294 30.1489 13.0962 30.0739 13.1306 30.0376C12.7424 29.6017 12.3772 29.1854 12.002 28.7787C11.9562 28.729 11.8478 28.6956 11.7824 28.7118C10.9073 28.9295 10.035 28.9281 9.15995 28.7137C9.09645 28.6985 8.99237 28.7152 8.95275 28.7586C8.57321 29.1725 8.20369 29.5951 7.81221 30.0367H7.81269ZM10.4733 37.3936C10.8027 36.9749 11.1178 36.5872 11.4152 36.1867C11.4749 36.1065 11.504 35.9676 11.483 35.8692C11.3455 35.2242 11.1913 34.5826 11.0414 33.94C10.8901 33.2917 10.8891 33.295 10.2193 33.3184C10.0962 33.3227 10.0346 33.3566 10.0059 33.4831C9.82164 34.2971 9.62781 35.1092 9.44496 35.9236C9.43016 35.9905 9.44878 36.0869 9.48984 36.1409C9.80302 36.551 10.1258 36.9539 10.4728 37.3936H10.4733Z" fill="#B81736"/>
<path d="M28.4832 10.2536C28.4244 10.742 28.3815 11.2089 28.307 11.671C28.2774 11.8553 28.3151 11.9599 28.466 12.0673C28.9004 12.3757 29.3248 12.6984 29.7502 13.0192C30.0882 13.2742 30.1522 13.5721 29.944 13.9363C29.5177 14.6821 29.089 15.4263 28.6569 16.1687C28.4478 16.5277 28.1547 16.6242 27.7642 16.4604C27.2653 16.2518 26.7683 16.0384 26.2751 15.8164C26.1276 15.75 26.025 15.75 25.8951 15.866C25.1508 16.5335 24.2982 17.0185 23.35 17.3322C23.213 17.3775 23.1662 17.4506 23.1514 17.5847C23.0908 18.138 23.0244 18.6909 22.9552 19.2437C22.9032 19.6605 22.674 19.8596 22.2505 19.8605C21.3993 19.8625 20.5481 19.8625 19.6964 19.8605C19.2629 19.8596 19.0342 19.6514 18.9836 19.2227C18.9201 18.6856 18.8504 18.149 18.7955 17.611C18.7798 17.4563 18.7287 17.378 18.5726 17.326C17.6406 17.0156 16.8009 16.5373 16.0685 15.8818C15.9224 15.751 15.8107 15.75 15.6479 15.8236C15.1696 16.0398 14.6864 16.2451 14.2033 16.4504C13.7865 16.6275 13.501 16.5325 13.2771 16.1458C12.8589 15.423 12.4407 14.7002 12.0258 13.9755C11.7842 13.5535 11.8439 13.2851 12.2378 12.9896C12.6641 12.6698 13.088 12.347 13.5196 12.0343C13.6366 11.9493 13.6786 11.8753 13.6471 11.7207C13.4504 10.7587 13.438 9.79192 13.6399 8.82994C13.6819 8.62942 13.6227 8.52917 13.47 8.41936C13.037 8.10904 12.6135 7.78488 12.1886 7.4631C11.863 7.21724 11.7962 6.92124 12 6.56414C12.4287 5.81078 12.8641 5.06124 13.301 4.31266C13.4996 3.97274 13.7898 3.87248 14.1541 4.02287C14.6759 4.23818 15.1949 4.46113 15.7105 4.69125C15.8394 4.74854 15.9239 4.73278 16.0279 4.64064C16.7885 3.96797 17.6516 3.47337 18.6136 3.14491C18.69 3.11865 18.7707 2.99691 18.7831 2.91002C18.8604 2.36673 18.9192 1.82104 18.9841 1.27584C19.0356 0.84378 19.261 0.634196 19.6921 0.632764C20.5433 0.629899 21.3945 0.629899 22.2462 0.632764C22.6783 0.634196 22.9013 0.834232 22.9566 1.27106C23.0249 1.80768 23.0922 2.34429 23.1476 2.88233C23.1648 3.04847 23.2321 3.12247 23.3925 3.17642C24.3082 3.48292 25.136 3.95126 25.8579 4.59338C26.0145 4.73278 26.1352 4.74233 26.3191 4.65687C26.7879 4.43917 27.2672 4.24487 27.7427 4.04244C28.148 3.8701 28.4354 3.95364 28.6555 4.32794C29.0909 5.0684 29.5211 5.81173 29.9464 6.55793C30.1551 6.9241 30.0877 7.2158 29.7469 7.47408C29.3158 7.80063 28.8851 8.12814 28.4459 8.44371C28.3094 8.54158 28.2793 8.63945 28.3041 8.80272C28.3767 9.28921 28.4268 9.77903 28.4836 10.2531L28.4832 10.2536ZM28.6111 13.7368C28.1456 13.3883 27.7069 13.0603 27.2686 12.7314C26.933 12.4793 26.8657 12.2888 26.975 11.8863C27.2653 10.8188 27.2696 9.74991 26.9951 8.6786C26.8647 8.17063 26.9125 8.03075 27.3254 7.72043C27.7494 7.40152 28.1743 7.08404 28.6121 6.75558C28.3395 6.28628 28.0778 5.83608 27.8134 5.38015C27.2791 5.60836 26.775 5.82415 26.2708 6.0385C25.897 6.19748 25.6893 6.16168 25.4081 5.88048C24.597 5.06792 23.6398 4.50983 22.5274 4.22529C22.1909 4.13888 22.0123 3.93932 21.9741 3.59702C21.9192 3.09908 21.861 2.60114 21.7922 2.1051C21.7817 2.02824 21.712 1.89838 21.6667 1.89695C21.1764 1.88167 20.6851 1.8874 20.1762 1.8874C20.1093 2.44836 20.0449 2.9845 19.9824 3.52015C19.9303 3.96653 19.8024 4.12169 19.377 4.23484C18.3076 4.51938 17.3819 5.0536 16.5932 5.82749C16.2304 6.18316 16.0661 6.21037 15.593 6.00461C15.1132 5.79646 14.632 5.59212 14.1341 5.37872C13.8638 5.84515 13.6032 6.29535 13.3363 6.75606C13.7927 7.09693 14.2257 7.41966 14.6578 7.74287C15.0201 8.01404 15.0836 8.19498 14.969 8.6256C14.6797 9.71028 14.6802 10.795 14.9714 11.8792C15.0831 12.2945 15.0177 12.4807 14.6673 12.7423C14.2291 13.0703 13.7898 13.3969 13.3373 13.7344C13.6075 14.2013 13.8681 14.652 14.1345 15.1132C14.6549 14.8902 15.1509 14.6778 15.6475 14.4653C16.0676 14.2858 16.2442 14.3178 16.5655 14.6367C17.3437 15.4096 18.257 15.9496 19.3154 16.2422C19.8344 16.3859 19.9308 16.5072 19.9909 17.0524C20.0478 17.5647 20.1132 18.0765 20.1771 18.6064C20.6818 18.6064 21.1663 18.6121 21.6504 18.5978C21.7006 18.5964 21.7803 18.4784 21.7903 18.4073C21.8595 17.9113 21.9202 17.4138 21.9703 16.9154C22.0071 16.5483 22.2014 16.352 22.5551 16.2609C23.6341 15.9825 24.5665 15.4402 25.3585 14.6568C25.7027 14.3164 25.8755 14.2825 26.3152 14.4715C26.8098 14.684 27.3049 14.8955 27.8143 15.1136C28.0836 14.6477 28.3409 14.2027 28.6111 13.7353V13.7368Z" fill="#B81736"/>
<path d="M21.0241 6.41938C23.1691 6.46665 24.8525 8.21541 24.8028 10.3456C24.7541 12.4333 22.9829 14.1277 20.9 14.078C18.8032 14.0284 17.1031 12.2806 17.1485 10.2215C17.1957 8.07027 18.9254 6.37307 21.0241 6.41938ZM20.9563 12.8181C22.3881 12.821 23.5405 11.6781 23.5477 10.2473C23.5549 8.84273 22.3948 7.68309 20.9788 7.68023C19.5565 7.67736 18.4122 8.81361 18.4041 10.2363C18.3959 11.6513 19.546 12.8153 20.9558 12.8181H20.9563Z" fill="#B81736"/>
</g>
<defs>
<clipPath id="clip0_237_1096">
<rect width="40.1299" height="40" fill="white" transform="translate(0.935059 0.630859)"/>
</clipPath>
</defs>
</svg>
