<svg width="49" height="41" viewBox="0 0 49 41" fill="none" xmlns="http://www.w3.org/2000/svg">
<g clip-path="url(#clip0_237_1106)">
<path d="M24.6526 40.627C21.1894 40.627 17.7261 40.631 14.2628 40.627C11.9413 40.625 10.7254 39.4351 10.7193 37.1436C10.7113 34.0135 10.7093 30.8833 10.7193 27.7531C10.7294 24.934 12.1038 23.1341 14.8227 22.3496C16.2593 21.9342 17.7 21.5289 19.1367 21.1156C20.1761 20.8166 20.4851 19.7591 19.8952 18.8422C19.3273 17.9613 18.8778 17.0062 18.3622 16.0892C18.2398 15.8705 18.1053 15.6277 17.9087 15.4893C16.6426 14.5903 16.0085 11.7912 16.7469 10.4509C16.9375 10.1058 17.07 9.65029 17.0258 9.26905C16.7951 7.21839 17.2626 5.33025 18.4645 3.69694C20.6175 0.773439 26.0471 -0.659217 29.2195 2.1459C31.3042 3.98789 32.7329 6.41578 32.1911 9.48375C32.155 9.69243 32.1369 9.98337 32.2513 10.1278C33.391 11.5846 32.5483 13.0554 32.3095 14.5201C32.2894 14.6425 32.2132 14.807 32.1149 14.8592C30.4354 15.7421 30.5919 17.857 29.2756 19.0348C28.5673 19.6668 29.1011 20.8266 30.0522 21.0995C31.5871 21.5389 33.1201 21.9763 34.6551 22.4178C37.0409 23.104 38.4695 24.9259 38.4896 27.4C38.5157 30.7288 38.5097 34.0596 38.4916 37.3904C38.4816 39.3889 37.2475 40.6169 35.239 40.627C31.7095 40.643 28.1801 40.631 24.6486 40.631L24.6526 40.627ZM22.4053 20.7283C22.5638 22.2071 21.6749 22.8231 20.2864 23.1401C18.6371 23.5174 17.0198 24.0431 15.3925 24.5146C13.7311 24.9962 12.9927 25.9011 12.9787 27.6087C12.9526 30.805 12.9827 34.0014 12.9686 37.1958C12.9646 38.0365 13.3218 38.3977 14.1685 38.3957C21.093 38.3837 28.0176 38.3957 34.9421 38.3877C36.0818 38.3877 36.2644 38.187 36.2664 37.0353C36.2744 33.873 36.2784 30.7107 36.2664 27.5465C36.2603 25.9673 35.5219 25.0022 33.993 24.5547C32.4299 24.0972 30.8708 23.6157 29.2897 23.2364C27.8189 22.8833 26.5929 22.3897 26.8197 20.7243H22.4053V20.7283ZM18.5929 11.8434C18.7855 12.4213 18.8578 13.264 19.1226 13.3302C20.2042 13.6011 20.2543 14.4459 20.459 15.2304C21.2415 18.2302 24.0286 19.4381 26.7454 18.0054C28.0216 17.3333 28.6035 16.2698 28.8703 14.9335C29.0068 14.2512 29.1412 13.5871 30.0381 13.3904C30.5498 13.2781 30.6762 11.9437 30.2227 11.6327C29.6749 11.2575 29.7311 10.7438 29.5887 10.2001C29.384 9.42355 28.78 8.75337 28.3446 8.03705C26.3983 8.27783 24.6787 7.69393 23.2621 6.60439C22.5999 6.86724 22.0943 7.1301 21.5566 7.26855C20.6376 7.50532 19.3775 9.10251 19.5922 10.0476C19.7988 10.9505 19.4577 11.4361 18.5929 11.8414V11.8434Z" fill="#B81736"/>
<path d="M39.6714 37.4024V35.1932C41.074 35.1932 42.4906 35.2012 43.9072 35.1932C46.7605 35.1731 46.4093 35.5203 46.4254 32.7111C46.4314 31.4791 46.4434 30.2471 46.4234 29.0151C46.3993 27.6567 45.7632 26.832 44.473 26.4608C42.94 26.0194 41.393 25.6241 39.8741 25.1365C39.4848 25.0121 39.0715 24.6851 38.8588 24.3359C37.9258 22.813 36.6416 21.7916 34.92 21.3161C33.8947 21.0332 32.8693 20.7503 31.846 20.4553C30.8106 20.1583 30.5357 19.438 31.0514 18.529C31.3945 17.9251 31.6714 17.285 32.1048 16.4041C32.3476 17.0282 32.5824 17.4716 32.6907 17.9451C32.9556 19.117 33.5234 19.9838 34.6471 20.5436C36.772 21.603 39.1056 20.6118 39.7738 18.3003C39.9945 17.5338 39.9704 16.6168 41.0278 16.3138C41.1382 16.2817 41.066 15.433 40.9897 14.9795C40.9135 14.528 40.6085 14.0966 40.6065 13.6552C40.6024 12.7864 39.8179 11.9978 38.9471 11.8975C37.9739 11.7851 36.9666 11.6086 36.0798 11.2213C35.3614 10.9083 34.7715 10.4829 34.0271 11.145C33.8084 10.6414 33.6278 10.222 33.4472 9.80469C34.8136 8.54058 34.8277 8.52052 36.3406 9.55187C37.5646 10.3886 38.8487 10.509 40.2393 10.0635C39.1277 7.94866 37.1713 6.23308 33.5074 8.46233C33.4612 8.15533 33.4171 7.87442 33.377 7.5915C33.1422 5.96421 33.2967 5.65521 34.9421 5.3442C36.8302 4.98503 38.7966 5.0673 40.2593 6.38157C42.0612 7.99882 43.4136 9.98127 43.1427 12.6439C43.1026 13.0412 43.1708 13.5027 43.3434 13.8579C44.0055 15.2183 43.5079 17.5097 42.32 18.4668C42.1114 18.6354 41.997 18.9324 41.8605 19.1832C41.4974 19.8493 41.2084 20.5677 40.773 21.1797C40.0246 22.2311 40.2032 22.9233 41.4131 23.2644C42.6611 23.6156 43.9112 23.9587 45.1573 24.3159C47.2842 24.9238 48.6325 26.6675 48.6546 28.8767C48.6727 30.7748 48.6787 32.673 48.6506 34.5712C48.6305 36.066 47.6413 37.3061 46.2006 37.3783C44.0517 37.4887 41.8906 37.4064 39.6795 37.4064L39.6714 37.4024Z" fill="#B81736"/>
<path d="M17.1121 16.4102C17.6338 17.4055 17.9729 18.0817 18.3401 18.7438C18.7193 19.426 18.4785 20.1303 17.7141 20.3651C16.6345 20.6962 15.543 21.0012 14.4494 21.2841C12.6436 21.7516 11.3112 22.807 10.3541 24.4022C10.1595 24.7293 9.77425 25.0363 9.41508 25.1526C7.92624 25.6262 6.41332 26.0215 4.91044 26.4489C3.59416 26.8241 2.93602 27.6227 2.91596 28.963C2.88987 30.6947 2.93201 32.4283 2.8979 34.1579C2.88185 34.9525 3.23098 35.2133 3.98142 35.2033C5.83745 35.1792 7.69549 35.1953 9.61172 35.1953V37.4265C8.61448 37.4265 7.59918 37.4265 6.58187 37.4265C5.58263 37.4265 4.58338 37.4466 3.58413 37.4205C1.85852 37.3744 0.712799 36.2306 0.690727 34.5091C0.666649 32.6109 0.666649 30.7107 0.690727 28.8125C0.716812 26.6555 2.0351 24.948 4.14596 24.3219C5.4522 23.9347 6.77249 23.5916 8.08476 23.2224C9.03184 22.9555 9.25857 22.193 8.72885 21.3543C8.25531 20.6059 7.87608 19.7992 7.4527 19.0187C7.3584 18.8461 7.29218 18.6415 7.15574 18.5131C5.67894 17.1406 5.34385 15.4832 6.1585 13.6412C6.25682 13.4165 6.21468 13.1316 6.24478 12.8747C6.38122 11.7651 6.40731 10.6254 6.67819 9.54994C7.57309 5.99639 12.5774 4.4293 15.5189 5.55094C16.0105 5.73955 16.2152 5.95626 16.0807 6.49601C15.9443 7.04179 15.8921 7.60762 15.7978 8.19754C14.612 7.42302 13.2937 7.15014 11.9553 7.6317C10.8959 8.01294 9.9147 8.60888 9.15423 9.45964L9.31275 9.78671C9.83244 9.59007 10.4384 9.50178 10.8497 9.17271C11.4196 8.71723 11.843 8.70318 12.453 9.07238C13.3739 9.6302 14.3571 10.0797 15.4246 10.6315C15.3905 10.8622 15.3203 11.3137 15.2059 12.0661C14.2388 11.7009 13.3097 11.426 12.457 11.0007C11.9694 10.7579 11.5962 10.5532 11.1246 10.9565C11.0042 11.0588 10.8257 11.115 10.6651 11.1411C10.005 11.2495 9.33482 11.3177 9.18433 12.1684C9.07999 12.7624 8.97967 13.3563 8.82717 13.9382C8.73888 14.2753 8.61047 14.6345 8.39577 14.8973C7.85401 15.5655 7.97239 15.9668 8.65461 16.5226C9.04588 16.8416 9.33081 17.4155 9.44919 17.9232C9.73412 19.1431 10.3441 20.0119 11.4918 20.5758C13.5064 21.565 15.8941 20.5477 16.5021 18.3867C16.6666 17.7987 16.8633 17.2209 17.1181 16.4002L17.1121 16.4102Z" fill="#B81736"/>
<path d="M30.9029 30.4035C30.913 33.933 28.1139 36.712 24.5603 36.7C21.1593 36.688 18.3281 33.8708 18.306 30.4778C18.2839 26.9985 21.1673 24.093 24.6366 24.1031C28.0958 24.1131 30.8929 26.9242 30.9029 30.4035ZM24.6687 35.0948C27.2912 35.0747 29.3158 33.006 29.2977 30.3654C29.2797 27.7629 27.1608 25.6722 24.5764 25.7063C22.002 25.7404 19.8671 27.9154 19.9112 30.4577C19.9553 33.0561 22.0702 35.1128 24.6707 35.0928L24.6687 35.0948Z" fill="#B81736"/>
<path d="M24.5362 28.2546C24.9476 28.367 25.2867 28.4593 25.7422 28.5817C25.4091 29.894 25.086 31.1581 24.7329 32.5486C24.3095 32.4483 23.9463 32.364 23.4848 32.2556C23.842 30.9012 24.1811 29.607 24.5362 28.2546Z" fill="#B81736"/>
<path d="M22.4635 28.7021C22.6561 28.9108 22.8969 29.1737 23.1738 29.4706C22.9049 29.7817 22.6722 30.0505 22.3792 30.3896C22.63 30.6966 22.8909 31.0157 23.1838 31.3748C22.917 31.6537 22.6682 31.9126 22.4053 32.1875C21.8355 31.5534 21.2917 30.9474 20.776 30.3736C21.2255 29.9281 21.8013 29.3563 22.4615 28.7021H22.4635Z" fill="#B81736"/>
<path d="M26.8859 30.3937C26.6049 30.0867 26.3602 29.8198 25.9789 29.4045C26.2959 29.1777 26.611 28.955 26.8658 28.7744C27.4156 29.3061 27.9995 29.87 28.6496 30.496C28.0998 30.9716 27.4818 31.5073 26.7976 32.0972C26.6451 31.9507 26.3662 31.6859 26.0612 31.3929C26.3521 31.0398 26.617 30.7227 26.8879 30.3937H26.8859Z" fill="#B81736"/>
</g>
<defs>
<clipPath id="clip0_237_1106">
<rect width="47.992" height="40" fill="white" transform="translate(0.67067 0.630859)"/>
</clipPath>
</defs>
</svg>
