<svg width="170" height="25" viewBox="0 0 170 25" fill="none" xmlns="http://www.w3.org/2000/svg">
<path d="M7.49617 7.23315C11.9676 7.23315 14.4992 9.46885 14.4992 13.9402V24.6585H12.2635V21.9625C11.2114 23.7379 9.17295 24.8228 6.31256 24.8228C2.40009 24.8228 0 22.7844 0 19.7925C0 17.1294 1.70965 14.8937 6.67422 14.8937H12.1648V13.8416C12.1648 10.8826 10.4881 9.27158 7.26602 9.27158C5.03032 9.27158 2.92614 10.0607 1.51239 11.31L0.460291 9.56748C2.20282 8.08798 4.7673 7.23315 7.49617 7.23315ZM6.67422 22.9817C9.30446 22.9817 11.2443 21.7323 12.1648 19.4637V16.6362H6.73998C3.38643 16.6362 2.30146 17.9514 2.30146 19.7268C2.30146 21.7323 3.91247 22.9817 6.67422 22.9817Z" fill="white"/>
<path d="M25.4753 24.8228C22.6149 24.8228 19.8531 23.9023 18.4394 22.6858L19.4915 20.8446C20.8724 21.9296 23.2067 22.7844 25.6397 22.7844C28.9274 22.7844 30.2754 21.6666 30.2754 19.9569C30.2754 15.4526 19.0641 19.0035 19.0641 12.1648C19.0641 9.33734 21.497 7.23315 25.9027 7.23315C28.1384 7.23315 30.5713 7.85783 32.018 8.84417L30.9988 10.7182C29.4864 9.66611 27.6781 9.2387 25.9027 9.2387C22.7793 9.2387 21.3984 10.4552 21.3984 12.0991C21.3984 16.7678 32.6098 13.2498 32.6098 19.8912C32.6098 22.883 29.9795 24.8228 25.4753 24.8228Z" fill="white"/>
<path d="M41.5611 24.8228C38.7007 24.8228 35.9389 23.9023 34.5252 22.6858L35.5773 20.8446C36.9581 21.9296 39.2925 22.7844 41.7254 22.7844C45.0132 22.7844 46.3612 21.6666 46.3612 19.9569C46.3612 15.4526 35.1499 19.0035 35.1499 12.1648C35.1499 9.33734 37.5828 7.23315 41.9885 7.23315C44.2242 7.23315 46.6571 7.85783 48.1038 8.84417L47.0845 10.7182C45.5722 9.66611 43.7639 9.2387 41.9885 9.2387C38.8651 9.2387 37.4842 10.4552 37.4842 12.0991C37.4842 16.7678 48.6956 13.2498 48.6956 19.8912C48.6956 22.883 46.0653 24.8228 41.5611 24.8228Z" fill="white"/>
<path d="M66.2609 7.36466H68.5952V24.6585H66.3595V21.5022C65.143 23.6064 62.9073 24.8228 60.1456 24.8228C55.7399 24.8228 52.8467 22.357 52.8467 17.3924V7.36466H55.181V17.1623C55.181 20.8446 57.0879 22.7187 60.3757 22.7187C63.9923 22.7187 66.2609 20.3843 66.2609 16.439V7.36466Z" fill="white"/>
<path d="M77.3687 10.7511C78.4537 8.44963 80.6565 7.23315 83.8457 7.23315V9.50173C83.6484 9.50173 83.4511 9.46885 83.2868 9.46885C79.6702 9.46885 77.4674 11.7703 77.4674 15.8472V24.6585H75.133V7.36466H77.3687V10.7511Z" fill="white"/>
<path d="M103.003 16.0116C103.003 16.2088 102.97 16.4719 102.97 16.7349H88.5036C88.7666 20.3514 91.5283 22.7515 95.3093 22.7515C97.4135 22.7515 99.2875 21.9953 100.603 20.483L101.918 21.9953C100.372 23.8365 97.9724 24.8228 95.2435 24.8228C89.8515 24.8228 86.1692 21.1405 86.1692 16.0116C86.1692 10.8826 89.7529 7.23315 94.6189 7.23315C99.4848 7.23315 103.003 10.8168 103.003 16.0116ZM94.6189 9.2387C91.2653 9.2387 88.7995 11.6059 88.5036 14.9923H100.767C100.471 11.6059 98.0053 9.2387 94.6189 9.2387Z" fill="white"/>
<path d="M112.817 24.9215C109.825 24.9215 106.801 24.0995 105.157 23.0146L106.866 19.3322C108.445 20.3514 110.845 21.0419 113.015 21.0419C115.382 21.0419 116.269 20.4172 116.269 19.4309C116.269 16.5376 105.584 19.4966 105.584 12.4279C105.584 9.07431 108.609 6.7071 113.771 6.7071C116.204 6.7071 118.9 7.26603 120.576 8.25237L118.867 11.9018C117.124 10.9155 115.382 10.5867 113.771 10.5867C111.469 10.5867 110.483 11.31 110.483 12.2306C110.483 15.2554 121.168 12.3292 121.168 19.2994C121.168 22.5871 118.111 24.9215 112.817 24.9215Z" fill="white"/>
<path d="M132.75 24.9215C127.127 24.9215 123.018 21.1405 123.018 15.8143C123.018 10.4881 127.127 6.7071 132.75 6.7071C138.372 6.7071 142.449 10.4881 142.449 15.8143C142.449 21.1405 138.372 24.9215 132.75 24.9215ZM132.75 20.7131C135.314 20.7131 137.254 18.8719 137.254 15.8143C137.254 12.7566 135.314 10.9155 132.75 10.9155C130.185 10.9155 128.212 12.7566 128.212 15.8143C128.212 18.8719 130.185 20.7131 132.75 20.7131Z" fill="white"/>
<path d="M151.499 6.60847V7.36466H156.036V11.31H151.63V24.6585H146.502V11.31H143.773V7.36466H146.502V6.57559C146.502 2.59736 148.934 0 153.34 0C154.787 0 156.299 0.295902 157.253 0.953462L155.905 4.66867C155.346 4.27413 154.622 4.04399 153.833 4.04399C152.321 4.04399 151.499 4.86594 151.499 6.60847Z" fill="white"/>
<path d="M168.619 20.1871L170 23.8036C168.948 24.5598 167.403 24.9215 165.824 24.9215C161.649 24.9215 159.216 22.7844 159.216 18.576V11.31H156.487V7.36466H159.216V3.05765H164.345V7.36466H168.751V11.31H164.345V18.5103C164.345 20.0227 165.167 20.8446 166.548 20.8446C167.304 20.8446 168.06 20.6145 168.619 20.1871Z" fill="white"/>
</svg>
