<svg width="21" height="26" viewBox="0 0 21 26" fill="none" xmlns="http://www.w3.org/2000/svg">
<path d="M12.2867 21.3997C12.4276 21.7237 12.5611 22.0313 12.6948 22.3387C12.8439 22.6814 12.9942 23.0236 13.1409 23.3673C13.1609 23.4141 13.1867 23.423 13.2322 23.4248C13.4249 23.4327 13.6218 23.4227 13.8088 23.4604C14.3252 23.5644 14.7336 24.0576 14.7513 24.5816C14.7619 24.8942 14.7613 25.2074 14.761 25.5203C14.7607 25.7723 14.6054 25.9214 14.3532 25.9214C11.7866 25.9214 9.22024 25.9214 6.65369 25.9214C6.38632 25.9214 6.24027 25.7744 6.23996 25.5046C6.23966 25.2245 6.23874 24.9445 6.24011 24.6643C6.24347 24.0263 6.73451 23.4841 7.36442 23.4283C7.50345 23.4159 7.64431 23.4268 7.78411 23.4214C7.80977 23.4205 7.84782 23.3985 7.85744 23.3764C8.14054 22.7313 8.4209 22.0851 8.70155 21.439C8.70537 21.4301 8.70751 21.4205 8.71408 21.3997C8.67634 21.3997 8.64456 21.3997 8.61294 21.3997C6.48945 21.3997 4.36596 21.4052 2.24247 21.3968C1.45504 21.3937 0.863326 21.0225 0.464112 20.3489C0.282915 20.043 0.203775 19.7058 0.203775 19.3495C0.204234 16.0828 0.198886 12.8162 0.208053 9.54947C0.210039 8.8421 0.541572 8.28689 1.12504 7.8889C1.4801 7.64675 1.8784 7.53965 2.30832 7.54774C2.48646 7.5511 2.66491 7.54515 2.8429 7.55003C2.90584 7.55172 2.92051 7.52712 2.92372 7.47196C2.9555 6.9435 3.33179 6.51801 3.85323 6.42939C3.96996 6.40953 4.09126 6.4135 4.21043 6.41152C4.37589 6.40877 4.54151 6.40877 4.70697 6.41213C4.75784 6.4132 4.78366 6.3993 4.80215 6.3498C4.84737 6.22834 4.89657 6.1081 4.9508 5.9903C4.97097 5.94646 4.96211 5.92323 4.93109 5.89253C4.76961 5.73348 4.61026 5.57245 4.44984 5.41234C4.02297 4.98608 4.01961 4.26099 4.4448 3.83427C4.90482 3.37242 5.36575 2.91163 5.82745 2.45161C6.26471 2.01589 6.98553 2.01818 7.42309 2.45528C7.57984 2.61188 7.73766 2.76726 7.89212 2.926C7.92742 2.96236 7.95476 2.97168 8.00289 2.94952C8.11839 2.89666 8.23618 2.84838 8.35505 2.80316C8.40057 2.78574 8.41539 2.76191 8.41478 2.71394C8.41234 2.50005 8.41387 2.28615 8.41371 2.07226C8.41326 1.41928 8.90949 0.921828 9.56262 0.921523C10.2017 0.921523 10.8408 0.921217 11.4799 0.921523C12.0943 0.921828 12.5976 1.4205 12.6032 2.03605C12.6054 2.26263 12.6026 2.48935 12.6057 2.71577C12.606 2.7419 12.6237 2.78208 12.6443 2.79124C12.7858 2.85419 12.93 2.91072 13.0804 2.97214C13.244 2.80744 13.4082 2.64076 13.5739 2.4756C13.9272 2.12314 14.4222 2.02887 14.8737 2.23879C14.9822 2.28921 15.087 2.36178 15.1724 2.44566C15.6411 2.90583 16.1034 3.37257 16.5679 3.83718C16.9772 4.24647 16.9986 4.93933 16.6087 5.36895C16.448 5.54602 16.2759 5.71286 16.105 5.88015C16.0565 5.92751 16.0416 5.96387 16.0744 6.0288C16.1259 6.13056 16.1684 6.2375 16.2067 6.34521C16.227 6.4022 16.253 6.42344 16.3155 6.42221C16.5395 6.41794 16.7636 6.42084 16.9876 6.42023C17.5394 6.41855 18.0327 6.86405 18.0856 7.41238C18.0897 7.45501 18.094 7.49763 18.0989 7.54851C18.1463 7.54851 18.1916 7.54774 18.237 7.54851C18.4938 7.55355 18.7529 7.53812 19.0069 7.56791C19.935 7.677 20.6815 8.45083 20.7739 9.3811C20.7797 9.43916 20.7822 9.49783 20.7823 9.55604C20.7828 12.2702 20.7819 14.9845 20.7834 17.6986C20.7837 18.2506 20.8039 18.8029 20.7953 19.3546C20.7828 20.1636 20.4094 20.7664 19.7054 21.1615C19.409 21.3279 19.0865 21.4 18.7464 21.3998C16.6305 21.3991 14.5147 21.3995 12.3988 21.3995C12.3664 21.3995 12.334 21.3995 12.2867 21.3995V21.3997ZM18.0939 8.28552C18.0939 8.32616 18.0939 8.35351 18.0939 8.38085C18.0939 8.75257 18.0939 9.12428 18.0939 9.49615C18.0939 10.0918 17.5886 10.5994 16.9954 10.5994C16.7688 10.5994 16.5421 10.6012 16.3155 10.598C16.2588 10.5972 16.2298 10.6124 16.2096 10.6683C16.1675 10.7855 16.1193 10.9007 16.0674 11.0139C16.0475 11.0571 16.0542 11.0809 16.0862 11.1123C16.246 11.2693 16.4052 11.427 16.5616 11.5872C16.8487 11.8813 16.9414 12.2337 16.8638 12.6332C16.822 12.8488 16.7201 13.0362 16.5661 13.1907C16.0917 13.6667 15.6205 14.1462 15.1353 14.6109C14.7478 14.982 14.0848 14.9904 13.6794 14.6384C13.4857 14.4702 13.3106 14.2805 13.1294 14.0982C13.0926 14.0612 13.0643 14.0488 13.0124 14.0734C12.9022 14.1257 12.7889 14.1717 12.6741 14.2134C12.6199 14.2331 12.601 14.2597 12.6019 14.3179C12.6054 14.5445 12.6074 14.7712 12.6014 14.9976C12.5988 15.0931 12.5864 15.1915 12.5588 15.2825C12.4094 15.7762 11.9776 16.092 11.4615 16.0923C11.0058 16.0926 10.55 16.0933 10.0943 16.092C9.87567 16.0914 9.65627 16.0956 9.43841 16.0813C8.86594 16.0435 8.4131 15.5514 8.41356 14.9784C8.41371 14.7518 8.41219 14.5251 8.41463 14.2985C8.41509 14.2505 8.40103 14.2265 8.35505 14.2093C8.23374 14.1636 8.11365 14.1142 7.99525 14.0612C7.95232 14.042 7.92803 14.0499 7.89686 14.0817C7.74362 14.2381 7.58794 14.3921 7.43302 14.5469C6.98629 14.9932 6.26654 14.9967 5.81936 14.5524C5.36255 14.0983 4.9068 13.6431 4.45289 13.1859C4.03718 12.7672 4.0138 12.0885 4.40538 11.6474C4.57069 11.4612 4.75295 11.2898 4.92987 11.1139C4.96226 11.0817 4.967 11.0559 4.94897 11.0152C4.89748 10.899 4.84691 10.7822 4.80276 10.6631C4.78443 10.6137 4.76044 10.5977 4.7088 10.5985C4.48987 10.6012 4.27093 10.6006 4.05185 10.5994C3.83062 10.5983 3.62345 10.5431 3.43828 10.4208C3.08796 10.1893 2.92066 9.85701 2.91669 9.4413C2.91333 9.08746 2.91608 8.73347 2.91608 8.37948C2.91608 8.34984 2.91608 8.3202 2.91608 8.29743C2.62839 8.29743 2.35049 8.28262 2.07533 8.30355C1.93049 8.31455 1.7797 8.36802 1.65045 8.43723C1.16537 8.69711 0.939869 9.12016 0.939411 9.66268C0.937425 12.2521 0.938494 14.8416 0.938494 17.4311V17.5153H20.0638V17.3791C20.0638 14.8992 20.0638 12.4191 20.0633 9.93921C20.0633 9.80705 20.0598 9.6749 20.0543 9.5429C20.0302 8.96692 19.6308 8.47344 19.073 8.33166C18.7543 8.25068 18.4295 8.30859 18.0942 8.28582L18.0939 8.28552ZM10.4958 15.3484C10.8114 15.3484 11.1272 15.349 11.4429 15.3482C11.6791 15.3476 11.8452 15.18 11.8453 14.9428C11.8456 14.6271 11.8452 14.3113 11.8453 13.9957C11.8455 13.7891 11.9356 13.6732 12.1263 13.5992C12.3987 13.4936 12.6696 13.3835 12.9358 13.2637C13.1216 13.1801 13.2688 13.1953 13.4144 13.3398C13.6493 13.5728 13.8802 13.81 14.1214 14.0363C14.2768 14.1821 14.4999 14.1669 14.6507 14.0164C15.1047 13.5632 15.5585 13.1095 16.0116 12.6555C16.1636 12.5032 16.1785 12.2847 16.0315 12.1276C15.8124 11.8936 15.5823 11.6699 15.3565 11.4423C15.1846 11.269 15.169 11.1344 15.269 10.9127C15.3828 10.6605 15.4903 10.4047 15.5857 10.145C15.6573 9.9499 15.776 9.84968 15.987 9.84953C16.3002 9.84922 16.6133 9.84953 16.9265 9.84953C17.1769 9.84953 17.3439 9.68437 17.3442 9.43473C17.3446 8.81093 17.3446 8.18713 17.3442 7.56348C17.344 7.31475 17.1752 7.14608 16.9275 7.14578C16.6093 7.14547 16.291 7.14608 15.9728 7.14547C15.7896 7.14517 15.6677 7.05564 15.5991 6.88636C15.483 6.59913 15.3635 6.31313 15.2421 6.02804C15.1733 5.8667 15.1987 5.71377 15.3244 5.58758C15.4017 5.50996 15.4796 5.43312 15.5565 5.3552C15.7175 5.19233 15.8848 5.03497 16.037 4.86416C16.1786 4.70497 16.1615 4.49199 16.0116 4.34181C15.562 3.89126 15.112 3.44117 14.6615 2.99169C14.4962 2.82684 14.2814 2.81279 14.109 2.9729C13.8799 3.18587 13.6562 3.40573 13.4422 3.63398C13.2804 3.80631 13.0911 3.80952 12.9038 3.72244C12.646 3.60266 12.3805 3.49892 12.1148 3.39763C11.9457 3.33315 11.8459 3.20818 11.8456 3.02393C11.845 2.71333 11.8455 2.40272 11.8455 2.09212C11.8455 1.81406 11.6922 1.64998 11.4163 1.64845C10.8001 1.64494 10.184 1.64478 9.56797 1.64845C9.29724 1.64998 9.14156 1.81651 9.14156 2.08784C9.14156 2.40104 9.14186 2.71409 9.14156 3.02729C9.14141 3.20421 9.03889 3.33575 8.87679 3.39839C8.59965 3.50549 8.32388 3.61671 8.05208 3.73665C7.85607 3.82312 7.71429 3.80677 7.56059 3.65338C7.34807 3.44117 7.13556 3.22865 6.92335 3.01614C6.71816 2.81065 6.50534 2.81126 6.29954 3.01736C5.86947 3.44789 5.43924 3.87827 5.00871 4.3082C4.80597 4.51078 4.80627 4.7314 5.01069 4.93597C5.22489 5.15017 5.43924 5.36436 5.65344 5.57856C5.7917 5.71668 5.81172 5.87312 5.73319 6.05294C5.6131 6.32749 5.49852 6.60463 5.38943 6.88376C5.32175 7.05701 5.20839 7.14578 5.02123 7.14593C4.69795 7.14624 4.37452 7.14502 4.05123 7.14639C3.82252 7.14746 3.64499 7.3117 3.64377 7.53491C3.64026 8.17399 3.64041 8.81307 3.64362 9.45199C3.64484 9.68957 3.81611 9.84983 4.05368 9.84983C4.36688 9.84983 4.67992 9.84968 4.99312 9.84983C5.20243 9.84999 5.32466 9.947 5.39967 10.1421C5.50264 10.4099 5.61265 10.6753 5.72952 10.9372C5.81645 11.1321 5.7998 11.2792 5.64931 11.4303C5.42992 11.6502 5.20992 11.8696 4.99068 12.0894C4.81437 12.2662 4.81422 12.4948 4.99007 12.6708C5.42931 13.1102 5.87283 13.5453 6.30596 13.9905C6.4922 14.1819 6.74383 14.1752 6.92289 13.9909C7.13754 13.77 7.3577 13.5544 7.57572 13.3367C7.7123 13.2003 7.86493 13.1824 8.04276 13.2603C8.31716 13.3807 8.59461 13.495 8.87404 13.6035C9.04882 13.6713 9.14156 13.7888 9.14171 13.9764C9.14186 14.2947 9.14141 14.6129 9.14171 14.9311C9.14202 15.1825 9.30732 15.3485 9.55666 15.3487C9.86986 15.3487 10.1829 15.3487 10.4961 15.3487L10.4958 15.3484ZM0.949036 18.263C0.944453 18.2724 0.940328 18.277 0.940328 18.2815C0.943842 18.6808 0.926272 19.0817 0.956064 19.4793C1.00556 20.1382 1.58827 20.6502 2.25149 20.6502C7.74866 20.6502 13.246 20.6502 18.7432 20.6505C18.9775 20.6505 19.1985 20.5961 19.3978 20.4749C19.8183 20.2193 20.0473 19.847 20.0537 19.3497C20.058 19.0188 20.0545 18.6877 20.0545 18.3566C20.0545 18.3268 20.0545 18.297 20.0545 18.2631H0.949036V18.263ZM14.018 25.1772C14.018 25.0117 14.0181 24.8541 14.018 24.6965C14.0175 24.382 13.7945 24.1587 13.4787 24.1589C13.2752 24.1591 13.0717 24.1639 12.8683 24.1639C11.2904 24.1644 9.71234 24.1644 8.13443 24.1639C7.92329 24.1639 7.71215 24.158 7.50116 24.1592C7.25457 24.1607 7.05229 24.3146 6.9953 24.5451C6.97911 24.6107 6.97682 24.6806 6.97544 24.7488C6.97254 24.8901 6.97453 25.0317 6.97453 25.1769H14.0181L14.018 25.1772ZM8.65327 23.4181H12.3425C12.3382 23.4019 12.3368 23.3923 12.333 23.3835C12.0543 22.74 11.775 22.0967 11.497 21.4527C11.4791 21.4113 11.4537 21.3988 11.4097 21.3989C10.8041 21.4003 10.1986 21.4006 9.59302 21.3985C9.54001 21.3983 9.5174 21.4171 9.49876 21.4634C9.45262 21.5789 9.40113 21.6924 9.35163 21.8067C9.12032 22.3405 8.88886 22.8742 8.65312 23.4181H8.65327Z" fill="#1DFBED"/>
<path d="M15.0256 8.49261C15.0454 10.973 12.9869 13.0707 10.4186 13.0248C7.98853 12.9814 6.04822 11.0168 5.97473 8.64127C5.89391 6.02888 8.04995 3.87896 10.6674 3.97216C13.0472 4.0568 15.032 6.02751 15.0256 8.49261ZM10.5048 4.70886C8.46535 4.69557 6.71495 6.35247 6.71373 8.49124C6.71251 10.5975 8.41051 12.2567 10.4552 12.2799C12.5684 12.3039 14.2906 10.6028 14.2883 8.49185C14.286 6.34957 12.5339 4.69939 10.5048 4.70886Z" fill="#1DFBED"/>
<path d="M12.1449 19.0901C13.2571 19.0901 14.3694 19.0901 15.4816 19.0901C15.6698 19.0901 15.8128 19.204 15.85 19.3813C15.8868 19.557 15.8011 19.732 15.6353 19.7984C15.5759 19.8223 15.5068 19.8321 15.4422 19.8322C13.2406 19.8339 11.0391 19.8331 8.83751 19.8342C8.4687 19.8343 8.34861 19.4973 8.47313 19.2762C8.54601 19.1468 8.66105 19.0898 8.80802 19.0898C9.92026 19.0903 11.0325 19.09 12.1447 19.09L12.1449 19.0901Z" fill="#1DFBED"/>
<path d="M7.12605 19.4592C7.12605 20.0129 6.68711 20.4553 6.13436 20.4521C5.5486 20.4486 5.12341 19.9632 5.13838 19.4199C5.15244 18.9158 5.59122 18.4761 6.08913 18.4586C6.67963 18.4379 7.14943 18.9262 7.12605 19.4594V19.4592ZM6.13787 19.7032C6.27125 19.7018 6.38568 19.586 6.38476 19.4531C6.384 19.3208 6.26789 19.2051 6.13497 19.2044C5.9996 19.2035 5.88258 19.3229 5.88502 19.4597C5.88731 19.5935 6.00266 19.7047 6.13772 19.7033L6.13787 19.7032Z" fill="#1DFBED"/>
<path d="M12.9044 8.47622C12.8802 8.46155 12.852 8.45116 12.8326 8.43176C12.4233 8.02414 12.0147 7.61561 11.6065 7.20677C11.4539 7.05399 11.4258 6.88563 11.5229 6.71635C11.6346 6.52186 11.9244 6.47495 12.0841 6.63339C12.6242 7.16934 13.1618 7.70789 13.6984 8.24751C13.8298 8.37966 13.8258 8.61281 13.6868 8.7529C13.1578 9.2858 12.6272 9.81686 12.094 10.3453C11.951 10.4871 11.7041 10.4764 11.5705 10.3346C11.4291 10.1846 11.4343 9.95483 11.5831 9.80586C11.9915 9.39718 12.3999 8.98864 12.809 8.58072C12.8359 8.55399 12.8692 8.53382 12.8995 8.5106C12.901 8.49914 12.9025 8.48768 12.9041 8.47622H12.9044Z" fill="#1DFBED"/>
<path d="M8.08953 8.47993C8.34284 8.73217 8.57552 8.96363 8.8079 9.1954C9.00789 9.39493 9.20773 9.59461 9.40741 9.7946C9.56982 9.95731 9.57593 10.1853 9.42238 10.3383C9.2719 10.4884 9.04349 10.4832 8.88414 10.324C8.36545 9.8059 7.84707 9.28752 7.32899 8.76883C7.16582 8.60536 7.17163 8.37619 7.33526 8.21333C7.85303 7.698 8.36942 7.1813 8.88506 6.66368C9.03891 6.50907 9.2777 6.49898 9.42452 6.64611C9.57058 6.79263 9.56722 7.02775 9.41612 7.17885C9.00224 7.59289 8.58836 8.00707 8.17371 8.42034C8.15232 8.44158 8.12406 8.45594 8.08953 8.48023V8.47993Z" fill="#1DFBED"/>
<path d="M11.3619 6.47516C11.3422 6.56224 11.3173 6.67882 11.2897 6.79462C10.9861 8.0656 10.6825 9.33658 10.3779 10.6074C10.3076 10.9007 9.99363 11.0124 9.76721 10.8239C9.65324 10.7289 9.61947 10.6005 9.65263 10.4581C9.74781 10.0496 9.84574 9.64183 9.94291 9.23376C10.1608 8.31876 10.3786 7.40376 10.5973 6.48891C10.6266 6.36592 10.6451 6.23713 10.7588 6.15371C10.8862 6.06021 11.0228 6.05058 11.1616 6.1175C11.2953 6.18198 11.3573 6.29656 11.3619 6.47516Z" fill="#1DFBED"/>
</svg>
