<svg width="26" height="26" viewBox="0 0 26 26" fill="none" xmlns="http://www.w3.org/2000/svg">
<g clip-path="url(#clip0_185_525)">
<path d="M25.5549 5.07226C23.7317 7.97425 21.9186 10.8813 20.0739 13.7694C19.8594 14.105 19.4897 14.3536 19.1629 14.6047C18.4841 15.127 17.7952 15.6393 17.0874 16.1213C16.9095 16.2424 16.6142 16.3206 16.43 16.255C16.3139 16.2134 16.2281 15.8576 16.261 15.6645C16.454 14.5113 16.6786 13.3631 16.9095 12.2162C16.9448 12.0396 17.0647 11.8768 17.1631 11.7191C18.7579 9.16659 20.4209 6.65447 21.9261 4.05025C22.7791 2.57529 24.4597 2.1362 25.5549 3.94174V5.07226ZM21.3949 6.62167C20.2152 8.50165 19.0746 10.316 17.9113 12.1708C18.4185 12.4913 18.8904 12.7878 19.4153 13.1196C20.5824 11.2611 21.728 9.43407 22.8977 7.56923C22.3791 7.24244 21.9249 6.95729 21.3937 6.62293L21.3949 6.62167ZM22.769 4.52088C23.2699 4.83505 23.743 5.13156 24.2111 5.42681C24.7764 4.65967 24.7701 4.11082 24.2212 3.77646C23.7052 3.46228 23.2017 3.70201 22.769 4.52214V4.52088ZM23.3746 6.81093C23.5083 6.59012 23.6131 6.41853 23.7456 6.19899C23.2459 5.88229 22.7791 5.58578 22.2618 5.25773C22.1217 5.48358 22.0081 5.66527 21.8795 5.87094C22.393 6.19394 22.8497 6.48161 23.3733 6.81093H23.3746ZM17.5101 12.9568V14.4154C17.8558 14.2375 18.2028 14.0609 18.546 13.8766C18.5914 13.8527 18.6116 13.7833 18.6709 13.6912C18.3315 13.4767 18.0085 13.2723 17.5101 12.9568Z" fill="#1DFBED"/>
<path d="M14.3885 4.17556C15.5266 4.17556 16.589 4.19322 17.6501 4.16799C18.1876 4.15537 18.4135 4.3522 18.3958 4.89853C18.3706 5.68838 18.3895 6.47949 18.3895 7.33494C18.0715 7.30592 17.8141 7.28321 17.5088 7.25545V5.1105H14.4188C14.41 5.2985 14.3936 5.49912 14.3911 5.69847C14.381 6.47949 14.3204 6.54383 13.5167 6.5451C10.8393 6.54762 8.16188 6.5451 5.48322 6.5451C4.8002 6.5451 4.45364 6.19307 4.44355 5.48902C4.44229 5.3843 4.43346 5.28084 4.42462 5.11934H1.36618V25.0156H17.4697C17.4899 24.8112 17.5075 24.6308 17.5303 24.3885C17.7864 24.3469 18.0438 24.3053 18.305 24.2624C18.339 24.3545 18.3769 24.4087 18.3794 24.4668C18.4299 25.4358 17.9689 25.9203 16.9965 25.9203C11.7881 25.9203 6.5784 25.9203 1.36997 25.9203C0.462778 25.9203 0.445114 25.9026 0.445114 25.0106C0.445114 18.3587 0.445114 11.7056 0.445114 5.05373C0.445114 4.18565 0.488013 4.14402 1.37123 4.14149C2.37052 4.13897 3.36981 4.14149 4.44481 4.14149C4.44481 3.74152 4.44607 3.41347 4.44481 3.08668C4.44229 2.7233 4.61893 2.54666 4.98357 2.55297C5.15138 2.55675 5.31919 2.53783 5.48574 2.55549C6.11282 2.61858 6.53803 2.49619 6.93674 1.86154C7.73289 0.594757 11.0008 0.631347 11.9054 1.83126C12.0669 2.04449 12.1818 2.29305 12.3357 2.55297C12.7811 2.55297 13.2416 2.57189 13.6996 2.54792C14.2207 2.52016 14.4289 2.74854 14.3923 3.25575C14.3721 3.52577 14.3885 3.79704 14.3885 4.1743V4.17556ZM5.35578 5.5622H13.4637V3.44123C13.0334 3.44123 12.6385 3.42104 12.2474 3.44628C11.7881 3.4753 11.5168 3.35795 11.4134 2.84317C11.2872 2.21356 10.8317 1.90822 10.1794 1.91453C9.67848 1.91958 9.17631 1.90822 8.67541 1.91705C7.9171 1.92967 7.54742 2.18707 7.3796 2.92013C7.28245 3.34534 7.05408 3.45385 6.67177 3.44249C6.24026 3.42987 5.80875 3.43997 5.35578 3.43997V5.56094V5.5622Z" fill="#1DFBED"/>
<path d="M22.7324 11.2865C23.2219 11.5918 23.2648 11.9072 22.957 12.3488C22.7854 12.5949 22.6428 12.9242 22.6453 13.2131C22.6504 13.7178 23.1008 13.8061 23.4957 13.8364C23.9815 13.8743 24.225 14.1026 24.2263 14.5834C24.2301 15.4174 24.2263 16.2501 24.2288 17.0841C24.2301 17.5724 23.9651 17.7718 23.5058 17.8513C22.6365 18.0039 22.4043 18.5755 22.9343 19.2922C23.2068 19.6606 23.2333 19.9609 22.9103 20.2839C22.3047 20.8883 21.699 21.4914 21.0921 22.0957C20.7893 22.3973 20.4979 22.3758 20.1471 22.1361C19.4607 21.6667 18.8046 21.9368 18.6658 22.7531C18.5889 23.2035 18.3933 23.4256 17.9327 23.4218C17.0786 23.4142 16.2231 23.4142 15.3689 23.4218C14.9008 23.4269 14.7128 23.1796 14.6333 22.7455C14.4832 21.9241 13.8523 21.6617 13.1546 22.1399C12.8013 22.3821 12.506 22.3948 12.207 22.0983C11.5988 21.4964 10.9983 20.8883 10.3926 20.2851C10.0671 19.9609 10.1037 19.6606 10.3611 19.2909C10.8721 18.5578 10.6374 18.0027 9.75923 17.8513C9.29239 17.7705 9.04635 17.5547 9.04257 17.0791C9.03752 16.2867 9.0249 15.4931 9.02869 14.7007C9.03121 14.1619 9.27347 13.8667 9.8526 13.8137C10.0986 13.791 10.3737 13.6131 10.5503 13.4251C10.8847 13.068 10.6462 12.7274 10.3926 12.4397C10.0393 12.0384 10.0343 11.67 10.4204 11.2915C10.9869 10.7363 11.5471 10.1761 12.1073 9.61466C12.4657 9.25632 12.8038 9.26137 13.2113 9.57176C13.4334 9.74209 13.7476 9.87584 14.0214 9.87584C14.5223 9.87584 14.5765 9.42413 14.5917 9.05823C14.6182 8.40465 14.9639 8.19016 15.5619 8.19899C16.4124 8.21161 17.264 8.20151 18.1775 8.20151C18.0375 8.79705 17.857 9.14781 17.2199 9.08094C16.6647 9.0229 16.0982 9.06833 15.5531 9.06833C15.4951 9.20585 15.4307 9.28408 15.4345 9.35852C15.5026 10.4272 14.6724 10.6442 13.9305 10.8663C13.7034 10.9344 13.3438 10.73 13.1104 10.561C12.7823 10.3238 12.5426 10.2922 12.2575 10.6051C11.8663 11.0341 11.45 11.4391 11.0235 11.8769C11.4853 12.4548 11.7679 12.9154 11.4184 13.7052C11.079 14.4736 10.5579 14.625 9.86901 14.7196V17.0046C11.1812 16.8267 11.1875 17.9295 11.537 18.6689C11.6102 18.8241 11.4613 19.1534 11.3213 19.3275C11.0525 19.6644 11.1232 19.8927 11.3869 20.1867C11.7641 20.6069 12.0922 21.0699 12.506 21.5973C13.5129 20.352 14.2826 21.2516 15.0787 21.475C15.215 21.5128 15.3575 21.798 15.3651 21.9746C15.3866 22.4743 15.6553 22.6118 16.0919 22.6055C16.6294 22.5979 17.1656 22.6042 17.6438 22.6042C17.794 22.1525 17.8053 21.6932 18.0324 21.5242C18.4564 21.21 18.9964 21.0422 19.5074 20.8655C19.6462 20.8176 19.8947 20.9097 20.0171 21.022C20.4373 21.4056 20.7515 21.2428 21.0707 20.8958C21.4214 20.5135 21.7848 20.1413 22.1873 19.7186C21.1767 18.9263 21.8946 18.1516 22.1659 17.3996C22.2302 17.2204 22.5898 17.0702 22.827 17.0488C23.2976 17.0046 23.4301 16.7674 23.4074 16.3498C23.3961 16.1416 23.3986 15.9309 23.4175 15.7227C23.4781 15.0527 23.391 14.5644 22.5267 14.5077C21.9526 14.4698 21.4883 13.1854 21.8037 12.6945C22.1053 12.2239 22.4182 11.7621 22.7324 11.2865Z" fill="#1DFBED"/>
<path d="M19.8544 15.2242C20.1458 17.2644 18.9775 18.9526 17.1505 19.2441C15.3222 19.5356 13.629 18.3243 13.2908 16.4822C12.9817 14.8003 14.1311 13.0414 15.7828 12.7285C15.7966 13.2307 15.7045 13.6029 15.2099 13.9007C14.2094 14.5025 13.8422 15.7314 14.2485 16.809C14.6649 17.9105 15.7411 18.5401 16.9461 18.3874C18.0261 18.2499 18.9472 17.3288 19.0153 16.1983C19.0506 15.628 19.4494 15.5119 19.8544 15.2267V15.2242Z" fill="#1DFBED"/>
<path d="M4.39939 12.6416C5.37723 11.6575 6.25666 10.7654 7.14366 9.88223C7.35563 9.67026 7.58527 9.32707 7.91963 9.6526C8.24642 9.97182 8.00669 10.2507 7.75182 10.5043C6.80173 11.4468 5.84534 12.3843 4.91796 13.3482C4.53313 13.7482 4.23663 13.7267 3.87956 13.3293C3.51618 12.9255 3.08214 12.5823 2.74652 12.1584C2.6052 11.9805 2.63927 11.6638 2.59385 11.4089C2.84872 11.4443 3.17046 11.3951 3.34332 11.5326C3.71427 11.8278 4.00951 12.2202 4.39813 12.6404L4.39939 12.6416Z" fill="#1DFBED"/>
<path d="M5.16779 17.7529C4.47888 17.7529 3.78619 17.7895 3.10107 17.7315C2.88531 17.7126 2.691 17.44 2.4866 17.2836C2.6847 17.1448 2.879 16.8899 3.07962 16.8849C4.45743 16.8495 5.83777 16.847 7.21558 16.8849C7.43134 16.8912 7.63953 17.1524 7.8515 17.2962C7.64583 17.4489 7.45026 17.7138 7.23325 17.7315C6.54813 17.7883 5.85543 17.7529 5.16653 17.7529H5.16779Z" fill="#1DFBED"/>
<path d="M5.15391 14.8335C5.82389 14.8335 6.49513 14.8019 7.16133 14.8537C7.36194 14.8688 7.54363 15.1186 7.73415 15.2599C7.54994 15.4139 7.36951 15.6978 7.18152 15.7028C5.80118 15.7407 4.41958 15.7407 3.03924 15.7028C2.85124 15.6978 2.67082 15.4076 2.4866 15.2486C2.6847 15.1098 2.87522 14.8675 3.0834 14.8524C3.76979 14.8019 4.46248 14.8335 5.15391 14.8335Z" fill="#1DFBED"/>
</g>
<defs>
<clipPath id="clip0_185_525">
<rect width="25.1098" height="25" fill="white" transform="translate(0.445114 0.921387)"/>
</clipPath>
</defs>
</svg>
