<svg width="25" height="26" viewBox="0 0 25 26" fill="none" xmlns="http://www.w3.org/2000/svg">
<g clip-path="url(#clip0_185_547)">
<path d="M8.34517 12.7804C6.69691 11.2075 5.81072 9.36322 5.98703 7.14428C6.13202 5.31622 6.98921 3.79323 8.37765 2.59618C11.1186 0.232244 14.9347 0.389995 17.4738 2.95228C20.0106 5.51225 20.3992 9.64393 17.1375 12.7885C17.3428 12.8848 17.5295 12.9706 17.7151 13.0588C21.3422 14.7998 23.7154 17.5964 24.677 21.51C25.2094 23.6745 23.4533 25.8969 21.2424 25.9062C15.5634 25.9305 9.8844 25.9236 4.20422 25.9085C2.39589 25.9038 0.79518 24.2672 0.731384 22.4588C0.675707 20.8779 1.34731 19.5289 2.0885 18.2205C3.46534 15.7881 5.5103 14.0749 8.04011 12.9219C8.10739 12.8917 8.17466 12.8593 8.34517 12.7804ZM12.8063 24.3878C15.5321 24.3878 18.2568 24.3878 20.9826 24.3878C22.4523 24.3878 23.5217 23.1316 23.1494 21.72C22.1066 17.7681 19.6104 15.1722 15.698 13.9647C14.9591 13.7362 14.545 14.163 14.7167 14.917C15.1145 16.6638 15.5205 18.4095 15.8894 20.1633C15.9334 20.3721 15.8372 20.7236 15.6806 20.8419C14.7874 21.5158 13.8664 22.1538 12.9292 22.7651C12.7773 22.8648 12.4386 22.8486 12.282 22.743C11.3877 22.1364 10.5293 21.4775 9.6443 20.8558C9.36011 20.6563 9.32416 20.4661 9.40419 20.1285C9.83569 18.3295 10.2277 16.5212 10.6349 14.7163C10.7671 14.1294 10.4516 13.7872 9.87396 13.9438C5.98123 14.9958 3.19856 18.101 2.34021 21.7664C2.00731 23.1861 3.04429 24.3809 4.51392 24.3867C7.27804 24.3959 10.0422 24.389 12.8063 24.3901V24.3878ZM17.9413 7.67784C17.9413 4.67942 15.7281 2.49759 12.6845 2.49411C9.74753 2.49063 7.53554 4.7177 7.5483 7.66624C7.5599 10.6403 9.78697 12.8767 12.739 12.8836C15.6852 12.8894 17.9413 10.6333 17.9413 7.679V7.67784ZM13.0058 14.4484H12.3179C11.9131 16.2161 11.506 17.9722 11.1197 19.733C11.0954 19.8444 11.1928 20.023 11.2879 20.1135C12.3783 21.1504 12.7645 21.1597 13.9163 20.2016C13.9453 20.1773 13.9871 20.1564 13.9998 20.1239C14.0671 19.9604 14.2063 19.7771 14.175 19.6321C13.8015 17.9084 13.4025 16.1894 13.0058 14.4484Z" fill="#1DFBED"/>
</g>
<defs>
<clipPath id="clip0_185_547">
<rect width="24.0442" height="25" fill="white" transform="translate(0.727905 0.921387)"/>
</clipPath>
</defs>
</svg>
