<svg width="22" height="26" viewBox="0 0 22 26" fill="none" xmlns="http://www.w3.org/2000/svg">
<g clip-path="url(#clip0_185_558)">
<path d="M21.8379 6.66376C21.8136 7.20106 21.531 7.56258 21.0474 7.78902C19.9092 8.32136 18.7725 8.85667 17.6349 9.3905C15.6212 10.335 13.6066 11.277 11.5954 12.2265C11.1813 12.4221 10.7899 12.4067 10.3808 12.2136C7.25378 10.7407 4.1258 9.27132 0.994837 7.8069C0.503219 7.57648 0.186399 7.22887 0.174481 6.67121C0.162563 6.10212 0.464486 5.73118 0.969015 5.4953C4.12182 4.01896 7.27314 2.53963 10.4235 1.05882C10.8168 0.874093 11.1981 0.87608 11.5924 1.0618C14.7423 2.5441 17.8936 4.02343 21.0459 5.50027C21.542 5.73267 21.822 6.09915 21.8374 6.66426L21.8379 6.66376ZM17.758 6.65035C17.6334 6.58679 17.5688 6.55203 17.5028 6.52074C15.4146 5.54049 13.3255 4.56272 11.2408 3.576C11.0646 3.49258 10.928 3.49953 10.7587 3.57948C8.68791 4.55676 6.61418 5.52758 4.54144 6.50138C4.45702 6.5411 4.37558 6.58729 4.26136 6.64737C4.37806 6.70597 4.45056 6.7452 4.52455 6.77996C6.58239 7.74681 8.64123 8.71068 10.6956 9.68448C10.9061 9.78429 11.0745 9.79869 11.294 9.69391C12.7703 8.98678 14.2541 8.29603 15.7359 7.59982C16.3934 7.29095 17.0509 6.98257 17.7575 6.65085L17.758 6.65035Z" fill="#1DFBED"/>
<path d="M21.835 15.8001C21.8136 16.1819 21.5911 16.5578 21.1412 16.7744C20.2469 17.2044 19.3476 17.6235 18.4492 18.0456C16.2409 19.0825 14.0262 20.1059 11.8273 21.1627C11.2637 21.4333 10.7696 21.4452 10.2015 21.1741C7.11771 19.7047 4.02052 18.2641 0.931269 16.8061C0.0508269 16.3905 -0.104604 15.3089 0.62736 14.7339C1.0281 14.4191 1.47652 14.3868 1.93586 14.6018C3.59892 15.3804 5.25949 16.1636 6.92156 16.9437C8.21665 17.5515 9.51422 18.1554 10.8073 18.7681C10.9488 18.8352 11.0581 18.8342 11.2001 18.7676C14.118 17.3931 17.0385 16.024 19.9589 14.6544C20.5597 14.3724 21.0494 14.421 21.4546 14.8009C21.7108 15.0418 21.8305 15.3194 21.8354 15.8006L21.835 15.8001Z" fill="#1DFBED"/>
<path d="M21.832 20.322C21.8181 20.7461 21.5425 21.1125 21.0563 21.3395C20.1719 21.7516 19.2885 22.1663 18.4046 22.5809C16.1362 23.6456 13.8673 24.7088 11.6009 25.7775C11.1986 25.9671 10.8108 25.9701 10.4076 25.7804C7.2791 24.3086 4.15013 22.8382 1.01768 21.3747C0.547413 21.1548 0.219172 20.8359 0.174479 20.3026C0.0945292 19.3477 1.0435 18.7106 1.93338 19.1188C2.68521 19.4639 3.43157 19.8199 4.17992 20.172C6.39568 21.2134 8.61044 22.2567 10.8297 23.2906C10.925 23.3348 11.0765 23.3358 11.1713 23.2916C13.5102 22.2016 15.8447 21.1026 18.1801 20.0057C18.8316 19.6998 19.4772 19.3815 20.1371 19.0949C20.955 18.7394 21.8369 19.3243 21.831 20.322H21.832Z" fill="#1DFBED"/>
<path d="M21.8374 11.1032C21.823 11.6857 21.5623 12.0621 21.0742 12.2911C19.135 13.2008 17.1969 14.1115 15.2582 15.0223C14.053 15.5884 12.8458 16.1495 11.6441 16.7231C11.2279 16.9217 10.8302 16.9431 10.4061 16.7434C7.27115 15.2661 4.13424 13.7937 0.995333 12.3243C0.552877 12.1173 0.243009 11.8134 0.179943 11.3133C0.121346 10.847 0.289687 10.4617 0.667091 10.187C1.06187 9.90002 1.49291 9.87717 1.93437 10.0838C2.71351 10.4482 3.49215 10.8127 4.2708 11.1787C6.45676 12.2047 8.64123 13.2336 10.8312 14.2506C10.9359 14.2993 11.1073 14.2819 11.2175 14.2302C14.1483 12.8636 17.0752 11.4886 20.0026 10.114C20.7723 9.75253 21.5539 10.0604 21.7863 10.8242C21.8171 10.9255 21.825 11.0342 21.8369 11.1032H21.8374Z" fill="#1DFBED"/>
</g>
<defs>
<clipPath id="clip0_185_558">
<rect width="21.6759" height="25" fill="white" transform="translate(0.162064 0.921387)"/>
</clipPath>
</defs>
</svg>
