<svg width="26" height="26" viewBox="0 0 26 26" fill="none" xmlns="http://www.w3.org/2000/svg">
<g clip-path="url(#clip0_185_573)">
<path d="M22.4489 21.0742C22.5137 20.6984 22.5766 20.3349 22.6466 19.931H24.439V6.84588H2.06104V19.921H3.85244C3.92007 20.3287 3.98104 20.6993 4.04391 21.078C3.2942 21.078 2.52449 21.0956 1.7562 21.0718C1.23941 21.0556 0.884559 20.6236 0.88313 20.0673C0.879796 18.8212 0.881225 17.5747 0.881225 16.3287C0.881225 11.5742 0.881225 6.81968 0.881701 2.06517C0.881701 1.27022 1.23084 0.92251 2.03008 0.92251C9.15804 0.92251 16.286 0.92251 23.4135 0.92251C23.8021 0.92251 24.1913 0.921081 24.58 0.92251C25.2249 0.924892 25.6178 1.31451 25.6183 1.96229C25.6197 6.25669 25.6193 10.5506 25.6193 14.845C25.6193 16.5516 25.6193 18.2582 25.6193 19.9644C25.6193 20.7069 25.2482 21.0818 24.5123 21.0827C23.8379 21.0837 23.1629 21.0827 22.4885 21.0813C22.4732 21.0813 22.4575 21.0756 22.4494 21.0742H22.4489ZM22.5371 2.97873C22.0679 2.97349 21.6811 3.3474 21.6735 3.81275C21.6659 4.28811 22.055 4.6863 22.5261 4.68582C22.9857 4.68582 23.3782 4.29525 23.3816 3.83561C23.3849 3.37359 23.0005 2.98397 22.5371 2.97873ZM19.6683 2.97873C19.1972 2.97349 18.8157 3.34406 18.809 3.8137C18.8019 4.29477 19.1839 4.6863 19.6592 4.68487C20.1222 4.68392 20.5132 4.2943 20.5123 3.83514C20.5113 3.36692 20.1341 2.98397 19.6687 2.97873H19.6683ZM17.6397 3.83847C17.643 3.36788 17.2715 2.98493 16.8042 2.97873C16.3331 2.97207 15.9502 3.34025 15.9407 3.80942C15.9311 4.28953 16.3136 4.68535 16.7871 4.68487C17.2539 4.68487 17.6363 4.30478 17.6397 3.83847Z" fill="#1DFBED"/>
<path d="M4.01818 11.5843C4.01818 10.6407 4.0177 9.69668 4.01818 8.75311C4.01818 8.33777 4.17726 8.18107 4.59546 8.18059C6.01486 8.17964 7.43474 8.17916 8.85414 8.18059C9.35283 8.18059 9.48096 8.31443 9.48096 8.82122C9.48096 10.6769 9.48096 12.5326 9.48096 14.3883C9.48096 14.8365 9.3314 14.9866 8.88176 14.9866C7.46998 14.987 6.05868 14.9866 4.6469 14.9866C4.1544 14.9866 4.01818 14.8465 4.0177 14.3445C4.0177 13.4247 4.0177 12.5045 4.0177 11.5848L4.01818 11.5843Z" fill="#1DFBED"/>
<path d="M18.7251 20.1602C18.0312 19.8725 17.3743 19.5996 16.717 19.3281C16.2012 19.1152 16.0202 18.7265 16.2083 18.2335C16.395 17.7439 16.8409 17.5467 17.3491 17.7444C17.6663 17.8677 17.975 18.0135 18.2865 18.1507C19.1205 18.5174 19.9526 18.8885 20.789 19.25C21.1915 19.4238 21.4411 19.701 21.4282 20.1554C21.4158 20.6008 21.2039 20.9099 20.7823 21.0904C19.683 21.5624 18.5903 22.0497 17.4948 22.5294C17.4082 22.5675 17.32 22.6056 17.2286 22.6303C16.718 22.7675 16.3665 22.5965 16.2007 22.1364C16.0426 21.6963 16.2445 21.2238 16.6861 21.0328C17.2824 20.7751 17.883 20.5279 18.4818 20.275C18.5527 20.245 18.6208 20.2093 18.7247 20.1597L18.7251 20.1602Z" fill="#1DFBED"/>
<path d="M7.76007 20.1649C7.86963 20.214 7.94679 20.2497 8.0249 20.2826C8.6241 20.5341 9.22568 20.7808 9.82297 21.037C10.1883 21.1937 10.3945 21.5762 10.3402 21.9649C10.2878 22.3416 10.0049 22.6551 9.64816 22.6732C9.46621 22.6827 9.26664 22.6379 9.09755 22.5655C7.9525 22.0773 6.8146 21.5729 5.67242 21.0785C5.26803 20.9037 5.08227 20.5874 5.06703 20.1644C5.05179 19.7458 5.25374 19.4495 5.63193 19.2823C6.79936 18.767 7.9687 18.2549 9.13946 17.7467C9.47336 17.6019 9.79296 17.6224 10.0583 17.901C10.3255 18.1816 10.4484 18.5169 10.2788 18.8794C10.2031 19.0413 10.0397 19.2023 9.87631 19.2766C9.27807 19.5495 8.66316 19.7858 8.05491 20.0363C7.96822 20.072 7.88296 20.1111 7.7596 20.1644L7.76007 20.1649Z" fill="#1DFBED"/>
<path d="M15.5739 15.6806C15.5648 15.7188 15.5491 15.8212 15.5163 15.9174C14.4417 19.0691 13.3643 22.2199 12.2907 25.3721C12.2054 25.6217 12.0668 25.8084 11.8087 25.8865C11.56 25.9618 11.3324 25.916 11.1518 25.7269C10.9466 25.5121 10.907 25.2525 11.0009 24.9753C11.3514 23.9389 11.7044 22.9029 12.0573 21.8674C12.7813 19.7436 13.5053 17.6197 14.2302 15.4963C14.386 15.0405 14.7989 14.8657 15.2314 15.0686C15.4705 15.1805 15.5744 15.3458 15.5748 15.6806H15.5739Z" fill="#1DFBED"/>
<path d="M17.763 9.33557C16.1212 9.33557 14.4793 9.33319 12.8375 9.33747C12.5565 9.33843 12.336 9.25031 12.2216 8.98405C12.0492 8.583 12.3398 8.18243 12.8032 8.18147C14.0087 8.17862 15.2143 8.18004 16.4198 8.18004C18.5218 8.18004 20.6232 8.18004 22.7252 8.18147C23.1924 8.18147 23.4735 8.53061 23.3439 8.94071C23.2653 9.18934 23.061 9.33366 22.7595 9.33462C22.006 9.33795 21.2524 9.33557 20.4989 9.33557C19.5868 9.33557 18.6747 9.33557 17.7625 9.33557H17.763Z" fill="#1DFBED"/>
<path d="M17.7711 12.8426C19.4301 12.8426 21.0891 12.8407 22.7485 12.844C23.242 12.845 23.5306 13.307 23.2968 13.7104C23.1667 13.9343 22.96 14.0014 22.7114 14.0005C21.6792 13.9967 20.6475 13.9995 19.6154 13.9995C17.3929 13.9995 15.17 13.9995 12.9475 13.9986C12.8604 13.9986 12.7723 14.001 12.686 13.9914C12.3922 13.9591 12.1783 13.718 12.1788 13.4265C12.1792 13.1303 12.3855 12.8874 12.6756 12.8497C12.7618 12.8383 12.8499 12.8426 12.9371 12.8426C14.5484 12.8426 16.1598 12.8426 17.7716 12.8426H17.7711Z" fill="#1DFBED"/>
<path d="M16.2784 11.6645C15.1119 11.6645 13.9454 11.6659 12.7789 11.6635C12.4574 11.663 12.2369 11.4806 12.1878 11.1896C12.1397 10.9057 12.2893 10.6442 12.5589 10.5466C12.6103 10.528 12.6665 10.5127 12.7203 10.5127C15.1009 10.5108 17.4815 10.5094 19.8621 10.5127C20.1293 10.5127 20.3322 10.6928 20.396 10.9419C20.4599 11.1915 20.3656 11.4644 20.1407 11.5768C20.0193 11.6373 19.8683 11.6611 19.7306 11.6621C18.5799 11.6687 17.4296 11.6659 16.2788 11.6659V11.664L16.2784 11.6645Z" fill="#1DFBED"/>
<path d="M22.3003 11.6625C22.1179 11.6625 21.9345 11.6734 21.7531 11.6601C21.4449 11.6377 21.2301 11.3943 21.231 11.088C21.232 10.7851 21.452 10.5288 21.7559 10.5165C22.1203 10.5017 22.4861 10.5007 22.85 10.5193C23.1577 10.535 23.3773 10.7918 23.3768 11.0909C23.3763 11.3981 23.1429 11.6448 22.8238 11.6629C22.6499 11.6729 22.4747 11.6648 22.3003 11.6648C22.3003 11.6644 22.3003 11.6634 22.3003 11.6629V11.6625Z" fill="#1DFBED"/>
</g>
<defs>
<clipPath id="clip0_185_573">
<rect width="24.7385" height="25" fill="white" transform="translate(0.880737 0.921387)"/>
</clipPath>
</defs>
</svg>
