<svg width="29" height="26" viewBox="0 0 29 26" fill="none" xmlns="http://www.w3.org/2000/svg">
<g clip-path="url(#clip0_185_591)">
<path d="M14.5315 0.921387C18.9146 0.921387 23.2969 0.921387 27.68 0.921387C28.5788 0.921387 28.6631 1.00479 28.6631 1.88482C28.6631 9.617 28.6631 17.35 28.6631 25.0822C28.6631 25.7852 28.5294 25.9197 27.8103 25.9197C18.9308 25.9197 10.0514 25.9197 1.17275 25.9197C0.469749 25.9205 0.33783 25.7793 0.33783 25.0635C0.33783 17.3024 0.33783 9.54211 0.33783 1.78099C0.33783 1.0482 0.46294 0.921387 1.2119 0.921387C5.65205 0.921387 10.0914 0.921387 14.5315 0.921387ZM27.5805 24.7996C27.5805 24.5511 27.5805 24.3281 27.5805 24.1052C27.5805 18.0607 27.5762 12.0171 27.5907 5.97262C27.5915 5.55644 27.4468 5.4909 27.0783 5.49176C18.6959 5.50112 10.3135 5.49856 1.93022 5.49856C1.77873 5.49856 1.62724 5.49856 1.45787 5.49856V24.7996H27.5796H27.5805ZM27.5592 2.05419H1.45361V4.36661H27.5592V2.05419Z" fill="#1DFBED"/>
<path d="M15.7418 15.1447C15.7418 14.1659 15.7545 13.1871 15.7375 12.2084C15.7205 11.2279 16.1196 10.4517 16.8422 9.82362C17.7971 8.99381 18.9402 8.59805 20.1717 8.444C21.753 8.24655 23.2858 8.42102 24.7225 9.15977C25.4553 9.5368 26.1115 10.0287 26.463 10.7871C26.6587 11.2101 26.7753 11.7071 26.7838 12.1735C26.8196 14.0306 26.7472 15.8911 26.8136 17.7473C26.8706 19.3227 26.1702 20.4053 24.8399 21.0819C22.456 22.2955 20.0313 22.2879 17.6542 21.0563C16.3579 20.3848 15.6413 19.321 15.7315 17.783C15.7835 16.9064 15.7409 16.0247 15.7409 15.1455L15.7418 15.1447ZM21.147 9.46276C20.2117 9.46531 19.1734 9.65426 18.2235 10.1887C17.4959 10.5981 16.849 11.1198 16.8448 12.0365C16.8405 12.9386 17.4618 13.4842 18.1904 13.8544C20.2662 14.9098 22.3769 14.9259 24.4221 13.8101C26.1498 12.8671 26.1259 11.2467 24.428 10.2509C23.4612 9.68319 22.4007 9.47042 21.1462 9.46276H21.147ZM16.8797 17.4988C16.6899 18.5167 16.9444 19.2154 17.7248 19.8078C19.5512 21.1959 22.9471 21.1993 24.7872 19.8316C25.5949 19.2316 25.8332 18.4435 25.6766 17.4928C22.7394 19.2937 19.8279 19.3039 16.8797 17.4979V17.4988ZM16.8712 14.3693C16.6746 15.4213 17.0192 16.2238 17.901 16.8205C19.6968 18.035 22.8731 18.0384 24.6518 16.8102C25.5676 16.1787 25.8936 15.3796 25.651 14.3838C22.7335 16.1685 19.821 16.1796 16.8712 14.3693Z" fill="#1DFBED"/>
<path d="M7.18315 10.0122C7.15932 9.78916 7.12953 9.58065 7.11506 9.37043C7.08612 8.95254 7.28187 8.71594 7.69806 8.70657C8.33638 8.69296 8.9747 8.69381 9.61302 8.70743C10.0352 8.71679 10.2198 8.94488 10.2028 9.36702C10.1935 9.58661 10.1143 9.92364 10.2198 10.0036C10.4939 10.2096 10.848 10.3211 11.1841 10.4249C11.2556 10.4471 11.4063 10.2871 11.4888 10.1849C11.9774 9.5815 12.1986 9.56448 12.7467 10.1126C13.128 10.4939 13.5144 10.8692 13.8829 11.2624C14.1944 11.5952 14.1604 11.8735 13.8251 12.1731C13.6634 12.3169 13.3783 12.5076 13.3995 12.6361C13.4557 12.9757 13.6268 13.3042 13.8029 13.608C13.8447 13.6795 14.0889 13.6565 14.2362 13.6387C14.9213 13.5587 15.1085 13.7187 15.1102 14.414C15.1119 14.9536 15.1153 15.4923 15.1085 16.0319C15.1017 16.5545 14.8702 16.7868 14.3655 16.6796C13.9017 16.5817 13.751 16.7613 13.5749 17.163C13.3774 17.6141 13.3765 17.8822 13.8174 18.1639C14.1885 18.4014 14.1893 18.7418 13.8838 19.061C13.4812 19.4806 13.0668 19.8891 12.6523 20.2968C12.2199 20.7223 11.9459 20.701 11.5688 20.2253C11.4727 20.1036 11.3765 19.9827 11.2701 19.8482C10.9416 19.9802 10.6224 20.0925 10.3203 20.2389C10.2377 20.2789 10.1705 20.4202 10.1603 20.5214C10.1458 20.6729 10.1952 20.8304 10.2045 20.9861C10.225 21.3521 10.0301 21.5964 9.66408 21.6066C8.99768 21.6245 8.33042 21.6253 7.66401 21.6066C7.2623 21.5955 7.08357 21.3376 7.11506 20.9121C7.13038 20.7053 7.20272 20.3751 7.1091 20.3129C6.80952 20.1146 6.44865 19.9972 6.09885 19.895C6.03162 19.8755 5.89034 20.0559 5.80608 20.1614C5.355 20.7266 5.11754 20.7461 4.60519 20.2389C4.22219 19.8593 3.8375 19.4814 3.46387 19.0933C3.11407 18.7307 3.14131 18.4482 3.52004 18.1222C3.67409 17.9903 3.94133 17.8039 3.9192 17.6882C3.85452 17.3486 3.69281 17.0192 3.51749 16.7145C3.47579 16.6422 3.23152 16.6626 3.08428 16.6788C2.39064 16.7554 2.20766 16.6005 2.2051 15.906C2.2034 15.3664 2.19829 14.8276 2.20681 14.288C2.21532 13.7578 2.44852 13.5238 2.95151 13.6378C3.42131 13.7442 3.5643 13.5595 3.74047 13.1561C3.93793 12.705 3.9524 12.4369 3.50217 12.1561C3.13194 11.9254 3.13194 11.5756 3.43663 11.259C3.86899 10.8088 4.309 10.3654 4.75838 9.933C5.06733 9.63597 5.41628 9.6249 5.62905 9.9696C5.92778 10.4539 6.24439 10.5015 6.69036 10.2071C6.82824 10.116 7.00271 10.0811 7.184 10.0113L7.18315 10.0122ZM12.6999 18.6763C12.5944 18.5852 12.5221 18.5197 12.4455 18.4575C11.9688 18.0711 11.9535 17.9265 12.2633 17.3835C12.4242 17.1018 12.5689 16.8056 12.6761 16.5C13.0165 15.5306 13.0089 15.5281 13.9902 15.5026V14.7995C13.9034 14.7995 13.8481 14.7953 13.7936 14.7995C13.0038 14.8702 12.9689 14.8353 12.7578 14.0999C12.665 13.7748 12.5416 13.4531 12.3859 13.1535C11.9569 12.3271 11.9476 12.3322 12.6378 11.6905C12.654 11.6752 12.6514 11.6386 12.6557 11.6165C12.5076 11.4462 12.3629 11.2786 12.2046 11.0964C12.0957 11.2164 12.0267 11.2854 11.9654 11.3603C11.5612 11.8522 11.4216 11.8616 10.8548 11.5407C10.5365 11.3603 10.196 11.2071 9.84792 11.0964C8.97384 10.8173 8.97044 10.8301 9.02746 9.90321C9.02917 9.88023 9.00193 9.85555 8.97895 9.81385H8.33723C8.31595 9.86576 8.29638 9.8913 8.29638 9.91683C8.29638 9.98747 8.30148 10.0581 8.30914 10.1288C8.37723 10.7662 8.29212 10.8718 7.66061 11.0437C7.36188 11.1245 7.06484 11.2301 6.78483 11.3628C5.85629 11.8037 5.8597 11.8097 5.11499 11.1381C5.03584 11.2113 4.95073 11.282 4.87498 11.3611C4.78987 11.4496 4.71157 11.545 4.62136 11.6488C4.72264 11.7331 4.79668 11.7969 4.87328 11.859C5.34564 12.2386 5.34564 12.3876 5.06052 12.9399C4.83498 13.3765 4.66646 13.8455 4.51071 14.3127C4.37113 14.7298 4.20347 14.871 3.77026 14.8285C3.62302 14.814 3.47579 14.8064 3.32344 14.7944V15.5111C3.43919 15.5111 3.52345 15.5196 3.60515 15.5094C4.26305 15.4336 4.37199 15.5238 4.55072 16.1732C4.64434 16.5128 4.7703 16.849 4.92945 17.1622C5.35585 18.0031 5.36606 17.9971 4.67838 18.6269C4.66136 18.6431 4.66136 18.6771 4.66221 18.6737C4.82392 18.8473 4.97371 19.0091 5.14052 19.1878C5.22393 19.0959 5.30138 19.0176 5.37202 18.9325C5.75246 18.472 5.89374 18.4609 6.41461 18.7495C6.74739 18.9342 7.09719 19.1001 7.45805 19.2176C8.33638 19.5027 8.34063 19.4899 8.29978 20.4023C8.29893 20.4261 8.32191 20.4508 8.33808 20.484H9.03002C9.02321 20.3725 9.02151 20.3019 9.01385 20.2321C8.93555 19.5572 9.01385 19.4533 9.65897 19.278C9.95856 19.1963 10.2556 19.0916 10.5356 18.958C11.4616 18.518 11.4582 18.5112 12.2208 19.1963C12.3689 19.0354 12.5186 18.8729 12.7008 18.6746L12.6999 18.6763Z" fill="#1DFBED"/>
<path d="M23.2016 3.75964C22.7974 3.76049 22.5378 3.54346 22.5412 3.20558C22.5446 2.86599 22.7939 2.66769 23.2118 2.67194C23.628 2.6762 23.8748 2.87961 23.8723 3.21749C23.8697 3.55282 23.6161 3.75794 23.2008 3.75879L23.2016 3.75964Z" fill="#1DFBED"/>
<path d="M21.0517 3.7572C20.6474 3.75379 20.3862 3.53166 20.3947 3.19973C20.404 2.86865 20.6653 2.66524 21.0755 2.6695C21.4866 2.67375 21.7377 2.88653 21.7317 3.22526C21.7266 3.55719 21.4653 3.76145 21.0509 3.75805L21.0517 3.7572Z" fill="#1DFBED"/>
<path d="M25.3438 2.67145C25.7574 2.6672 26.0094 2.8672 26.0128 3.20509C26.0162 3.54723 25.7736 3.75319 25.3583 3.7583C24.9463 3.76341 24.6961 3.5617 24.6893 3.21871C24.6834 2.87827 24.9251 2.67571 25.343 2.67145H25.3438Z" fill="#1DFBED"/>
<path d="M5.21631 15.1475C5.22056 13.2462 6.76019 11.7108 8.66068 11.7134C10.5603 11.7159 12.1068 13.2573 12.1076 15.1501C12.1076 17.0659 10.5459 18.6234 8.6377 18.6081C6.73466 18.5928 5.21205 17.0531 5.21716 15.1475H5.21631ZM6.30996 15.1612C6.31422 16.4693 7.35255 17.5093 8.65898 17.5127C9.9569 17.5161 11.008 16.465 11.0114 15.1603C11.0148 13.8641 9.9603 12.8113 8.65728 12.8104C7.3517 12.8104 6.30571 13.8573 6.30911 15.1612H6.30996Z" fill="#1DFBED"/>
</g>
<defs>
<clipPath id="clip0_185_591">
<rect width="28.3244" height="25" fill="white" transform="translate(0.33783 0.921387)"/>
</clipPath>
</defs>
</svg>
