<svg width="20" height="26" viewBox="0 0 20 26" fill="none" xmlns="http://www.w3.org/2000/svg">
<g clip-path="url(#clip0_185_599)">
<path d="M14.4747 19.657V21.4433H2.45198V4.30518H14.4675V6.7463C14.3717 6.7463 14.28 6.7463 14.1887 6.7463C13.292 6.7463 12.3958 6.74425 11.4991 6.74681C10.0746 6.75142 8.9888 7.83568 8.98675 9.2648C8.98265 11.8863 8.98317 14.5078 8.98675 17.1293C8.9888 18.5691 10.0741 19.6493 11.5191 19.6565C12.4071 19.6611 13.2951 19.6575 14.1831 19.6575C14.2743 19.6575 14.366 19.6575 14.4742 19.6575L14.4747 19.657Z" fill="#1DFBED"/>
<path d="M9.80865 13.193C9.80865 11.8951 9.80763 10.5976 9.80865 9.29969C9.80968 8.26103 10.5035 7.56877 11.5432 7.56826C13.5323 7.56774 15.5215 7.56774 17.5107 7.56826C18.6026 7.56826 19.2836 8.24925 19.2836 9.33915C19.2836 11.9176 19.2841 14.496 19.2836 17.074C19.2836 18.1418 18.5898 18.8362 17.522 18.8367C15.5328 18.8377 13.5436 18.8377 11.5544 18.8367C10.5055 18.8362 9.81019 18.1383 9.80916 17.0858C9.80814 15.7878 9.80916 14.4904 9.80916 13.1925L9.80865 13.193ZM11.3326 9.78289V10.8344H17.7812V9.78289H11.3326ZM17.7838 13.7566V12.697H11.332V13.7566H17.7838Z" fill="#1DFBED"/>
<path d="M15.915 19.6738H16.7129V19.9218C16.7129 20.8953 16.7165 21.8689 16.7118 22.842C16.7042 24.3946 15.665 25.6254 14.1375 25.8898C13.9622 25.92 13.7803 25.9195 13.6015 25.9195C10.1689 25.9211 6.73624 25.9231 3.3036 25.9195C1.53681 25.918 0.220937 24.6175 0.2194 22.8517C0.213764 16.567 0.214276 10.2823 0.2194 3.99758C0.22145 2.24053 1.54654 0.927218 3.30667 0.924656C6.74802 0.920044 10.1889 0.920557 13.6302 0.924656C15.3632 0.926706 16.6975 2.2559 16.7118 3.98836C16.719 4.89276 16.7134 5.79768 16.7134 6.72463H15.9156C15.9156 6.63803 15.9156 6.54785 15.9156 6.45715C15.9156 5.64601 15.9176 4.83486 15.9156 4.02372C15.9115 2.68017 14.9517 1.72197 13.6036 1.72145C10.1796 1.71992 6.7552 1.71992 3.33127 1.72145C1.95955 1.72197 0.998264 2.68632 0.997752 4.06215C0.996214 10.3043 0.996727 16.546 0.997752 22.7882C0.997752 24.1691 1.97133 25.1417 3.3533 25.1422C6.76032 25.1437 10.1673 25.1437 13.5744 25.1422C14.9481 25.1417 15.9125 24.1784 15.9156 22.8087C15.9176 21.8607 15.9156 20.9128 15.9156 19.9653C15.9156 19.8736 15.9156 19.7819 15.9156 19.6743L15.915 19.6738Z" fill="#1DFBED"/>
<path d="M8.46461 22.6738C8.9678 22.7563 9.38746 22.8188 9.80405 22.8967C9.92703 22.9198 10.0587 22.9649 10.1556 23.0402C10.2755 23.1335 10.4415 23.2677 10.443 23.3856C10.4446 23.5034 10.2908 23.67 10.1643 23.735C9.5622 24.043 8.90324 24.0922 8.24581 24.0368C7.83486 24.002 7.42288 23.9052 7.02935 23.7796C6.87255 23.7299 6.68808 23.5454 6.65222 23.3912C6.60149 23.1719 6.83515 23.0489 7.01961 23.0007C7.51717 22.8696 8.02343 22.7717 8.46513 22.6743L8.46461 22.6738Z" fill="#1DFBED"/>
<path d="M9.47917 3.3115C9.15533 3.3115 8.83149 3.31458 8.50764 3.31048C8.21864 3.30689 8.04955 3.15266 8.05365 2.90721C8.05775 2.67253 8.22018 2.52034 8.49739 2.51778C9.14508 2.51214 9.79226 2.51214 10.4399 2.5188C10.7402 2.52188 10.897 2.67253 10.8929 2.92258C10.8888 3.16803 10.7238 3.30792 10.4251 3.31099C10.11 3.31407 9.79482 3.3115 9.47917 3.3115Z" fill="#1DFBED"/>
<path d="M12.6141 24.0195C12.2539 24.018 11.9618 23.7218 11.9695 23.3657C11.9772 23.0065 12.2713 22.7293 12.6367 22.736C12.9882 22.7426 13.2674 23.026 13.2679 23.376C13.2679 23.7377 12.98 24.0216 12.6136 24.0201L12.6141 24.0195Z" fill="#1DFBED"/>
<path d="M4.94281 23.3892C4.93871 23.753 4.65227 24.0266 4.28282 24.0194C3.93028 24.0128 3.65922 23.7335 3.65871 23.3779C3.65871 23.011 3.93848 22.7338 4.30742 22.7359C4.67533 22.7379 4.94691 23.0172 4.94229 23.3892H4.94281Z" fill="#1DFBED"/>
<path d="M6.41393 2.52002C6.62812 2.52105 6.80183 2.69373 6.80388 2.90843C6.80644 3.1303 6.61787 3.31784 6.4001 3.30965C6.19052 3.30145 6.01784 3.11852 6.02194 2.90792C6.02604 2.69578 6.20436 2.51951 6.41393 2.52002Z" fill="#1DFBED"/>
</g>
<defs>
<clipPath id="clip0_185_599">
<rect width="19.0683" height="25" fill="white" transform="translate(0.21582 0.921387)"/>
</clipPath>
</defs>
</svg>
