<svg width="28" height="16" viewBox="0 0 28 16" fill="none" xmlns="http://www.w3.org/2000/svg">
<g clip-path="url(#clip0_185_612)">
<path d="M15.6307 4.48095C15.7888 4.76855 15.9514 5.07246 16.1221 5.37183C16.3015 5.6857 16.2951 5.98689 16.0972 6.29034C15.8064 6.73555 15.5206 7.18393 15.2376 7.63413C15.2045 7.68667 15.1841 7.75958 15.1878 7.82118C15.2226 8.45571 15.2593 9.08979 15.3046 9.72341C15.3218 9.96617 15.2788 10.1827 15.1488 10.3924C14.7579 11.0233 14.3775 11.6601 13.993 12.295C13.8254 12.5713 13.5795 12.7077 13.257 12.6864C12.9246 12.6646 12.5921 12.6325 12.2606 12.5999C12.1877 12.5926 12.1274 12.5953 12.0853 12.6624C12.079 12.6723 12.0704 12.6818 12.0604 12.6877C11.8303 12.8331 11.7891 13.0405 11.8226 13.2982C11.8593 13.5809 11.8557 13.8689 11.872 14.1543C11.8928 14.5188 11.7497 14.791 11.4272 14.9699C10.8375 15.2969 10.2157 15.5429 9.56078 15.7014C9.24283 15.7779 8.97109 15.6887 8.75595 15.4428C8.49507 15.1439 8.23963 14.8395 7.97694 14.5424C7.94343 14.5044 7.88093 14.4835 7.82793 14.4726C7.54169 14.4142 7.33879 14.5261 7.16487 14.7593C6.99231 14.9908 6.78171 15.1937 6.58469 15.4066C6.35959 15.6498 6.08513 15.7327 5.76356 15.6457C5.1005 15.4663 4.47548 15.1978 3.88941 14.8404C3.60091 14.6642 3.47635 14.4024 3.50262 14.0664C3.53342 13.6705 3.56286 13.2742 3.59275 12.8784C3.59275 12.8743 3.59366 12.8707 3.59411 12.8666C3.59683 12.7665 3.28206 12.4631 3.18241 12.4681C2.78204 12.4871 2.38167 12.5061 1.98129 12.5233C1.64161 12.5378 1.3916 12.3879 1.2281 12.0958C0.895208 11.5006 0.644294 10.872 0.486228 10.208C0.409233 9.88465 0.507062 9.6129 0.758428 9.39641C1.05644 9.14006 1.35673 8.88643 1.65202 8.62691C1.68735 8.59566 1.70819 8.53859 1.7186 8.49013C1.7811 8.19846 1.66199 7.9951 1.42919 7.81665C1.18417 7.62915 0.962692 7.40948 0.740765 7.19344C0.541936 7.00005 0.4663 6.75457 0.529708 6.48418C0.695473 5.77583 0.954539 5.10507 1.37167 4.50269C1.56099 4.22959 1.8196 4.11002 2.14977 4.14535C2.52479 4.18565 2.89934 4.22913 3.27481 4.26401C3.32372 4.26854 3.38849 4.24136 3.42608 4.20739C3.54656 4.09824 3.6616 3.9823 3.76984 3.86092C3.80381 3.82332 3.82872 3.75946 3.82555 3.70964C3.80064 3.33327 3.76214 2.95781 3.73814 2.58144C3.71594 2.23541 3.85997 1.96956 4.1684 1.80877C4.74768 1.50623 5.36092 1.28838 5.995 1.1371C6.31023 1.06192 6.58243 1.16428 6.79484 1.41383C7.04213 1.70415 7.29123 1.9922 7.53671 2.28388C7.5897 2.34683 7.64949 2.35997 7.72829 2.37401C8.01453 2.42609 8.19978 2.30154 8.36917 2.08459C8.55169 1.85044 8.7632 1.63848 8.96656 1.42063C9.18758 1.18421 9.46023 1.11265 9.77002 1.19553C10.4213 1.37035 11.035 1.63576 11.6147 1.97952C11.9349 2.16929 12.0676 2.44919 12.0319 2.82012C11.9952 3.19559 11.9707 3.57196 11.9485 3.94833C11.9454 3.99815 11.9753 4.06065 12.0097 4.10051C12.1804 4.29888 12.3661 4.48458 12.5305 4.68748C12.8145 5.03713 12.7579 5.52265 12.4119 5.803C12.0776 6.07385 11.5966 6.01225 11.3013 5.68072C11.0644 5.41486 10.8063 5.16802 10.5567 4.91348C10.3815 4.73458 10.3135 4.51855 10.333 4.27216C10.3602 3.92795 10.3869 3.58328 10.419 3.23952C10.4267 3.15619 10.4082 3.10863 10.3253 3.07738C10.1772 3.02122 10.0314 2.95736 9.88778 2.89033C9.81169 2.85455 9.76821 2.88036 9.71703 2.93743C9.47382 3.21008 9.22879 3.48092 8.97969 3.74814C8.80215 3.93836 8.57615 3.99679 8.32025 3.98501C7.99959 3.97052 7.67802 3.95829 7.35781 3.9678C7.06161 3.97686 6.82473 3.88402 6.63542 3.65529C6.41757 3.39261 6.19066 3.13716 5.97099 2.87583C5.92344 2.81922 5.88041 2.8002 5.8084 2.83009C5.68747 2.87991 5.56383 2.92203 5.43973 2.9637C5.37723 2.98453 5.35639 3.01714 5.36273 3.08644C5.39308 3.40665 5.41301 3.72731 5.44335 4.04752C5.47777 4.40849 5.32605 4.65895 5.04026 4.87725C4.78436 5.07291 4.56561 5.31975 4.34368 5.55707C4.20056 5.7097 4.04748 5.84377 3.83914 5.86777C3.66884 5.88725 3.49266 5.87185 3.3201 5.85599C3.0633 5.8329 2.80786 5.79712 2.55196 5.76405C2.48312 5.755 2.44009 5.77311 2.41337 5.8406C2.35359 5.99187 2.29108 6.14178 2.22632 6.29079C2.19688 6.35873 2.20911 6.40311 2.26617 6.45384C2.52479 6.68256 2.77706 6.91898 3.03567 7.14815C3.26349 7.3506 3.35271 7.59472 3.32961 7.90135C3.30561 8.2211 3.30697 8.54358 3.31648 8.86424C3.32463 9.14006 3.22861 9.35972 3.0239 9.53591C2.75939 9.76417 2.49489 9.99289 2.22586 10.2153C2.16155 10.2683 2.15068 10.3131 2.18238 10.3865C2.2467 10.5359 2.30648 10.6872 2.3631 10.8394C2.38801 10.9069 2.42786 10.925 2.49761 10.9209C2.84635 10.901 3.19555 10.8888 3.54474 10.8684C3.84185 10.8512 4.06831 10.9689 4.26306 11.1908C4.46597 11.4227 4.68337 11.6433 4.90801 11.8544C5.10593 12.0401 5.22097 12.2534 5.20331 12.526C5.17976 12.8906 5.15168 13.2548 5.11997 13.6189C5.11454 13.6841 5.1236 13.7231 5.18655 13.7493C5.34416 13.8141 5.50133 13.8802 5.65577 13.9513C5.72235 13.9821 5.76266 13.9667 5.80931 13.9142C6.02806 13.6678 6.25542 13.4291 6.47056 13.1796C6.69158 12.9232 6.95744 12.8277 7.29622 12.863C7.57883 12.8924 7.86734 12.8879 8.15177 12.8725C8.46201 12.8562 8.7093 12.9513 8.90768 13.1909C9.12553 13.454 9.35289 13.7086 9.5721 13.9708C9.61875 14.0265 9.65815 14.0365 9.72383 14.0089C9.87736 13.9441 10.0332 13.8861 10.1885 13.8268C10.2474 13.8046 10.2718 13.772 10.2673 13.7027C10.2451 13.3431 10.2261 12.983 10.213 12.623C10.203 12.3476 10.3221 12.1284 10.5219 11.9427C10.7506 11.7298 10.9825 11.5192 11.194 11.2896C11.3919 11.0749 11.6193 10.9639 11.9096 10.9879C12.2022 11.0124 12.4952 11.0369 12.7878 11.0649C12.8584 11.0717 12.901 11.0559 12.9404 10.9893C13.175 10.593 13.4182 10.2021 13.6515 9.80539C13.6891 9.74198 13.7117 9.65683 13.7081 9.58391C13.6741 8.94576 13.6365 8.30716 13.5908 7.66991C13.5727 7.41628 13.6338 7.19707 13.7756 6.98556C14.0238 6.61689 14.2548 6.23689 14.4971 5.86415C14.5378 5.80165 14.5342 5.75726 14.4984 5.69385C14.3263 5.38995 14.1601 5.08287 13.9916 4.77671C13.8059 4.43929 13.8304 4.12361 14.0722 3.82468C14.4636 3.34097 14.9124 2.91569 15.3979 2.52754C15.6778 2.3038 15.9785 2.27618 16.3001 2.43017C16.647 2.59593 16.9944 2.76125 17.3445 2.92067C17.3898 2.9415 17.4546 2.93335 17.5076 2.92248C17.8029 2.86225 17.9338 2.66296 17.9981 2.37989C18.057 2.12219 18.1634 1.87535 18.239 1.62081C18.3563 1.22633 18.6245 1.03293 19.0248 0.984924C19.6743 0.907476 20.3233 0.888907 20.9724 0.979942C21.2772 1.02252 21.4937 1.18919 21.6024 1.47724C21.7437 1.8518 21.8759 2.22998 22.0073 2.60816C22.0335 2.68334 22.0852 2.71097 22.1477 2.75083C22.4036 2.91342 22.6287 2.8482 22.8678 2.70508C23.1087 2.56061 23.3678 2.44557 23.6192 2.3183C23.929 2.16159 24.2247 2.18741 24.5033 2.39393C25.0391 2.79114 25.516 3.24994 25.9236 3.77803C26.136 4.0534 26.1885 4.35414 26.03 4.67933C25.8615 5.0249 25.6971 5.37319 25.5373 5.72284C25.5164 5.76858 25.5223 5.8338 25.5332 5.88679C25.5925 6.17349 25.7746 6.31253 26.0604 6.37775C26.3643 6.44705 26.6582 6.56299 26.9531 6.66807C27.2216 6.76363 27.3892 6.96336 27.4381 7.24009C27.5618 7.94075 27.5708 8.64684 27.4789 9.35202C27.4381 9.66499 27.2606 9.8842 26.9617 9.99425C26.5894 10.1315 26.2162 10.2655 25.8416 10.3951C25.7696 10.42 25.7252 10.4553 25.7094 10.5282C25.7062 10.5436 25.7026 10.5604 25.6944 10.5731C25.5522 10.7878 25.5925 10.9821 25.7216 11.1949C25.8797 11.4553 26.0033 11.7366 26.1405 12.0097C26.2968 12.3204 26.2655 12.6153 26.059 12.8929C25.6586 13.4314 25.193 13.907 24.6654 14.3209C24.3968 14.532 24.102 14.561 23.7931 14.4178C23.4366 14.253 23.0838 14.0809 22.7265 13.9183C22.6821 13.8979 22.6178 13.9079 22.5657 13.9183C22.2772 13.9767 22.1404 14.1642 22.0784 14.4468C22.0218 14.705 21.9153 14.9518 21.8383 15.2059C21.7251 15.5782 21.4873 15.7938 21.0951 15.8454C20.4302 15.9333 19.7653 15.9496 19.1 15.859C18.7893 15.8169 18.5751 15.6416 18.465 15.3508C18.3278 14.9876 18.1987 14.6208 18.0728 14.2534C18.0416 14.1624 17.984 14.1257 17.9034 14.0791C17.6656 13.9414 17.4623 13.9776 17.2363 14.1153C16.9831 14.2702 16.71 14.3916 16.4432 14.5234C16.1384 14.6742 15.8454 14.6547 15.5732 14.4437C15.4101 14.3173 15.2462 14.1918 15.0899 14.0569C14.7634 13.7743 14.7213 13.2919 14.9889 12.9645C15.2634 12.6288 15.7399 12.5709 16.0872 12.8372C16.1475 12.8834 16.1887 12.8866 16.2539 12.8521C16.5524 12.6954 16.8567 12.5491 17.1539 12.3906C17.4288 12.2434 17.6933 12.2561 17.9736 12.3847C18.2535 12.5134 18.5429 12.6257 18.8346 12.7249C19.1023 12.8159 19.2889 12.9776 19.3844 13.2425C19.5054 13.5781 19.6263 13.9138 19.7436 14.2512C19.7653 14.3132 19.7939 14.3404 19.8618 14.3381C20.0285 14.3318 20.1952 14.3291 20.3618 14.3318C20.4388 14.3332 20.4723 14.3042 20.495 14.2317C20.5969 13.9061 20.7088 13.584 20.8102 13.2579C20.9026 12.9608 21.0965 12.7815 21.389 12.6773C21.6721 12.5768 21.9488 12.454 22.2174 12.3195C22.4824 12.1873 22.7374 12.1678 23.0041 12.2987C23.3139 12.4504 23.6264 12.5967 23.9344 12.7516C24.0132 12.791 24.0612 12.7788 24.1183 12.7167C24.2283 12.5971 24.3434 12.4821 24.4607 12.3698C24.5168 12.3159 24.5159 12.2706 24.4806 12.204C24.3081 11.8793 24.1359 11.5541 23.9729 11.2239C23.861 10.997 23.8769 10.7669 23.9765 10.5341C24.1101 10.2212 24.236 9.90458 24.3547 9.58573C24.448 9.33481 24.6092 9.15999 24.8611 9.06941C25.193 8.94984 25.5246 8.82936 25.8584 8.71478C25.929 8.69032 25.963 8.65997 25.9594 8.58162C25.9512 8.41495 25.949 8.24828 25.9471 8.0816C25.9467 8.01729 25.9236 7.98423 25.8584 7.96385C25.5368 7.8633 25.218 7.75234 24.8959 7.65406C24.5907 7.56076 24.4023 7.36691 24.2931 7.06572C24.1858 6.76907 24.0458 6.48373 23.9154 6.19568C23.808 5.95881 23.7877 5.72374 23.9013 5.48415C24.0544 5.16168 24.2057 4.83785 24.3615 4.51673C24.3937 4.45016 24.3937 4.40305 24.337 4.35051C24.2206 4.24272 24.107 4.13176 23.996 4.01808C23.938 3.95875 23.8896 3.94878 23.8112 3.99C23.5136 4.14806 23.2102 4.29481 22.9117 4.45106C22.6323 4.59735 22.3642 4.58286 22.0811 4.44563C21.8252 4.32153 21.5584 4.21555 21.2871 4.1304C20.9733 4.03212 20.7672 3.84733 20.6644 3.53346C20.5607 3.21688 20.4388 2.90618 20.3306 2.59095C20.3066 2.5212 20.2717 2.49901 20.202 2.50127C20.0434 2.50626 19.8845 2.50988 19.7255 2.50535C19.6403 2.50309 19.6009 2.53162 19.5751 2.61495C19.4682 2.95509 19.3527 3.29251 19.2422 3.63174C19.163 3.8745 19.0008 4.03393 18.7671 4.13085C18.4492 4.2631 18.134 4.4026 17.8165 4.53666C17.5728 4.63993 17.3264 4.66076 17.0796 4.54527C16.7598 4.39535 16.4396 4.2468 16.1221 4.09281C16.0587 4.06201 16.0161 4.06201 15.9686 4.11455C15.8621 4.2323 15.753 4.34734 15.6307 4.47914V4.48095Z" fill="#1DFBED"/>
<path d="M10.9245 8.4271C10.9508 10.0603 9.56622 11.4815 7.94117 11.5205C6.19202 11.5626 4.75991 10.1984 4.7341 8.46922C4.70918 6.77261 6.0335 5.38171 7.72558 5.32646C9.54901 5.26667 10.9444 6.74589 10.9245 8.4271ZM6.3134 8.41124C6.31249 9.25728 6.98733 9.93982 7.82613 9.94163C8.66401 9.9439 9.35063 9.25774 9.35018 8.4194C9.34972 7.5874 8.66447 6.90078 7.83473 6.90078C6.99866 6.90078 6.31385 7.5806 6.31295 8.41124H6.3134Z" fill="#1DFBED"/>
<path d="M23.4149 8.42166C23.4203 10.1124 22.0376 11.5064 20.3519 11.5191C18.6571 11.5318 17.2182 10.1803 17.2191 8.39946C17.2195 6.71735 18.6145 5.32736 20.3052 5.32374C22.024 5.32011 23.4095 6.70014 23.4149 8.42166ZM18.7988 8.41396C18.7975 9.25502 19.48 9.94163 20.3165 9.94163C21.1508 9.94163 21.8352 9.26 21.8361 8.42845C21.837 7.59102 21.1576 6.90168 20.3306 6.90078C19.4859 6.89987 18.7997 7.57788 18.7984 8.41396H18.7988Z" fill="#1DFBED"/>
</g>
<defs>
<clipPath id="clip0_185_612">
<rect width="27.0801" height="15" fill="white" transform="translate(0.459961 0.921387)"/>
</clipPath>
</defs>
</svg>
