<svg width="21" height="26" viewBox="0 0 21 26" fill="none" xmlns="http://www.w3.org/2000/svg">
<g clip-path="url(#clip0_186_621)">
<path d="M8.82491 0.921387C9.73584 0.921387 10.6468 0.921387 11.5587 0.921387C11.7571 0.950739 11.9565 0.982115 12.1549 1.00742C13.2551 1.14912 14.3644 1.24122 15.4535 1.44264C16.8138 1.69467 18.1356 2.09446 19.2925 2.90317C20.0871 3.45884 20.503 4.16734 20.497 5.19467C20.4656 10.722 20.4626 16.2503 20.501 21.7777C20.5081 22.726 20.1306 23.3303 19.4089 23.8394C18.0547 24.7949 16.5142 25.2513 14.9099 25.5115C13.7996 25.6916 12.6751 25.7888 11.5577 25.9224H8.8239C8.65892 25.8951 8.49394 25.8637 8.32896 25.8394C7.07997 25.6633 5.82188 25.5378 4.58503 25.3009C3.16904 25.0287 1.832 24.5175 0.710539 23.5661C0.289486 23.2078 -0.00302369 22.7918 -0.00201154 22.1845C0.00912206 16.4011 -0.00606013 10.6177 0.0273407 4.83434C0.0303771 4.389 0.256086 3.87786 0.535438 3.51956C0.844142 3.1228 1.30467 2.81612 1.75001 2.55803C2.93017 1.87584 4.2409 1.54689 5.57289 1.33029C6.65082 1.15519 7.7409 1.05499 8.82592 0.921387L8.82491 0.921387ZM19.2257 6.90418C13.1923 9.2645 7.24192 9.27766 1.25001 6.90114C1.25001 8.01248 1.27633 9.18961 1.23888 10.3647C1.22066 10.9497 1.45345 11.3688 1.93119 11.6066C2.64981 11.9639 3.3826 12.3364 4.15183 12.5449C7.82896 13.5439 11.5445 13.5287 15.2672 12.8212C16.4271 12.6005 17.5678 12.2716 18.5537 11.5935C18.836 11.3991 19.1792 11.0479 19.1943 10.7524C19.2642 9.44669 19.2247 8.13596 19.2247 6.90317L19.2257 6.90418ZM19.2186 18.3596C16.3735 19.9275 13.3158 20.2402 10.2207 20.2331C7.13463 20.226 4.07997 19.9275 1.249 18.3829C1.249 19.5408 1.28038 20.6208 1.23685 21.6977C1.21256 22.2868 1.44333 22.7129 1.92309 22.9396C2.75507 23.3333 3.59819 23.7513 4.48382 23.975C7.91702 24.8424 11.3897 24.8414 14.8664 24.2402C16.0992 24.0266 17.3087 23.6997 18.3796 23.0358C18.7237 22.8222 19.1528 22.4254 19.1802 22.0833C19.2773 20.8677 19.2186 19.639 19.2186 18.3607V18.3596ZM1.2571 12.7028C1.2571 13.8536 1.2905 14.9295 1.24495 16.0013C1.21864 16.6309 1.46256 17.0803 1.9909 17.309C2.94232 17.722 3.90082 18.1673 4.90285 18.4042C7.93827 19.1248 11.0182 19.137 14.0952 18.6987C15.6124 18.4831 17.1093 18.1481 18.4535 17.3455C18.9869 17.0266 19.3118 16.6137 19.2409 15.9447C19.2004 15.5611 19.2338 15.1694 19.2338 14.7817V12.6856C16.3796 14.2696 13.334 14.5661 10.2551 14.5681C7.17613 14.5702 4.12957 14.2787 1.2571 12.7018V12.7028ZM9.70042 7.37179C9.70649 7.42139 9.71155 7.47199 9.71762 7.52159C11.5719 7.31106 13.4342 7.15519 15.2773 6.86977C16.4889 6.68151 17.6751 6.30297 18.6913 5.56511C19.4018 5.04892 19.4099 4.47807 18.6792 3.99426C18.166 3.65519 17.5941 3.37685 17.0132 3.17139C15.0233 2.46693 12.9464 2.24325 10.8502 2.20681C8.4656 2.1643 6.09111 2.30499 3.80973 3.0641C3.05467 3.31511 2.31783 3.68556 1.65386 4.1228C1.082 4.49932 1.10528 5.04588 1.66196 5.45985C2.11439 5.79588 2.63159 6.07118 3.15791 6.27564C5.25912 7.09548 7.47268 7.28677 9.70143 7.37078L9.70042 7.37179Z" fill="#1DFBED"/>
<path d="M16.1953 11.1603C15.6457 11.1532 15.1964 10.6997 15.2095 10.1653C15.2227 9.62383 15.6721 9.19772 16.2287 9.19873C16.7763 9.19873 17.2176 9.64914 17.2085 10.1957C17.1994 10.7433 16.754 11.1674 16.1953 11.1603Z" fill="#1DFBED"/>
<path d="M16.2045 20.8194C16.7642 20.8143 17.2095 21.2354 17.2267 21.785C17.2449 22.3629 16.8016 22.8062 16.2105 22.8012C15.6549 22.7971 15.2105 22.3578 15.2075 21.8123C15.2055 21.2617 15.6437 20.8244 16.2034 20.8184L16.2045 20.8194Z" fill="#1DFBED"/>
<path d="M17.2095 16.0875C17.2176 16.6138 16.7419 17.1128 16.2318 17.1138C15.7014 17.1138 15.2247 16.6563 15.2085 16.128C15.1913 15.6057 15.6589 15.1199 16.1903 15.1067C16.7227 15.0936 17.2024 15.5551 17.2105 16.0865L17.2095 16.0875Z" fill="#1DFBED"/>
</g>
<defs>
<clipPath id="clip0_186_621">
<rect width="20.504" height="25" fill="white" transform="translate(-0.00201416 0.921387)"/>
</clipPath>
</defs>
</svg>
