<svg width="22" height="26" viewBox="0 0 22 26" fill="none" xmlns="http://www.w3.org/2000/svg">
<g clip-path="url(#clip0_185_542)">
<path d="M10.8006 25.9214H10.6924C10.5933 25.8505 10.5008 25.7683 10.3947 25.7098C9.07735 24.9878 7.78489 24.2274 6.58119 23.3219C4.80217 21.9834 3.1801 20.4891 1.94338 18.6181C1.02546 17.2298 0.392215 15.7382 0.39005 14.0382C0.386261 11.095 0.388967 8.15174 0.388967 5.20853C0.388967 5.13709 0.388967 5.06564 0.388967 4.98283C0.513992 4.93899 0.630898 4.89786 0.748345 4.85781C2.00617 4.43024 3.28672 4.06058 4.51585 3.56264C6.52057 2.75026 8.49282 1.85777 10.4743 0.989091C10.6718 0.902494 10.825 0.896541 11.0252 0.985303C12.9136 1.8215 14.7884 2.69235 16.7055 3.4571C18.1451 4.03135 19.6411 4.46434 21.1122 4.9601V14.5226C21.0959 14.5729 21.0694 14.6227 21.0645 14.6747C20.9671 15.6922 20.6315 16.635 20.1623 17.534C19.2888 19.208 18.0591 20.5957 16.6697 21.8514C15.0141 23.3484 13.1739 24.5819 11.2168 25.646C11.0712 25.725 10.9386 25.8289 10.8001 25.9214H10.8006ZM2.10034 10.4054C2.10034 11.621 2.08194 12.8366 2.10954 14.0512C2.12037 14.522 2.18802 15.0043 2.31304 15.4578C2.70435 16.878 3.53027 18.0557 4.4942 19.1393C6.23047 21.0904 8.31205 22.6021 10.5885 23.8566C10.6729 23.9032 10.8326 23.8875 10.9235 23.8382C12.217 23.1406 13.4299 22.319 14.5725 21.3957C16.0793 20.1784 17.4432 18.8275 18.4325 17.1405C18.9797 16.2069 19.3862 15.2202 19.39 14.1161C19.3981 11.5593 19.39 9.00256 19.3975 6.44578C19.3975 6.25635 19.3342 6.18274 19.161 6.12916C16.3683 5.25994 13.6773 4.13418 11.0409 2.87366C10.838 2.77678 10.6734 2.77082 10.464 2.87041C7.8179 4.13094 5.12312 5.27293 2.31737 6.13457C2.12902 6.19249 2.09547 6.2872 2.09655 6.46202C2.10305 7.77667 2.0998 9.09078 2.0998 10.4054H2.10034Z" fill="#1DFBED"/>
<path d="M10.07 16.9745C8.66926 15.5721 7.26477 14.1666 5.88246 12.7826C6.26565 12.3967 6.65534 12.0038 7.04665 11.6098C8.02032 12.5878 9.02539 13.5983 10.0434 14.6212C12.1088 12.5542 14.1341 10.5279 16.1442 8.51611C16.5604 8.93665 16.9506 9.33012 17.3257 9.70899C14.9281 12.1099 12.5023 14.5389 10.07 16.9745Z" fill="#1DFBED"/>
</g>
<defs>
<clipPath id="clip0_185_542">
<rect width="20.7243" height="25" fill="white" transform="translate(0.387878 0.921387)"/>
</clipPath>
</defs>
</svg>
