<svg width="26" height="40" viewBox="0 0 26 40" fill="none" xmlns="http://www.w3.org/2000/svg">
<g clip-path="url(#clip0_185_436)">
<path d="M11.761 40.0001C10.7395 39.8347 10.0403 39.2487 9.52687 38.3712C9.18422 37.7863 8.59286 37.6016 7.94066 37.5408C7.18278 37.4703 6.72058 36.9665 6.74513 36.2983C6.76968 35.6343 7.27351 35.1678 8.01965 35.123C8.16162 35.1145 8.30466 35.1198 8.44663 35.1198C10.7779 35.1198 13.1092 35.1198 15.4405 35.1198C16.0638 35.1198 16.6862 35.1198 17.3095 35.1198C17.4515 35.1198 17.5956 35.1155 17.7365 35.1326C18.409 35.2127 18.8755 35.6984 18.8861 36.3207C18.8968 36.9409 18.4453 37.482 17.7664 37.5258C16.8815 37.5824 16.256 37.9741 15.8354 38.7373C15.4159 39.4984 14.6965 39.8112 13.898 39.9991H11.7621L11.761 40.0001Z" fill="#1DFBED"/>
<path d="M17.7696 29.0269C18.5936 29.376 18.9171 29.7667 18.8712 30.3495C18.8189 31.0262 18.3257 31.4692 17.5646 31.481C16.6039 31.4959 15.6432 31.4852 14.6815 31.4852C12.4922 31.4852 10.3039 31.4938 8.11462 31.481C7.0664 31.4756 6.41633 30.5576 6.90201 29.7432C7.08455 29.4368 7.45068 29.2404 7.83709 28.902C7.74742 27.8058 7.40264 26.6156 6.76111 25.5481C6.14093 24.5181 5.41508 23.5488 4.70416 22.5764C3.6474 21.13 2.40918 19.7925 1.52321 18.2522C-0.466491 14.7927 -0.426996 11.1367 1.17736 7.56187C3.12329 3.23021 6.55937 0.647021 11.2796 0.103696C16.4449 -0.490865 20.6057 1.47962 23.4953 5.80167C25.643 9.01571 26.1158 12.5681 25.0025 16.2914C24.6012 17.631 23.9063 18.8297 23.0459 19.927C22.0489 21.1994 21.0071 22.4366 20.0219 23.7175C18.8125 25.2888 17.9724 27.0266 17.7706 29.0259L17.7696 29.0269ZM10.0606 3.69348C10.0445 2.99751 9.37313 2.63992 8.65688 2.95161C6.7878 3.76286 5.20799 4.97013 4.11601 6.68016C3.46701 7.6953 3.03576 8.85667 2.57463 9.98067C2.36221 10.4973 2.66109 10.9755 3.13824 11.1292C3.61858 11.284 4.06904 11.0492 4.27933 10.5272C4.34551 10.3628 4.39461 10.192 4.44798 10.0244C4.87282 8.70296 5.57733 7.55226 6.54976 6.55848C7.35461 5.73655 8.28541 5.10356 9.33577 4.63923C9.74886 4.4567 10.067 4.19838 10.0606 3.69455V3.69348Z" fill="#1DFBED"/>
<path d="M12.7953 32.1038C14.3773 32.1038 15.9592 32.092 17.5401 32.108C18.489 32.1176 19.0409 32.7944 18.8146 33.6313C18.694 34.0796 18.4015 34.3699 17.9425 34.4585C17.7002 34.5055 17.4494 34.5215 17.2017 34.5226C14.2695 34.5268 11.3372 34.5258 8.40498 34.5236C8.22779 34.5236 8.04953 34.5194 7.87447 34.4948C7.17209 34.3945 6.7099 33.8768 6.75046 33.247C6.79102 32.5991 7.28311 32.1198 7.99829 32.1123C9.59731 32.0942 11.1974 32.107 12.7964 32.107V32.1048L12.7953 32.1038Z" fill="#1DFBED"/>
</g>
<defs>
<clipPath id="clip0_185_436">
<rect width="25.5843" height="40" fill="white"/>
</clipPath>
</defs>
</svg>
