<svg width="75" height="65" viewBox="0 0 75 65" fill="none" xmlns="http://www.w3.org/2000/svg">
<g clip-path="url(#clip0_140_6980)">
<path d="M63.0553 15.2161C62.3598 16.7276 61.7628 18.2955 60.9528 19.7427C58.1387 24.7739 53.8271 27.1739 48.0422 26.8342C46.2372 26.7276 44.1648 25.7025 43.0774 24.394C45.9698 22.7256 48.8502 21.0653 51.7306 19.403C51.7065 19.3387 51.6824 19.2744 51.6603 19.2101C51.409 19.2824 51.1477 19.3327 50.9065 19.4291C48.1729 20.5025 45.4492 21.6 42.7075 22.6513C42.0583 22.9005 41.8171 23.2985 41.6864 23.9598C41.3367 25.7307 41.7628 27.399 42.1447 29.0734C44.9206 29.196 45.395 29.7005 45.0392 32.1648C47.6884 31.3106 49.9538 31.7266 51.7387 34.1889C50.1749 34.9226 48.7618 35.8131 47.2201 36.2271C46.207 36.5005 44.9025 36.3296 43.9176 35.9116C42.7819 35.4312 41.7025 35.0251 40.4683 35.0613C38.2995 35.1256 36.2492 34.8482 34.4342 33.4553C33.6281 32.8382 32.6131 32.4925 31.6965 32.0241C32.4502 29.6623 35.0593 29.1136 37.4211 30.3116C38.2573 29.8553 38.8804 29.5357 39.4754 29.1739C39.6201 29.0854 39.7286 28.8663 39.7668 28.6874C40.1749 26.7698 40.2915 24.8482 39.7729 22.9327C39.7005 22.6693 39.5256 22.3678 39.3065 22.2211C37.0794 20.7437 34.8342 19.2965 32.4543 18C34.595 19.8975 36.7357 21.795 38.9327 23.7407C36.6432 25.1357 34.3136 25.1296 31.9518 24.3035C28.6894 23.1618 26.4744 20.9005 25.2523 17.6985C24.8141 16.5508 24.5327 15.3387 24.2412 14.1407C23.8513 12.5467 23.9538 12.4302 25.5196 12.193C25.7045 12.1668 25.8854 12.0663 26.0703 12C27.009 12 27.9457 12 28.8844 12C30.2291 12.203 31.5839 12.3558 32.9166 12.6211C35.005 13.0372 36.9528 13.799 38.5307 15.2985C40.1568 16.8442 40.8362 18.7638 40.7578 20.9869C40.7518 21.1477 40.9849 21.3146 41.1055 21.4794C41.2482 21.2884 41.4915 21.1136 41.5216 20.9065C42.1045 16.794 44.6291 14.4925 48.4744 13.4312C51.5698 12.5769 54.6914 12.7698 57.803 13.3266C59.6241 13.6523 61.5015 13.8412 63.0573 15.0131V15.2141L63.0553 15.2161Z" fill="#1DFBED"/>
<path d="M32.9045 52C29.013 51.3125 25.9417 48.8562 22.5206 47.1598C22.3015 47.0512 22.0382 46.7356 22.0402 46.5186C22.1025 42.0723 22.203 37.6281 22.2934 33.2201C26.8764 32.6834 31.1276 33.2804 34.8764 36.008C35.8733 36.7336 36.9105 37.0512 38.1346 36.9969C39.1678 36.9527 40.209 37.0472 41.2462 37.1035C42.3738 37.1658 43.2221 37.7728 43.4351 38.6954C43.6784 39.7567 43.0472 40.3879 42.2532 40.9125C40.9909 41.7447 39.5658 41.8693 38.1125 41.8331C37.409 41.815 36.7095 41.7366 36.006 41.7125C35.3387 41.6884 34.7939 42.0201 34.8944 42.6834C34.9547 43.0814 35.4934 43.7005 35.8372 43.7145C37.8351 43.7889 39.8593 43.9497 41.797 43.2221C43.208 42.6934 44.3196 41.8211 44.8663 40.3859C45.1517 39.6361 45.6482 39.2281 46.3618 38.9105C48.3477 38.0301 50.2914 37.0572 52.2713 36.1628C54.4904 35.1598 56.9025 36.3799 57.0854 38.5768C57.1919 39.8693 56.597 40.8281 55.5557 41.5397C50.9065 44.7196 46.0422 47.5196 40.8804 49.7789C38.997 50.605 37.0392 51.2623 35.1155 51.998H32.9045V52Z" fill="#1DFBED"/>
<path d="M12 31.4971H20.392C20.2633 37.1132 20.1367 42.5845 20.008 48.1805H12V31.4971Z" fill="#1DFBED"/>
</g>
<defs>
<clipPath id="clip0_140_6980">
<rect width="51.0553" height="40" fill="white" transform="translate(12 12)"/>
</clipPath>
</defs>
</svg>
