<svg width="75" height="65" viewBox="0 0 75 65" fill="none" xmlns="http://www.w3.org/2000/svg">
<g clip-path="url(#clip0_140_7022)">
<path d="M14 49.9937C14.5796 49.6097 15.1186 49.1422 15.7411 48.8536C29.2167 42.5666 42.7043 36.2986 56.1895 30.0307C58.1858 29.1029 59.1064 29.6753 59.1064 31.8576C59.1088 37.899 59.1088 43.9404 59.1064 49.9818C59.1064 51.7968 58.701 52.2023 56.8692 52.2023C43.3173 52.2047 29.7629 52.1975 16.211 52.219C15.2641 52.219 14.5104 52.0091 14 51.1815C14 50.7855 14 50.392 14 49.9961L14 49.9937Z" fill="#1DFBED"/>
<path d="M44.424 12.2168C49.8476 12.224 54.2266 16.5791 54.2457 21.9908C54.2648 27.4288 49.8118 31.8412 44.3452 31.803C38.8978 31.7648 34.6022 27.4216 34.6166 21.9694C34.6285 16.5362 38.9788 12.2097 44.424 12.2168Z" fill="#1DFBED"/>
<path d="M22.882 30.51C23.8336 30.8224 24.833 31.1635 25.8395 31.4759C26.8364 31.786 27.3134 32.4371 27.3206 33.4865C27.3373 35.4995 27.4089 37.5101 27.4279 39.5231C27.4422 40.9422 26.7386 41.8009 25.601 41.8295C24.4561 41.8581 23.7311 41.021 23.6905 39.6185C23.6524 38.2376 23.6738 36.8519 23.5474 35.4804C23.514 35.1036 23.1157 34.5789 22.7627 34.4429C21.439 33.9373 20.0652 33.57 18.7129 33.1407C17.6396 32.7996 17.0529 32.1008 17.1769 30.9345C17.4345 28.5041 17.6873 26.0713 17.9783 23.6433C18.1834 21.9285 19.1804 21.1772 20.8475 21.6136C22.7055 22.1002 24.5396 22.2099 26.4548 22.0453C27.7285 21.9356 28.5465 21.2344 29.4576 20.5666C29.8702 20.2637 30.2566 19.9155 30.6931 19.6507C31.4826 19.1689 32.2434 19.2882 32.7848 20.0276C33.2928 20.7192 33.2356 21.5159 32.5701 22.0525C30.6597 23.598 28.8995 25.3296 26.0661 25.1889C23.96 25.0863 23.9505 25.3081 23.4854 27.4022C23.2731 28.3634 23.0537 29.3246 22.8414 30.2834C22.8343 30.3168 22.8534 30.3573 22.8772 30.5076L22.882 30.51Z" fill="#1DFBED"/>
<path d="M17.6706 35.0801C17.9043 35.1039 18.0617 35.092 18.2049 35.1373C19.1756 35.4426 20.1415 35.7574 21.2577 36.1176C20.6018 38.9224 20.0032 41.6796 19.2948 44.4057C19.0492 45.3502 18.0284 45.7723 17.0886 45.4861C16.1275 45.1928 15.6027 44.4606 15.7959 43.5065C16.3612 40.6969 17.0362 37.9112 17.673 35.0825L17.6706 35.0801Z" fill="#1DFBED"/>
<path d="M22.8629 14.4297C24.6923 14.4249 26.1424 15.9013 26.1209 17.7449C26.1019 19.5242 24.6517 20.9648 22.8796 20.9719C21.0646 20.9791 19.6002 19.4813 19.624 17.6448C19.6479 15.8512 21.0741 14.4345 22.8629 14.4297Z" fill="#1DFBED"/>
</g>
<defs>
<clipPath id="clip0_140_7022">
<rect width="45.1088" height="40" fill="white" transform="translate(14 12.2168)"/>
</clipPath>
</defs>
</svg>
