<svg width="75" height="65" viewBox="0 0 75 65" fill="none" xmlns="http://www.w3.org/2000/svg">
<g clip-path="url(#clip0_140_6996)">
<path d="M36.9375 51.0002C25.9523 50.9728 16.9863 41.962 17 30.9631C17.0137 19.9407 26.0636 10.9533 37.1055 11.0002C48.0771 11.0471 57.0391 20.095 56.9942 31.0842C56.9492 42.0733 47.9306 51.0275 36.9375 51.0002ZM29.8913 33.6796C29.5144 33.1465 29.3015 32.8125 29.0555 32.5059C28.5692 31.8985 27.9931 31.3498 27.5869 30.6936C26.9971 29.7425 27.2998 29.1488 28.5145 28.6098C29.5964 28.1313 29.8894 28.2836 30.3425 29.3871C30.4928 29.7542 30.8561 30.0335 31.1236 30.3518C31.4166 30.0335 31.9185 29.7425 31.9634 29.391C32.1997 27.6157 33.4359 26.6861 34.801 25.8952C35.7501 25.3445 36.795 24.9598 37.7988 24.5028C38.9998 23.9579 39.2615 22.9834 38.4901 21.9171C37.5957 20.6789 34.9651 20.7961 34.1956 22.1085C33.5921 23.1377 33.4105 23.165 32.5512 22.3565C32.3852 22.2003 32.2173 22.044 32.0767 21.8663C31.5728 21.2257 31.6841 20.925 32.4751 20.7336C33.0395 20.5969 33.7308 20.6067 34.1292 20.2708C34.5881 19.8841 34.7873 19.1888 35.0998 18.6283C34.5159 18.4721 33.9378 18.2319 33.3441 18.1909C32.8852 18.1577 32.3501 18.5658 31.9536 18.4409C30.8912 18.1069 30.1979 18.5053 29.5769 19.2767C29.1023 19.8665 28.5868 19.9192 27.9853 19.429C27.1357 18.7397 26.2608 18.0815 25.3586 17.3824C23.4994 18.935 22.0152 20.8039 20.9762 23.0049C20.7555 23.4716 20.609 24.1102 20.7418 24.5809C21.0543 25.6921 21.4312 26.8229 22.0054 27.8149C23.6029 30.5744 26.1944 32.1876 28.9852 33.5214C29.1668 33.6093 29.3972 33.5956 29.8913 33.6777V33.6796ZM54.1155 36.2048C57.1797 26.4088 51.2701 16.9156 43.2435 14.2811C42.7553 14.9002 42.3159 15.5466 41.7867 16.1091C40.611 17.3589 40.7379 18.0679 42.1128 18.6635C42.2866 19.6654 42.3608 20.5696 42.6127 21.4191C42.9272 22.4737 43.6498 22.835 44.7297 22.5772C45.3898 22.4209 46.0187 22.1417 46.6748 21.9718C47.6084 21.7316 48.1767 22.2374 47.9657 23.1767C47.8271 23.7997 47.4424 24.3661 47.2939 24.989C47.0967 25.821 46.8487 26.6998 46.9365 27.5259C47.0869 28.9359 47.7607 30.1663 48.7664 31.2072C49.3953 31.8595 50.1237 32.4922 50.5202 33.2793C51.2896 34.8045 52.6059 35.5193 54.1136 36.2048H54.1155ZM33.7484 42.7256C33.5511 44.3543 34.1507 45.7234 35.1955 46.9146C35.4299 47.1822 35.8927 47.5474 36.1056 47.4712C36.4161 47.3599 36.6133 46.8971 36.8242 46.5612C36.9043 46.4342 36.8906 46.2487 36.918 46.0886C37.2676 44.0028 38.0605 42.1143 39.3748 40.4446C39.7126 40.0149 40.0114 39.5423 40.2634 39.056C40.9567 37.7163 40.7477 36.5856 39.656 35.5388C39.0467 34.9549 38.4374 34.3709 37.8339 33.7831C36.6309 32.6133 33.3324 32.3985 32.0103 33.4316C31.7642 33.623 31.5552 33.9003 31.4127 34.1796C30.737 35.5036 31.2193 38.6615 32.4126 39.5423C33.5609 40.3899 33.9944 41.3683 33.7464 42.7217L33.7484 42.7256ZM49.5945 37.771C49.7312 37.5542 50.0886 37.2222 50.1491 36.8414C50.2722 36.068 49.2586 35.0369 48.5028 35.2166C48.1435 35.3025 47.7255 35.8376 47.6435 36.234C47.497 36.9352 48.493 37.7769 49.5945 37.773V37.771Z" fill="#1DFBED"/>
</g>
<defs>
<clipPath id="clip0_140_6996">
<rect width="39.9941" height="40" fill="white" transform="translate(17 11)"/>
</clipPath>
</defs>
</svg>
