<svg width="75" height="65" viewBox="0 0 75 65" fill="none" xmlns="http://www.w3.org/2000/svg">
<path d="M14 26.7184C14 26.0185 14 25.3186 14 24.6188C14.0366 24.3955 14.0732 24.1723 14.1098 23.9482C14.9826 18.6685 17.8671 14.924 22.9162 13.1528C28.0166 11.3633 32.6476 12.4786 36.6382 16.1472C36.8917 16.3804 37.1323 16.6275 37.3784 16.8681C42.6333 10.9517 51.502 11.0248 56.6865 16.117C61.6743 21.017 61.839 28.1145 58.4 33.5487C53.6675 30.5086 48.1143 31.3805 44.5939 34.4883C42.8218 36.0527 41.6123 37.973 41.0451 40.2647C40.2748 43.3762 40.7551 46.3193 42.4302 49.1087C40.8329 50.1489 39.263 51.1598 37.7077 52.1945C37.4424 52.3711 37.2658 52.3445 37.0234 52.178C34.3547 50.3447 31.6321 48.5872 29.0202 46.6779C25.2537 43.9242 21.7516 40.8612 18.8058 37.2137C16.9486 34.9137 15.3961 32.4353 14.5782 29.5663C14.3156 28.6378 14.1894 27.6689 14 26.7184Z" fill="#1DFBED"/>
<path d="M43.4366 43.293C43.2408 38.6464 47.0091 34.6201 51.7554 34.406C56.434 34.1938 60.5481 37.9539 60.7421 42.6187C60.9424 47.4556 57.2592 51.4956 52.4525 51.7115C47.6632 51.9265 43.6424 48.1729 43.4366 43.293ZM50.6804 47.4931C52.9639 45.2105 55.2392 42.9362 57.4888 40.6884C56.8868 40.0882 56.2574 39.4597 55.5832 38.7864C53.9794 40.3947 52.3409 42.0378 50.663 43.7193C49.8598 42.9087 49.073 42.1146 48.3512 41.3864C47.7007 42.0323 47.0713 42.659 46.4574 43.2692C47.8471 44.6589 49.2725 46.0851 50.6804 47.4931Z" fill="#1DFBED"/>
</svg>
