<svg width="170" height="26" viewBox="0 0 170 26" fill="none" xmlns="http://www.w3.org/2000/svg">
<g id="Layer_1" clip-path="url(#clip0_652_2)">
<path id="Vector" d="M0 24.9254V24.2488C0.9384 24.1417 1.6439 23.7898 2.1131 23.188C2.5806 22.5862 3.3864 20.944 4.5271 18.258L12.1346 0.338318H12.8622L21.9606 21.0392C22.5675 22.4111 23.0503 23.2577 23.4141 23.5841C23.7779 23.9088 24.3865 24.1315 25.2416 24.2488V24.9254H15.9562V24.2488C17.0238 24.1536 17.7123 24.038 18.02 23.902C18.3294 23.766 18.4841 23.4311 18.4841 22.899C18.4841 22.7222 18.4246 22.4077 18.3056 21.9589C18.1866 21.5101 18.02 21.0375 17.8058 20.5394L16.3455 17.0272H6.7218C5.7732 19.4174 5.2071 20.8743 5.0235 21.3996C4.8382 21.9266 4.7464 22.3431 4.7464 22.6508C4.7464 23.2662 4.9946 23.6929 5.4944 23.9275C5.8038 24.0703 6.3835 24.1757 7.2386 24.2471V24.9237H0V24.9254ZM15.7267 15.5482L11.5413 5.49272L7.3372 15.5482H15.7267Z" fill="#F7F8F8"/>
<path id="Vector_2" d="M28.6535 19.3103H29.2417C29.5137 20.6669 29.8809 21.7056 30.3433 22.4298C31.1729 23.7609 32.3884 24.4273 33.9898 24.4273C34.8789 24.4273 35.581 24.1808 36.0978 23.6861C36.6129 23.1931 36.8713 22.5539 36.8713 21.7702C36.8713 21.2704 36.7234 20.7893 36.4259 20.3252C36.1284 19.8628 35.6065 19.4106 34.8568 18.9703L32.861 17.8296C31.399 17.0459 30.3229 16.2554 29.6327 15.4581C28.9425 14.6608 28.5991 13.7224 28.5991 12.6395C28.5991 11.3084 29.0734 10.2153 30.0254 9.35851C30.9757 8.50171 32.1708 8.07501 33.6107 8.07501C34.2397 8.07501 34.9316 8.19401 35.6864 8.43201C36.4412 8.67001 36.8662 8.78901 36.9614 8.78901C37.1756 8.78901 37.3303 8.76011 37.4255 8.70061C37.519 8.64111 37.604 8.54591 37.6737 8.41501H38.1021L38.2279 13.3892H37.6754C37.4374 12.2366 37.1161 11.339 36.7132 10.6964C35.9771 9.50811 34.9129 8.91311 33.5223 8.91311C32.6893 8.91311 32.0365 9.16811 31.5605 9.67981C31.0845 10.1915 30.8465 10.7916 30.8465 11.4801C30.8465 12.5732 31.6659 13.549 33.3081 14.4041L35.6609 15.6706C38.1939 17.0493 39.4587 18.6541 39.4587 20.4833C39.4587 21.8858 38.9334 23.0333 37.8845 23.9241C36.8339 24.8166 35.4603 25.262 33.7637 25.262C33.0514 25.262 32.2456 25.143 31.3429 24.905C30.4402 24.667 29.9081 24.548 29.7415 24.548C29.5987 24.548 29.4729 24.599 29.3675 24.6993C29.2604 24.8013 29.1771 24.922 29.1193 25.0648H28.6552V19.3052L28.6535 19.3103Z" fill="#F7F8F8"/>
<path id="Vector_3" d="M43.7767 19.3103H44.3649C44.6369 20.6669 45.0041 21.7056 45.4665 22.4298C46.2961 23.7609 47.5116 24.4273 49.113 24.4273C50.0021 24.4273 50.7042 24.1808 51.221 23.6861C51.7361 23.1931 51.9962 22.5539 51.9962 21.7702C51.9962 21.2704 51.8466 20.7893 51.5508 20.3252C51.2533 19.8628 50.7314 19.4106 49.9817 18.9703L47.9859 17.8296C46.5239 17.0459 45.4478 16.2554 44.7593 15.4581C44.0691 14.6608 43.724 13.7224 43.724 12.6395C43.724 11.3084 44.1983 10.2153 45.1503 9.35851C46.1006 8.50171 47.2957 8.07501 48.7356 8.07501C49.3646 8.07501 50.0565 8.19401 50.8113 8.43201C51.5661 8.67001 51.9911 8.78901 52.0863 8.78901C52.3005 8.78901 52.4552 8.76011 52.5504 8.70061C52.6456 8.64111 52.7289 8.54591 52.8003 8.41501H53.227L53.3528 13.3892H52.8003C52.5623 12.2366 52.241 11.339 51.8381 10.6964C51.1003 9.50811 50.0361 8.91311 48.6455 8.91311C47.8125 8.91311 47.1597 9.16811 46.6837 9.67981C46.2077 10.1915 45.9714 10.7916 45.9714 11.4801C45.9714 12.5732 46.7908 13.549 48.4313 14.4041L50.7841 15.6706C53.3171 17.0493 54.5819 18.6541 54.5819 20.4833C54.5819 21.8858 54.0566 23.0333 53.006 23.9241C51.9554 24.8166 50.5818 25.262 48.8852 25.262C48.1729 25.262 47.3671 25.143 46.4644 24.905C45.5617 24.667 45.0296 24.548 44.863 24.548C44.7202 24.548 44.5944 24.599 44.489 24.6993C44.3819 24.8013 44.2986 24.922 44.2408 25.0648H43.7767V19.3052V19.3103Z" fill="#F7F8F8"/>
<path id="Vector_4" d="M62.6433 8.41669V19.8271C62.6433 20.6363 62.7555 21.284 62.9816 21.7719C63.4219 22.6746 64.2294 23.1268 65.4058 23.1268C66.215 23.1268 67.0055 22.8582 67.7773 22.3244C68.2159 22.0269 68.663 21.6172 69.1135 21.0936V11.3237C69.1135 10.4091 68.935 9.80899 68.5797 9.52339C68.2244 9.23779 67.5087 9.06609 66.4411 9.00659V8.41839H72.199V20.9695C72.199 21.7787 72.3435 22.3346 72.6359 22.6372C72.9266 22.9398 73.542 23.0741 74.4804 23.0384V23.5382C73.8276 23.7167 73.3465 23.851 73.0354 23.9394C72.726 24.0278 72.2092 24.191 71.485 24.429C71.1756 24.5344 70.4973 24.7911 69.4518 25.1957C69.3923 25.1957 69.3566 25.1685 69.3464 25.1141C69.3345 25.0597 69.3294 24.9985 69.3294 24.9254V22.0558C68.5202 23.018 67.7824 23.732 67.1177 24.1944C66.1079 24.9084 65.0369 25.2654 63.9081 25.2654C62.8745 25.2654 61.8987 24.8965 60.9841 24.1587C60.0559 23.4328 59.5935 22.2122 59.5935 20.4986V11.2336C59.5935 10.2901 59.3912 9.65939 58.9866 9.34149C58.7248 9.14089 58.1672 8.99979 57.3104 8.91649V8.41669H62.6416H62.6433Z" fill="#F7F8F8"/>
<path id="Vector_5" d="M76.3232 24.3372C77.4163 24.242 78.1422 24.0499 78.4975 23.7575C78.8545 23.4668 79.0313 22.8463 79.0313 21.8943V13.8533C79.0313 12.6769 78.9225 11.8371 78.7032 11.3305C78.4822 10.8239 78.081 10.5723 77.4996 10.5723C77.3806 10.5723 77.2225 10.5876 77.027 10.6182C76.8315 10.6471 76.6258 10.6862 76.4116 10.7338V10.1456C77.0882 9.90927 77.7801 9.66447 78.4907 9.41457C79.2013 9.16637 79.6943 8.98618 79.9663 8.88078C80.5579 8.65468 81.1699 8.39967 81.7972 8.11407C81.8805 8.11407 81.9298 8.14467 81.9485 8.20417C81.9672 8.26367 81.9757 8.38777 81.9757 8.57817V11.5022C82.739 10.4448 83.4751 9.61858 84.184 9.02358C84.8929 8.42858 85.629 8.13108 86.3923 8.13108C87.0009 8.13108 87.4956 8.31297 87.8764 8.67507C88.2589 9.03887 88.4493 9.49278 88.4493 10.0402C88.4493 10.5264 88.3031 10.9378 88.0124 11.271C87.72 11.6025 87.3545 11.7708 86.9159 11.7708C86.4773 11.7708 86.0098 11.5634 85.5525 11.1469C85.0935 10.7304 84.7348 10.523 84.473 10.523C84.0565 10.523 83.5448 10.8596 82.9396 11.5294C82.3344 12.2009 82.0318 12.8928 82.0318 13.6068V21.6478C82.0318 22.6695 82.2698 23.3801 82.7441 23.7779C83.2184 24.1757 84.0106 24.3627 85.1156 24.3389V24.9271H76.3266V24.3389L76.3232 24.3372Z" fill="#F7F8F8"/>
<path id="Vector_6" d="M102.002 9.93991C103.261 11.0993 103.892 12.7415 103.892 14.8699H92.5701C92.6891 17.6222 93.313 19.6265 94.4435 20.8845C95.5723 22.1425 96.9102 22.7698 98.4538 22.7698C99.7016 22.7698 100.756 22.4434 101.611 21.7906C102.466 21.1378 103.256 20.213 103.982 19.0145L104.606 19.2287C104.118 20.74 103.205 22.1391 101.871 23.426C100.533 24.7112 98.8941 25.3538 96.9578 25.3538C94.724 25.3538 92.9968 24.5106 91.7779 22.8225C90.559 21.1344 89.9504 19.1913 89.9504 16.9915C89.9504 14.6013 90.6576 12.5409 92.072 10.8035C93.4864 9.06951 95.3275 8.20081 97.5987 8.20081C99.2749 8.20081 100.742 8.77881 102.003 9.93821L102.002 9.93991ZM93.4609 11.3033C93.0801 11.9459 92.8064 12.7551 92.6415 13.7292H100.166C100.035 12.5409 99.8087 11.6552 99.4891 11.0738C98.906 10.0283 97.9319 9.50471 96.5651 9.50471C95.1983 9.50471 94.1749 10.1048 93.4626 11.305L93.4609 11.3033Z" fill="#F7F8F8"/>
<path id="Vector_7" d="M108.71 17.5814C109.327 19.2219 110.051 20.5292 110.881 21.5033C112.329 23.2033 114.126 24.0533 116.275 24.0533C117.438 24.0533 118.444 23.6861 119.292 22.9483C120.141 22.2105 120.566 21.1837 120.566 19.8645C120.566 18.6762 120.137 17.6426 119.284 16.762C118.726 16.2027 117.552 15.3646 115.76 14.2477L112.647 12.3046C111.71 11.7096 110.961 11.1112 110.403 10.5043C109.37 9.3517 108.853 8.0801 108.853 6.6895C108.853 4.8467 109.463 3.3133 110.689 2.0893C111.913 0.865296 113.535 0.253296 115.556 0.253296C116.389 0.253296 117.388 0.457296 118.56 0.866996C119.731 1.2784 120.399 1.4824 120.566 1.4824C121.018 1.4824 121.329 1.3753 121.501 1.1611C121.674 0.946896 121.807 0.644296 121.902 0.253296H122.65L123.452 8.0257H122.579C121.984 5.6848 121.03 4.0494 119.717 3.1246C118.403 2.1964 117.105 1.734 115.821 1.734C114.823 1.734 113.953 2.0281 113.21 2.6163C112.467 3.2045 112.095 4.0222 112.095 5.0677C112.095 6.0078 112.38 6.8102 112.95 7.4749C113.519 8.1515 114.403 8.8604 115.603 9.5965L118.81 11.5753C120.817 12.8112 122.232 13.9468 123.055 14.9821C123.867 16.0276 124.273 17.2635 124.273 18.6898C124.273 20.604 123.551 22.202 122.106 23.4872C120.664 24.7707 118.818 25.4133 116.571 25.4133C115.442 25.4133 114.262 25.1991 113.031 24.7707C111.802 24.3423 111.097 24.1281 110.918 24.1281C110.492 24.1281 110.203 24.259 110.055 24.5191C109.907 24.7809 109.808 25.0597 109.761 25.3572H108.958L107.872 17.5848H108.71V17.5814Z" fill="#F7F8F8"/>
<path id="Vector_8" d="M130.759 10.6522C132.262 9.01851 134.196 8.20251 136.561 8.20251C138.926 8.20251 140.864 8.97431 142.409 10.5196C143.954 12.0649 144.726 14.1202 144.726 16.6889C144.726 19.0553 143.978 21.1106 142.48 22.8582C140.983 24.6058 139.045 25.4796 136.668 25.4796C134.291 25.4796 132.454 24.6415 130.874 22.9653C129.293 21.2891 128.503 19.1862 128.503 16.6549C128.503 14.2902 129.254 12.2893 130.759 10.6539V10.6522ZM133.606 10.1983C132.415 11.2795 131.821 13.1461 131.821 15.7981C131.821 17.9129 132.299 19.8866 133.258 21.7175C134.217 23.5484 135.548 24.463 137.251 24.463C138.584 24.463 139.612 23.851 140.332 22.6253C141.052 21.403 141.411 19.7965 141.411 17.8126C141.411 15.8287 140.952 13.8176 140.036 12.0003C139.119 10.1813 137.792 9.27181 136.054 9.27181C135.113 9.27181 134.297 9.58121 133.606 10.2V10.1983Z" fill="#F7F8F8"/>
<path id="Vector_9" d="M147.461 24.4273C148.719 24.3678 149.551 24.1332 149.948 23.7218C150.346 23.3121 150.547 22.4468 150.547 21.1276V9.6815H147.497V8.4864H150.547C150.547 6.6079 150.802 5.0218 151.314 3.7264C152.289 1.241 154.083 0 156.691 0C157.74 0 158.675 0.2074 159.504 0.6239C160.332 1.0404 160.745 1.5997 160.745 2.3001C160.745 2.6928 160.604 3.0447 160.318 3.3524C160.035 3.6618 159.693 3.8165 159.29 3.8165C158.948 3.8165 158.652 3.7128 158.404 3.5037C158.156 3.2963 157.86 2.9308 157.519 2.4072L157.216 1.9431C157.051 1.6949 156.856 1.4824 156.631 1.3107C156.405 1.1373 156.094 1.0523 155.691 1.0523C154.792 1.0523 154.183 1.4977 153.862 2.3885C153.687 2.8645 153.597 3.4884 153.597 4.2602V8.4864H158.035V9.6815H153.597V21.1276C153.597 22.4706 153.779 23.3308 154.141 23.7048C154.503 24.0805 155.451 24.3202 156.985 24.4273V24.9254H147.465V24.4273H147.461Z" fill="#F7F8F8"/>
<path id="Vector_10" d="M169.109 8.48639V9.76989H165.473L165.437 20.0413C165.437 20.944 165.514 21.6274 165.668 22.0915C165.954 22.9109 166.512 23.3223 167.345 23.3223C167.771 23.3223 168.144 23.222 168.46 23.0197C168.776 22.8174 169.133 22.4961 169.539 22.0575L170.002 22.4485L169.611 22.984C168.99 23.8153 168.337 24.4035 167.649 24.7486C166.959 25.0937 166.294 25.2671 165.651 25.2671C164.251 25.2671 163.3 24.6432 162.799 23.3937C162.525 22.7171 162.389 21.777 162.389 20.5768V9.77159H160.444C160.385 9.73589 160.341 9.70019 160.312 9.66449C160.283 9.62879 160.268 9.58119 160.268 9.52169C160.268 9.40269 160.295 9.31089 160.347 9.24459C160.4 9.17999 160.57 9.02699 160.856 8.78899C161.675 8.11239 162.268 7.56329 162.631 7.13999C162.993 6.71839 163.846 5.60319 165.189 3.79779C165.342 3.79779 165.436 3.80969 165.466 3.83349C165.495 3.85729 165.509 3.94569 165.509 4.10039V8.48639H169.111H169.109Z" fill="#F7F8F8"/>
</g>
<defs>
<clipPath id="clip0_652_2">
<rect width="170" height="25.4796" fill="white"/>
</clipPath>
</defs>
</svg>
