<svg width="884" height="707" viewBox="0 0 884 707" fill="none" xmlns="http://www.w3.org/2000/svg">
<g opacity="0.3">
<path d="M883.681 1.09343H0.319195C0.143863 1.09343 0 0.94944 0 0.77395C0 0.59846 0.143863 0.454468 0.319195 0.454468H883.681C883.856 0.454468 884 0.59846 884 0.77395C884 0.94944 883.856 1.09343 883.681 1.09343Z" fill="url(#paint0_linear_2_4)"/>
<path d="M883.681 43.31H0.319195C0.143863 43.31 0 43.1661 0 42.9906C0 42.8151 0.143863 42.6711 0.319195 42.6711H883.681C883.856 42.6711 884 42.8151 884 42.9906C884 43.1661 883.856 43.31 883.681 43.31Z" fill="url(#paint1_linear_2_4)"/>
<path d="M883.681 85.5266H0.319195C0.143863 85.5266 0 85.3826 0 85.2071C0 85.0317 0.143863 84.8877 0.319195 84.8877H883.681C883.856 84.8877 884 85.0317 884 85.2071C884 85.3826 883.856 85.5266 883.681 85.5266Z" fill="url(#paint2_linear_2_4)"/>
<path d="M883.681 127.743H0.319195C0.143863 127.743 0 127.599 0 127.424C0 127.248 0.143863 127.104 0.319195 127.104H883.681C883.856 127.104 884 127.248 884 127.424C884 127.599 883.856 127.743 883.681 127.743Z" fill="url(#paint3_linear_2_4)"/>
<path d="M883.681 169.955H0.319195C0.143863 169.955 0 169.811 0 169.636C0 169.46 0.143863 169.316 0.319195 169.316H883.681C883.856 169.316 884 169.46 884 169.636C884 169.811 883.856 169.955 883.681 169.955Z" fill="url(#paint4_linear_2_4)"/>
<path d="M883.681 212.172H0.319195C0.143863 212.172 0 212.028 0 211.852C0 211.677 0.143863 211.533 0.319195 211.533H883.681C883.856 211.533 884 211.677 884 211.852C884 212.028 883.856 212.172 883.681 212.172Z" fill="url(#paint5_linear_2_4)"/>
<path d="M883.681 254.389H0.319195C0.143863 254.389 0 254.245 0 254.069C0 253.894 0.143863 253.75 0.319195 253.75H883.681C883.856 253.75 884 253.894 884 254.069C884 254.245 883.856 254.389 883.681 254.389Z" fill="url(#paint6_linear_2_4)"/>
<path d="M883.681 296.605H0.319195C0.143863 296.605 0 296.461 0 296.286C0 296.11 0.143863 295.966 0.319195 295.966H883.681C883.856 295.966 884 296.11 884 296.286C884 296.461 883.856 296.605 883.681 296.605Z" fill="url(#paint7_linear_2_4)"/>
<path d="M883.681 338.822H0.319195C0.143863 338.822 0 338.678 0 338.502C0 338.327 0.143863 338.183 0.319195 338.183H883.681C883.856 338.183 884 338.327 884 338.502C884 338.678 883.856 338.822 883.681 338.822Z" fill="url(#paint8_linear_2_4)"/>
<path d="M883.681 381.038H0.319195C0.143863 381.038 0 380.894 0 380.719C0 380.543 0.143863 380.399 0.319195 380.399H883.681C883.856 380.399 884 380.543 884 380.719C884 380.894 883.856 381.038 883.681 381.038Z" fill="url(#paint9_linear_2_4)"/>
<path d="M883.681 423.255H0.319195C0.143863 423.255 0 423.111 0 422.935C0 422.76 0.143863 422.616 0.319195 422.616H883.681C883.856 422.616 884 422.76 884 422.935C884 423.111 883.856 423.255 883.681 423.255Z" fill="url(#paint10_linear_2_4)"/>
<path d="M883.681 465.467H0.319195C0.143863 465.467 0 465.323 0 465.147C0 464.972 0.143863 464.828 0.319195 464.828H883.681C883.856 464.828 884 464.972 884 465.147C884 465.323 883.856 465.467 883.681 465.467Z" fill="url(#paint11_linear_2_4)"/>
<path d="M883.681 507.684H0.319195C0.143863 507.684 0 507.54 0 507.364C0 507.189 0.143863 507.045 0.319195 507.045H883.681C883.856 507.045 884 507.189 884 507.364C884 507.54 883.856 507.684 883.681 507.684Z" fill="url(#paint12_linear_2_4)"/>
<path d="M883.681 549.9H0.319195C0.143863 549.9 0 549.756 0 549.581C0 549.405 0.143863 549.261 0.319195 549.261H883.681C883.856 549.261 884 549.405 884 549.581C884 549.756 883.856 549.9 883.681 549.9Z" fill="url(#paint13_linear_2_4)"/>
<path d="M883.681 592.117H0.319195C0.143863 592.117 0 591.973 0 591.797C0 591.622 0.143863 591.478 0.319195 591.478H883.681C883.856 591.478 884 591.622 884 591.797C884 591.973 883.856 592.117 883.681 592.117Z" fill="url(#paint14_linear_2_4)"/>
<path d="M883.681 634.333H0.319195C0.143863 634.333 0 634.189 0 634.014C0 633.838 0.143863 633.694 0.319195 633.694H883.681C883.856 633.694 884 633.838 884 634.014C884 634.189 883.856 634.333 883.681 634.333Z" fill="url(#paint15_linear_2_4)"/>
<path d="M883.681 676.55H0.319195C0.143863 676.55 0 676.406 0 676.23C0 676.055 0.143863 675.911 0.319195 675.911H883.681C883.856 675.911 884 676.055 884 676.23C884 676.406 883.856 676.55 883.681 676.55Z" fill="url(#paint16_linear_2_4)"/>
<path d="M0.319195 707C0.143863 707 0 706.85 0 706.666V0.333639C0 0.150373 0.143863 0 0.319195 0C0.494528 0 0.63839 0.150373 0.63839 0.333639V706.666C0.63839 706.85 0.494528 707 0.319195 707Z" fill="url(#paint17_linear_2_4)"/>
<path d="M39.5802 707C39.4049 707 39.261 706.85 39.261 706.666V0.333639C39.261 0.150373 39.4049 0 39.5802 0C39.7555 0 39.8994 0.150373 39.8994 0.333639V706.666C39.8994 706.85 39.7555 707 39.5802 707Z" fill="url(#paint18_linear_2_4)"/>
<path d="M78.8367 707C78.6614 707 78.5175 706.85 78.5175 706.666V0.333639C78.5175 0.150373 78.6614 0 78.8367 0C79.0121 0 79.1559 0.150373 79.1559 0.333639V706.666C79.1559 706.85 79.0121 707 78.8367 707Z" fill="url(#paint19_linear_2_4)"/>
<path d="M118.093 707C117.918 707 117.774 706.85 117.774 706.666V0.333639C117.774 0.150373 117.918 0 118.093 0C118.269 0 118.412 0.150373 118.412 0.333639V706.666C118.412 706.85 118.269 707 118.093 707Z" fill="url(#paint20_linear_2_4)"/>
<path d="M157.35 707C157.174 707 157.031 706.85 157.031 706.666V0.333639C157.031 0.150373 157.174 0 157.35 0C157.525 0 157.669 0.150373 157.669 0.333639V706.666C157.669 706.85 157.525 707 157.35 707Z" fill="url(#paint21_linear_2_4)"/>
<path d="M196.611 707C196.435 707 196.292 706.85 196.292 706.666V0.333639C196.292 0.150373 196.435 0 196.611 0C196.786 0 196.93 0.150373 196.93 0.333639V706.666C196.93 706.85 196.786 707 196.611 707Z" fill="url(#paint22_linear_2_4)"/>
<path d="M235.867 707C235.692 707 235.548 706.85 235.548 706.666V0.333639C235.548 0.150373 235.692 0 235.867 0C236.043 0 236.187 0.150373 236.187 0.333639V706.666C236.187 706.85 236.043 707 235.867 707Z" fill="url(#paint23_linear_2_4)"/>
<path d="M275.124 707C274.948 707 274.805 706.85 274.805 706.666V0.333639C274.805 0.150373 274.948 0 275.124 0C275.299 0 275.443 0.150373 275.443 0.333639V706.666C275.443 706.85 275.299 707 275.124 707Z" fill="url(#paint24_linear_2_4)"/>
<path d="M314.385 707C314.209 707 314.066 706.85 314.066 706.666V0.333639C314.066 0.150373 314.209 0 314.385 0C314.56 0 314.704 0.150373 314.704 0.333639V706.666C314.704 706.85 314.56 707 314.385 707Z" fill="url(#paint25_linear_2_4)"/>
<path d="M353.641 707C353.466 707 353.322 706.85 353.322 706.666V0.333639C353.322 0.150373 353.466 0 353.641 0C353.817 0 353.961 0.150373 353.961 0.333639V706.666C353.961 706.85 353.817 707 353.641 707Z" fill="url(#paint26_linear_2_4)"/>
<path d="M392.898 707C392.723 707 392.579 706.85 392.579 706.666V0.333639C392.579 0.150373 392.723 0 392.898 0C393.073 0 393.217 0.150373 393.217 0.333639V706.666C393.217 706.85 393.073 707 392.898 707Z" fill="url(#paint27_linear_2_4)"/>
<path d="M432.159 707C431.984 707 431.84 706.85 431.84 706.666V0.333639C431.84 0.150373 431.984 0 432.159 0C432.334 0 432.478 0.150373 432.478 0.333639V706.666C432.478 706.85 432.334 707 432.159 707Z" fill="url(#paint28_linear_2_4)"/>
<path d="M471.415 707C471.24 707 471.096 706.85 471.096 706.666V0.333639C471.096 0.150373 471.24 0 471.415 0C471.591 0 471.735 0.150373 471.735 0.333639V706.666C471.735 706.85 471.591 707 471.415 707Z" fill="url(#paint29_linear_2_4)"/>
<path d="M510.672 707C510.497 707 510.353 706.85 510.353 706.666V0.333639C510.353 0.150373 510.497 0 510.672 0C510.847 0 510.991 0.150373 510.991 0.333639V706.666C510.991 706.85 510.847 707 510.672 707Z" fill="url(#paint30_linear_2_4)"/>
<path d="M549.928 707C549.753 707 549.609 706.85 549.609 706.666V0.333639C549.609 0.150373 549.753 0 549.928 0C550.104 0 550.248 0.150373 550.248 0.333639V706.666C550.248 706.85 550.104 707 549.928 707Z" fill="url(#paint31_linear_2_4)"/>
<path d="M589.189 707C589.014 707 588.87 706.85 588.87 706.666V0.333639C588.87 0.150373 589.014 0 589.189 0C589.365 0 589.509 0.150373 589.509 0.333639V706.666C589.509 706.85 589.365 707 589.189 707Z" fill="url(#paint32_linear_2_4)"/>
<path d="M628.446 707C628.271 707 628.127 706.85 628.127 706.666V0.333639C628.127 0.150373 628.271 0 628.446 0C628.621 0 628.765 0.150373 628.765 0.333639V706.666C628.765 706.85 628.621 707 628.446 707Z" fill="url(#paint33_linear_2_4)"/>
<path d="M667.703 707C667.527 707 667.383 706.85 667.383 706.666V0.333639C667.383 0.150373 667.527 0 667.703 0C667.878 0 668.022 0.150373 668.022 0.333639V706.666C668.022 706.85 667.878 707 667.703 707Z" fill="url(#paint34_linear_2_4)"/>
<path d="M706.964 707C706.788 707 706.644 706.85 706.644 706.666V0.333639C706.644 0.150373 706.788 0 706.964 0C707.139 0 707.283 0.150373 707.283 0.333639V706.666C707.283 706.85 707.139 707 706.964 707Z" fill="url(#paint35_linear_2_4)"/>
<path d="M746.22 707C746.045 707 745.901 706.85 745.901 706.666V0.333639C745.901 0.150373 746.045 0 746.22 0C746.395 0 746.539 0.150373 746.539 0.333639V706.666C746.539 706.85 746.395 707 746.22 707Z" fill="url(#paint36_linear_2_4)"/>
<path d="M785.477 707C785.301 707 785.157 706.85 785.157 706.666V0.333639C785.157 0.150373 785.301 0 785.477 0C785.652 0 785.796 0.150373 785.796 0.333639V706.666C785.796 706.85 785.652 707 785.477 707Z" fill="url(#paint37_linear_2_4)"/>
<path d="M824.738 707C824.562 707 824.418 706.85 824.418 706.666V0.333639C824.418 0.150373 824.562 0 824.738 0C824.913 0 825.057 0.150373 825.057 0.333639V706.666C825.057 706.85 824.913 707 824.738 707Z" fill="url(#paint38_linear_2_4)"/>
<path d="M863.994 707C863.819 707 863.675 706.85 863.675 706.666V0.333639C863.675 0.150373 863.819 0 863.994 0C864.169 0 864.313 0.150373 864.313 0.333639V706.666C864.313 706.85 864.169 707 863.994 707Z" fill="url(#paint39_linear_2_4)"/>
</g>
<path d="M282.29 706.57C172.95 706.57 84 617.62 84 508.29C84 398.96 172.95 310 282.29 310C391.63 310 480.58 398.95 480.58 508.29C480.58 617.63 391.63 706.58 282.29 706.58V706.57ZM282.29 319.4C178.13 319.4 93.4 404.13 93.4 508.29C93.4 612.45 178.14 697.18 282.29 697.18C386.44 697.18 471.18 612.44 471.18 508.29C471.18 404.14 386.44 319.4 282.29 319.4Z" fill="#5E9CD1"/>
<g opacity="0.2" clip-path="url(#clip0_2_4)">
<path d="M565.003 287C503.794 287 454 237.206 454 176.003C454 114.8 503.794 65 565.003 65C626.211 65 676.006 114.794 676.006 176.003C676.006 237.211 626.211 287.006 565.003 287.006V287ZM565.003 70.2621C506.694 70.2621 459.262 117.694 459.262 176.003C459.262 234.312 506.7 281.743 565.003 281.743C623.306 281.743 670.743 234.306 670.743 176.003C670.743 117.7 623.306 70.2621 565.003 70.2621Z" fill="#F7F8F8"/>
</g>
<defs>
<linearGradient id="paint0_linear_2_4" x1="442" y1="0.454468" x2="442" y2="1.09343" gradientUnits="userSpaceOnUse">
<stop stop-color="#496886"/>
<stop offset="0.495" stop-color="#363942"/>
<stop offset="1" stop-color="#5E9CD1"/>
</linearGradient>
<linearGradient id="paint1_linear_2_4" x1="442" y1="42.6711" x2="442" y2="43.31" gradientUnits="userSpaceOnUse">
<stop stop-color="#496886"/>
<stop offset="0.495" stop-color="#363942"/>
<stop offset="1" stop-color="#5E9CD1"/>
</linearGradient>
<linearGradient id="paint2_linear_2_4" x1="442" y1="84.8877" x2="442" y2="85.5266" gradientUnits="userSpaceOnUse">
<stop stop-color="#496886"/>
<stop offset="0.495" stop-color="#363942"/>
<stop offset="1" stop-color="#5E9CD1"/>
</linearGradient>
<linearGradient id="paint3_linear_2_4" x1="442" y1="127.104" x2="442" y2="127.743" gradientUnits="userSpaceOnUse">
<stop stop-color="#496886"/>
<stop offset="0.495" stop-color="#363942"/>
<stop offset="1" stop-color="#5E9CD1"/>
</linearGradient>
<linearGradient id="paint4_linear_2_4" x1="442" y1="169.316" x2="442" y2="169.955" gradientUnits="userSpaceOnUse">
<stop stop-color="#496886"/>
<stop offset="0.495" stop-color="#363942"/>
<stop offset="1" stop-color="#5E9CD1"/>
</linearGradient>
<linearGradient id="paint5_linear_2_4" x1="442" y1="211.533" x2="442" y2="212.172" gradientUnits="userSpaceOnUse">
<stop stop-color="#496886"/>
<stop offset="0.495" stop-color="#363942"/>
<stop offset="1" stop-color="#5E9CD1"/>
</linearGradient>
<linearGradient id="paint6_linear_2_4" x1="442" y1="253.75" x2="442" y2="254.389" gradientUnits="userSpaceOnUse">
<stop stop-color="#496886"/>
<stop offset="0.495" stop-color="#363942"/>
<stop offset="1" stop-color="#5E9CD1"/>
</linearGradient>
<linearGradient id="paint7_linear_2_4" x1="442" y1="295.966" x2="442" y2="296.605" gradientUnits="userSpaceOnUse">
<stop stop-color="#496886"/>
<stop offset="0.495" stop-color="#363942"/>
<stop offset="1" stop-color="#5E9CD1"/>
</linearGradient>
<linearGradient id="paint8_linear_2_4" x1="442" y1="338.183" x2="442" y2="338.822" gradientUnits="userSpaceOnUse">
<stop stop-color="#496886"/>
<stop offset="0.495" stop-color="#363942"/>
<stop offset="1" stop-color="#5E9CD1"/>
</linearGradient>
<linearGradient id="paint9_linear_2_4" x1="442" y1="380.399" x2="442" y2="381.038" gradientUnits="userSpaceOnUse">
<stop stop-color="#496886"/>
<stop offset="0.495" stop-color="#363942"/>
<stop offset="1" stop-color="#5E9CD1"/>
</linearGradient>
<linearGradient id="paint10_linear_2_4" x1="442" y1="422.616" x2="442" y2="423.255" gradientUnits="userSpaceOnUse">
<stop stop-color="#496886"/>
<stop offset="0.495" stop-color="#363942"/>
<stop offset="1" stop-color="#5E9CD1"/>
</linearGradient>
<linearGradient id="paint11_linear_2_4" x1="442" y1="464.828" x2="442" y2="465.467" gradientUnits="userSpaceOnUse">
<stop stop-color="#496886"/>
<stop offset="0.495" stop-color="#363942"/>
<stop offset="1" stop-color="#5E9CD1"/>
</linearGradient>
<linearGradient id="paint12_linear_2_4" x1="442" y1="507.045" x2="442" y2="507.684" gradientUnits="userSpaceOnUse">
<stop stop-color="#496886"/>
<stop offset="0.495" stop-color="#363942"/>
<stop offset="1" stop-color="#5E9CD1"/>
</linearGradient>
<linearGradient id="paint13_linear_2_4" x1="442" y1="549.261" x2="442" y2="549.9" gradientUnits="userSpaceOnUse">
<stop stop-color="#496886"/>
<stop offset="0.495" stop-color="#363942"/>
<stop offset="1" stop-color="#5E9CD1"/>
</linearGradient>
<linearGradient id="paint14_linear_2_4" x1="442" y1="591.478" x2="442" y2="592.117" gradientUnits="userSpaceOnUse">
<stop stop-color="#496886"/>
<stop offset="0.495" stop-color="#363942"/>
<stop offset="1" stop-color="#5E9CD1"/>
</linearGradient>
<linearGradient id="paint15_linear_2_4" x1="442" y1="633.694" x2="442" y2="634.333" gradientUnits="userSpaceOnUse">
<stop stop-color="#496886"/>
<stop offset="0.495" stop-color="#363942"/>
<stop offset="1" stop-color="#5E9CD1"/>
</linearGradient>
<linearGradient id="paint16_linear_2_4" x1="442" y1="675.911" x2="442" y2="676.55" gradientUnits="userSpaceOnUse">
<stop stop-color="#496886"/>
<stop offset="0.495" stop-color="#363942"/>
<stop offset="1" stop-color="#5E9CD1"/>
</linearGradient>
<linearGradient id="paint17_linear_2_4" x1="0.319195" y1="0" x2="0.319195" y2="707" gradientUnits="userSpaceOnUse">
<stop stop-color="#496886"/>
<stop offset="0.495" stop-color="#363942"/>
<stop offset="1" stop-color="#5E9CD1"/>
</linearGradient>
<linearGradient id="paint18_linear_2_4" x1="39.5802" y1="0" x2="39.5802" y2="707" gradientUnits="userSpaceOnUse">
<stop stop-color="#496886"/>
<stop offset="0.495" stop-color="#363942"/>
<stop offset="1" stop-color="#5E9CD1"/>
</linearGradient>
<linearGradient id="paint19_linear_2_4" x1="78.8367" y1="0" x2="78.8367" y2="707" gradientUnits="userSpaceOnUse">
<stop stop-color="#496886"/>
<stop offset="0.495" stop-color="#363942"/>
<stop offset="1" stop-color="#5E9CD1"/>
</linearGradient>
<linearGradient id="paint20_linear_2_4" x1="118.093" y1="0" x2="118.093" y2="707" gradientUnits="userSpaceOnUse">
<stop stop-color="#496886"/>
<stop offset="0.495" stop-color="#363942"/>
<stop offset="1" stop-color="#5E9CD1"/>
</linearGradient>
<linearGradient id="paint21_linear_2_4" x1="157.35" y1="0" x2="157.35" y2="707" gradientUnits="userSpaceOnUse">
<stop stop-color="#496886"/>
<stop offset="0.495" stop-color="#363942"/>
<stop offset="1" stop-color="#5E9CD1"/>
</linearGradient>
<linearGradient id="paint22_linear_2_4" x1="196.611" y1="0" x2="196.611" y2="707" gradientUnits="userSpaceOnUse">
<stop stop-color="#496886"/>
<stop offset="0.495" stop-color="#363942"/>
<stop offset="1" stop-color="#5E9CD1"/>
</linearGradient>
<linearGradient id="paint23_linear_2_4" x1="235.867" y1="0" x2="235.867" y2="707" gradientUnits="userSpaceOnUse">
<stop stop-color="#496886"/>
<stop offset="0.495" stop-color="#363942"/>
<stop offset="1" stop-color="#5E9CD1"/>
</linearGradient>
<linearGradient id="paint24_linear_2_4" x1="275.124" y1="0" x2="275.124" y2="707" gradientUnits="userSpaceOnUse">
<stop stop-color="#496886"/>
<stop offset="0.495" stop-color="#363942"/>
<stop offset="1" stop-color="#5E9CD1"/>
</linearGradient>
<linearGradient id="paint25_linear_2_4" x1="314.385" y1="0" x2="314.385" y2="707" gradientUnits="userSpaceOnUse">
<stop stop-color="#496886"/>
<stop offset="0.495" stop-color="#363942"/>
<stop offset="1" stop-color="#5E9CD1"/>
</linearGradient>
<linearGradient id="paint26_linear_2_4" x1="353.641" y1="0" x2="353.641" y2="707" gradientUnits="userSpaceOnUse">
<stop stop-color="#496886"/>
<stop offset="0.495" stop-color="#363942"/>
<stop offset="1" stop-color="#5E9CD1"/>
</linearGradient>
<linearGradient id="paint27_linear_2_4" x1="392.898" y1="0" x2="392.898" y2="707" gradientUnits="userSpaceOnUse">
<stop stop-color="#496886"/>
<stop offset="0.495" stop-color="#363942"/>
<stop offset="1" stop-color="#5E9CD1"/>
</linearGradient>
<linearGradient id="paint28_linear_2_4" x1="432.159" y1="0" x2="432.159" y2="707" gradientUnits="userSpaceOnUse">
<stop stop-color="#496886"/>
<stop offset="0.495" stop-color="#363942"/>
<stop offset="1" stop-color="#5E9CD1"/>
</linearGradient>
<linearGradient id="paint29_linear_2_4" x1="471.415" y1="0" x2="471.415" y2="707" gradientUnits="userSpaceOnUse">
<stop stop-color="#496886"/>
<stop offset="0.495" stop-color="#363942"/>
<stop offset="1" stop-color="#5E9CD1"/>
</linearGradient>
<linearGradient id="paint30_linear_2_4" x1="510.672" y1="0" x2="510.672" y2="707" gradientUnits="userSpaceOnUse">
<stop stop-color="#496886"/>
<stop offset="0.495" stop-color="#363942"/>
<stop offset="1" stop-color="#5E9CD1"/>
</linearGradient>
<linearGradient id="paint31_linear_2_4" x1="549.928" y1="0" x2="549.928" y2="707" gradientUnits="userSpaceOnUse">
<stop stop-color="#496886"/>
<stop offset="0.495" stop-color="#363942"/>
<stop offset="1" stop-color="#5E9CD1"/>
</linearGradient>
<linearGradient id="paint32_linear_2_4" x1="589.189" y1="0" x2="589.189" y2="707" gradientUnits="userSpaceOnUse">
<stop stop-color="#496886"/>
<stop offset="0.495" stop-color="#363942"/>
<stop offset="1" stop-color="#5E9CD1"/>
</linearGradient>
<linearGradient id="paint33_linear_2_4" x1="628.446" y1="0" x2="628.446" y2="707" gradientUnits="userSpaceOnUse">
<stop stop-color="#496886"/>
<stop offset="0.495" stop-color="#363942"/>
<stop offset="1" stop-color="#5E9CD1"/>
</linearGradient>
<linearGradient id="paint34_linear_2_4" x1="667.703" y1="0" x2="667.703" y2="707" gradientUnits="userSpaceOnUse">
<stop stop-color="#496886"/>
<stop offset="0.495" stop-color="#363942"/>
<stop offset="1" stop-color="#5E9CD1"/>
</linearGradient>
<linearGradient id="paint35_linear_2_4" x1="706.963" y1="0" x2="706.963" y2="707" gradientUnits="userSpaceOnUse">
<stop stop-color="#496886"/>
<stop offset="0.495" stop-color="#363942"/>
<stop offset="1" stop-color="#5E9CD1"/>
</linearGradient>
<linearGradient id="paint36_linear_2_4" x1="746.22" y1="0" x2="746.22" y2="707" gradientUnits="userSpaceOnUse">
<stop stop-color="#496886"/>
<stop offset="0.495" stop-color="#363942"/>
<stop offset="1" stop-color="#5E9CD1"/>
</linearGradient>
<linearGradient id="paint37_linear_2_4" x1="785.477" y1="0" x2="785.477" y2="707" gradientUnits="userSpaceOnUse">
<stop stop-color="#496886"/>
<stop offset="0.495" stop-color="#363942"/>
<stop offset="1" stop-color="#5E9CD1"/>
</linearGradient>
<linearGradient id="paint38_linear_2_4" x1="824.738" y1="0" x2="824.738" y2="707" gradientUnits="userSpaceOnUse">
<stop stop-color="#496886"/>
<stop offset="0.495" stop-color="#363942"/>
<stop offset="1" stop-color="#5E9CD1"/>
</linearGradient>
<linearGradient id="paint39_linear_2_4" x1="863.994" y1="0" x2="863.994" y2="707" gradientUnits="userSpaceOnUse">
<stop stop-color="#496886"/>
<stop offset="0.495" stop-color="#363942"/>
<stop offset="1" stop-color="#5E9CD1"/>
</linearGradient>
<clipPath id="clip0_2_4">
<rect width="222" height="222" fill="white" transform="translate(454 65)"/>
</clipPath>
</defs>
</svg>
