<svg width="70" height="86" viewBox="0 0 70 86" fill="none" xmlns="http://www.w3.org/2000/svg">
<g id="Layer_1">
<path id="Vector" d="M41.0727 70.1263C41.5515 71.2281 42.0053 72.2737 42.4597 73.3188C42.9665 74.484 43.4775 75.6476 43.976 76.8163C44.0441 76.9753 44.1318 77.0054 44.2866 77.0116C44.9414 77.0387 45.6107 77.0044 46.2464 77.1327C48.0015 77.4864 49.3896 79.1632 49.4498 80.9449C49.4857 82.0077 49.4836 83.0726 49.4826 84.1364C49.4815 84.993 48.9539 85.5 48.0966 85.5C39.3731 85.5 30.6501 85.5 21.9266 85.5C21.0178 85.5 20.5214 85.0003 20.5204 84.0829C20.5193 83.1308 20.5162 82.1786 20.5209 81.226C20.5323 79.0567 22.2013 77.2132 24.3423 77.0236C24.8149 76.9815 25.2937 77.0184 25.7688 77.0002C25.856 76.9971 25.9853 76.9223 26.0181 76.847C26.9803 74.6538 27.9332 72.4566 28.8871 70.2598C28.9001 70.2297 28.9074 70.1969 28.9297 70.1263C28.8014 70.1263 28.6934 70.1263 28.5859 70.1263C21.3684 70.1263 14.1508 70.145 6.93323 70.1164C4.25683 70.106 2.24563 68.8438 0.888734 66.5535C0.27286 65.5136 0.00386978 64.3671 0.00386978 63.1558C0.00542764 52.0488 -0.0127474 40.9424 0.0184098 29.8355C0.0251605 27.4304 1.15201 25.5427 3.13517 24.1896C4.34199 23.3662 5.69577 23.0021 7.15705 23.0296C7.76253 23.0411 8.36906 23.0208 8.97403 23.0374C9.18797 23.0431 9.23783 22.9595 9.24873 22.772C9.35674 20.9752 10.6357 19.5285 12.4081 19.2272C12.8048 19.1597 13.2171 19.1732 13.6222 19.1665C14.1846 19.1571 14.7475 19.1571 15.3098 19.1685C15.4828 19.1722 15.5705 19.1249 15.6334 18.9566C15.7871 18.5436 15.9543 18.1348 16.1386 17.7343C16.2072 17.5852 16.1771 17.5063 16.0716 17.4019C15.5228 16.8611 14.9811 16.3136 14.4359 15.7692C12.985 14.32 12.9736 11.8547 14.4188 10.4038C15.9823 8.83352 17.549 7.26685 19.1183 5.70278C20.6045 4.2213 23.0545 4.22909 24.5417 5.71524C25.0745 6.24768 25.6109 6.77597 26.1359 7.31568C26.2559 7.43931 26.3488 7.47099 26.5124 7.39567C26.905 7.21594 27.3054 7.05179 27.7094 6.89804C27.8641 6.83882 27.9145 6.75778 27.9124 6.59468C27.9041 5.86744 27.9093 5.14021 27.9088 4.41298C27.9072 2.19284 29.5939 0.501501 31.8138 0.500462C33.986 0.500462 36.1582 0.499423 38.3303 0.500462C40.4189 0.501501 42.1294 2.19699 42.1487 4.28987C42.1559 5.06021 42.1466 5.83108 42.157 6.60091C42.158 6.68974 42.2182 6.82635 42.2884 6.85752C42.7692 7.07153 43.2594 7.26373 43.7704 7.47255C44.3266 6.91258 44.8848 6.34586 45.4477 5.78433C46.6488 4.58595 48.3313 4.26545 49.8658 4.97918C50.2345 5.1506 50.5907 5.39734 50.881 5.68252C52.4742 7.24711 54.0455 8.83404 55.6242 10.4137C57.0153 11.8053 57.088 14.161 55.7628 15.6217C55.2165 16.2238 54.6318 16.791 54.0507 17.3598C53.8861 17.5208 53.8352 17.6445 53.9469 17.8652C54.1219 18.2112 54.2662 18.5748 54.3966 18.941C54.4656 19.1348 54.5539 19.207 54.7663 19.2028C55.5276 19.1883 56.2894 19.1981 57.0506 19.1961C58.9263 19.1904 60.6031 20.7051 60.7827 22.5694C60.7968 22.7143 60.8113 22.8592 60.8279 23.0322C60.9889 23.0322 61.1431 23.0296 61.2974 23.0322C62.1703 23.0494 63.051 22.9969 63.9141 23.0982C67.0687 23.4691 69.6059 26.1001 69.9201 29.2631C69.9398 29.4605 69.9482 29.6599 69.9487 29.8578C69.9502 39.0859 69.9471 48.3145 69.9523 57.5426C69.9534 59.4193 70.0219 61.2972 69.9928 63.1729C69.9502 65.9234 68.6811 67.9732 66.2882 69.3165C65.2808 69.8821 64.1846 70.1273 63.0287 70.1268C55.8371 70.1242 48.6455 70.1258 41.4539 70.1258C41.3438 70.1258 41.2337 70.1258 41.0727 70.1258V70.1263ZM60.8108 25.5381C60.8108 25.6762 60.8108 25.7692 60.8108 25.8622C60.8108 27.126 60.8108 28.3899 60.8108 29.6542C60.8108 31.6795 59.0935 33.4052 57.0771 33.4052C56.307 33.4052 55.5364 33.4114 54.7663 33.4005C54.5736 33.3979 54.475 33.4493 54.4064 33.6394C54.2631 34.0379 54.0995 34.4295 53.923 34.8144C53.8555 34.9614 53.8783 35.0425 53.9868 35.149C54.53 35.683 55.0711 36.219 55.6029 36.7639C56.5786 37.7639 56.8938 38.9618 56.63 40.3201C56.4877 41.0531 56.1414 41.6904 55.6179 42.2156C54.0055 43.8342 52.4041 45.4643 50.7548 47.0444C49.4379 48.3062 47.1842 48.3348 45.8065 47.1379C45.1481 46.566 44.553 45.9209 43.9371 45.3011C43.8119 45.1754 43.7159 45.1334 43.5393 45.217C43.1649 45.3946 42.7796 45.551 42.3896 45.6928C42.2053 45.7598 42.1409 45.8502 42.144 46.0481C42.1559 46.8185 42.1627 47.5893 42.1424 48.3592C42.1336 48.6838 42.0915 49.0183 41.9976 49.3279C41.4897 51.0063 40.0222 52.08 38.268 52.081C36.719 52.0821 35.17 52.0847 33.6209 52.08C32.8778 52.0779 32.1321 52.0925 31.3916 52.0436C29.4459 51.9153 27.9067 50.2422 27.9083 48.2937C27.9088 47.5234 27.9036 46.7525 27.9119 45.9822C27.9135 45.819 27.8657 45.7375 27.7094 45.6788C27.2971 45.5235 26.8889 45.3557 26.4865 45.1754C26.3405 45.11 26.258 45.137 26.152 45.245C25.6312 45.777 25.102 46.3006 24.5755 46.8268C23.0571 48.3441 20.6107 48.356 19.0908 46.8455C17.5381 45.3017 15.9891 43.7537 14.4463 42.1995C13.0333 40.7757 12.9538 38.4683 14.2848 36.9686C14.8466 36.3354 15.4662 35.7526 16.0675 35.1547C16.1776 35.0451 16.1937 34.9573 16.1324 34.8191C15.9574 34.4238 15.7855 34.027 15.6354 33.6218C15.5731 33.454 15.4916 33.3995 15.3161 33.4021C14.5719 33.4114 13.8278 33.4093 13.0831 33.4052C12.3312 33.4015 11.6271 33.214 10.9977 32.7979C9.80696 32.011 9.23835 30.8812 9.22484 29.4677C9.21342 28.2647 9.22277 27.0611 9.22277 25.8575C9.22277 25.7568 9.22277 25.656 9.22277 25.5786C8.24495 25.5786 7.30037 25.5282 6.36513 25.5994C5.87285 25.6368 5.36031 25.8186 4.921 26.0539C3.27226 26.9375 2.50579 28.3758 2.50424 30.2204C2.49748 39.0246 2.50112 47.8288 2.50112 56.633V56.9192H67.5065V56.4564C67.5065 48.0246 67.5065 39.5924 67.5049 31.1606C67.5049 30.7113 67.493 30.262 67.4743 29.8132C67.3922 27.8548 66.0348 26.177 64.1389 25.6949C63.0557 25.4196 61.9517 25.6165 60.8118 25.5391L60.8108 25.5381ZM34.9856 49.5518C36.0585 49.5518 37.1318 49.5539 38.2047 49.5513C39.0075 49.5492 39.572 48.9794 39.5725 48.1727C39.5735 47.0995 39.572 46.0258 39.5725 44.9526C39.573 44.2503 39.8794 43.856 40.5275 43.6046C41.4533 43.2457 42.374 42.8712 43.2792 42.4639C43.9106 42.1798 44.4107 42.2312 44.9056 42.7226C45.7042 43.5148 46.4889 44.3215 47.3088 45.0908C47.8369 45.5863 48.5951 45.5349 49.1076 45.0232C50.6509 43.482 52.1932 41.9398 53.7334 40.396C54.2501 39.8781 54.3005 39.1352 53.8009 38.6012C53.0563 37.8055 52.2742 37.045 51.5067 36.271C50.9225 35.6819 50.8696 35.2243 51.2092 34.4706C51.5961 33.613 51.9616 32.7434 52.2857 31.8603C52.5292 31.197 52.9327 30.8562 53.6498 30.8557C54.7144 30.8547 55.7784 30.8557 56.8429 30.8557C57.694 30.8557 58.2616 30.2942 58.2626 29.4454C58.2642 27.3245 58.2642 25.2035 58.2626 23.0831C58.2621 22.2375 57.6883 21.664 56.8466 21.6629C55.7649 21.6619 54.6832 21.664 53.6015 21.6619C52.9789 21.6609 52.5645 21.3565 52.3314 20.7809C51.9367 19.8043 51.5306 18.8319 51.1178 17.8626C50.8841 17.3141 50.9703 16.7941 51.3977 16.3651C51.6604 16.1012 51.9253 15.8399 52.1865 15.575C52.7338 15.0212 53.3024 14.4862 53.8196 13.9054C54.301 13.3642 54.2429 12.6401 53.7334 12.1294C52.2052 10.5976 50.6759 9.06727 49.1445 7.53904C48.5826 6.97855 47.8525 6.93076 47.2668 7.47515C46.4878 8.19927 45.7276 8.94676 45.0001 9.72282C44.4501 10.3088 43.8067 10.3197 43.1701 10.0236C42.2941 9.61633 41.3915 9.26362 40.4885 8.91923C39.9137 8.70002 39.5746 8.2751 39.5735 7.64865C39.5714 6.5926 39.573 5.53655 39.573 4.48051C39.573 3.5351 39.0522 2.97721 38.1143 2.97202C36.02 2.96007 33.9258 2.95955 31.832 2.97202C30.9118 2.97721 30.3827 3.54341 30.3827 4.46596C30.3827 5.53084 30.3837 6.5952 30.3827 7.66007C30.3821 8.2616 30.0337 8.70885 29.4827 8.92182C28.5408 9.28596 27.6034 9.66412 26.6796 10.0719C26.0134 10.3659 25.5315 10.3103 25.0091 9.78879C24.2868 9.06727 23.5644 8.34471 22.8431 7.62215C22.1457 6.92349 21.4224 6.92557 20.7229 7.62631C19.2611 9.09013 17.7988 10.5534 16.3354 12.0152C15.6463 12.704 15.6474 13.454 16.3422 14.1496C17.0702 14.8779 17.7988 15.6061 18.5268 16.3344C18.9968 16.804 19.0648 17.3359 18.7979 17.9473C18.3897 18.8808 18.0003 19.823 17.6295 20.7721C17.3995 21.3611 17.0141 21.6629 16.378 21.6635C15.2792 21.6645 14.1799 21.6604 13.0811 21.665C12.3037 21.6687 11.7003 22.2271 11.6961 22.986C11.6842 25.1589 11.6847 27.3317 11.6956 29.5041C11.6998 30.3118 12.2819 30.8567 13.0894 30.8567C14.1539 30.8567 15.2179 30.8562 16.2825 30.8567C16.9939 30.8573 17.4093 31.1871 17.6643 31.8505C18.0143 32.7611 18.3882 33.6633 18.7854 34.5537C19.0809 35.2165 19.0243 35.7167 18.5128 36.2305C17.7671 36.978 17.0193 37.7239 16.2742 38.4714C15.6749 39.0724 15.6744 39.8495 16.2721 40.4479C17.765 41.9419 19.2725 43.4212 20.7447 44.9349C21.3777 45.5858 22.233 45.563 22.8416 44.9365C23.5712 44.1854 24.3195 43.4524 25.0605 42.7122C25.5247 42.2483 26.0435 42.1875 26.648 42.4525C27.5806 42.8618 28.5236 43.2504 29.4734 43.6192C30.0675 43.8498 30.3827 44.2493 30.3832 44.8871C30.3837 45.9692 30.3821 47.0512 30.3832 48.1332C30.3842 48.9877 30.9461 49.5523 31.7936 49.5529C32.8581 49.5529 33.9221 49.5529 34.9867 49.5529L34.9856 49.5518ZM2.53695 59.4614C2.52137 59.4936 2.50735 59.5092 2.50735 59.5243C2.51929 60.8821 2.45958 62.2452 2.56084 63.5968C2.72909 65.8372 4.70965 67.5779 6.96387 67.5779C25.6483 67.5779 44.3333 67.5779 63.0178 67.5789C63.8144 67.5789 64.5652 67.394 65.2429 66.982C66.672 66.113 67.4504 64.8471 67.4722 63.1563C67.4867 62.0311 67.4748 60.9055 67.4748 59.7798C67.4748 59.6785 67.4748 59.5773 67.4748 59.4619H2.53695V59.4614ZM46.9573 82.9697C46.9573 82.4072 46.9578 81.8711 46.9573 81.3356C46.9557 80.266 46.1975 79.5071 45.1242 79.5076C44.4325 79.5081 43.7408 79.5247 43.0496 79.5247C37.6864 79.5263 32.3227 79.5263 26.9595 79.5247C26.2419 79.5247 25.5242 79.5045 24.8071 79.5086C23.969 79.5138 23.2814 80.0369 23.0877 80.8208C23.0327 81.0436 23.0249 81.2815 23.0202 81.5132C23.0103 81.9937 23.0171 82.4752 23.0171 82.9687H46.9578L46.9573 82.9697ZM28.723 76.9888H41.2622C41.2477 76.9337 41.243 76.901 41.23 76.8714C40.2829 74.6834 39.3336 72.496 38.3885 70.3065C38.3278 70.1658 38.2416 70.1232 38.092 70.1237C36.0335 70.1284 33.9756 70.1294 31.9172 70.1221C31.737 70.1216 31.6601 70.1855 31.5968 70.3429C31.4399 70.7356 31.2649 71.1216 31.0967 71.5101C30.3105 73.3251 29.5238 75.1395 28.7225 76.9888H28.723Z" fill="#F7F8F8"/>
<path id="Vector_2" d="M49.9995 26.4841C50.0653 34.7006 43.2438 41.6494 34.7333 41.4976C26.6805 41.3538 20.2508 34.8459 20.0073 26.9766C19.7395 18.3228 26.884 11.201 35.5575 11.5097C43.4438 11.7901 50.0208 18.3182 49.9995 26.4841ZM35.0189 13.9501C28.2606 13.9061 22.4602 19.3947 22.4561 26.4796C22.4521 33.4567 28.0788 38.9529 34.8543 39.0298C41.8571 39.1093 47.5638 33.4744 47.5562 26.4816C47.5486 19.3851 41.7427 13.9187 35.0189 13.9501Z" fill="#F7F8F8"/>
<path id="Vector_3" d="M40.5096 62.5008C44.2506 62.5008 47.9916 62.5008 51.7326 62.5008C52.3657 62.5008 52.8467 62.8067 52.9716 63.2833C53.0954 63.7553 52.8071 64.2254 52.2496 64.4039C52.0497 64.468 51.8174 64.4943 51.6 64.4947C44.1951 64.4992 36.7902 64.4971 29.3853 64.5C28.1448 64.5004 27.7409 63.5948 28.1597 63.0008C28.4048 62.6531 28.7917 62.5 29.2861 62.5C33.0271 62.5012 36.7681 62.5004 40.5091 62.5004L40.5096 62.5008Z" fill="#F7F8F8"/>
<path id="Vector_4" d="M22.9975 63.5124C22.9975 65.1783 21.6733 66.5096 20.0058 66.4999C18.2387 66.4894 16.956 65.0289 17.0012 63.3943C17.0436 61.8773 18.3673 60.5543 19.8693 60.5019C21.6507 60.4394 23.068 61.9086 22.9975 63.5129V63.5124ZM20.0164 64.2466C20.4187 64.2424 20.764 63.894 20.7612 63.494C20.7589 63.0959 20.4086 62.748 20.0076 62.7457C19.5993 62.7429 19.2462 63.1024 19.2536 63.5138C19.2605 63.9165 19.6085 64.2511 20.0159 64.247L20.0164 64.2466Z" fill="#F7F8F8"/>
<path id="Vector_5" d="M42.9423 26.4425C42.8593 26.3899 42.7622 26.3527 42.6955 26.2832C41.2888 24.8231 39.8847 23.3597 38.4816 21.8953C37.9571 21.348 37.8605 20.7449 38.1944 20.1385C38.5783 19.4419 39.5743 19.2739 40.1231 19.8414C41.9792 21.7612 43.827 23.6903 45.6711 25.6232C46.1227 26.0966 46.1091 26.9317 45.6312 27.4336C43.8134 29.3424 41.9897 31.2447 40.1572 33.1377C39.6657 33.6456 38.8172 33.6073 38.3577 33.0994C37.872 32.562 37.8899 31.7389 38.4013 31.2053C39.8049 29.7414 41.2084 28.278 42.6146 26.8168C42.707 26.721 42.8215 26.6488 42.9255 26.5656C42.9307 26.5246 42.936 26.4835 42.9412 26.4425H42.9423Z" fill="#F7F8F8"/>
<path id="Vector_6" d="M27.0293 26.4482C27.9013 27.3524 28.7023 28.182 29.5022 29.0128C30.1906 29.728 30.8785 30.4438 31.5659 31.1606C32.125 31.7439 32.146 32.5609 31.6175 33.1097C31.0994 33.6474 30.3132 33.6288 29.7646 33.0582C27.9791 31.2012 26.1946 29.343 24.4112 27.4838C23.8495 26.8978 23.8695 26.0764 24.4328 25.4926C26.2151 23.6454 27.9928 21.7933 29.7678 19.9379C30.2974 19.3837 31.1194 19.3476 31.6248 19.875C32.1276 20.4001 32.116 21.2429 31.5959 21.7846C30.1712 23.2687 28.7464 24.7533 27.3191 26.2346C27.2454 26.3108 27.1481 26.3622 27.0293 26.4493V26.4482Z" fill="#F7F8F8"/>
<path id="Vector_7" d="M38 19.8247C37.9313 20.1125 37.8445 20.4976 37.7481 20.8803C36.69 25.0796 35.6319 29.279 34.5701 33.4779C34.3251 34.4471 33.2308 34.8161 32.4416 34.1932C32.0444 33.8792 31.9267 33.4552 32.0423 32.9847C32.374 31.6349 32.7154 30.2876 33.054 28.9393C33.8134 25.9161 34.5728 22.8929 35.3348 19.8702C35.437 19.4638 35.5015 19.0383 35.8976 18.7626C36.3418 18.4537 36.8178 18.4219 37.3019 18.643C37.7678 18.856 37.984 19.2346 38 19.8247Z" fill="#F7F8F8"/>
</g>
</svg>
