<svg width="42" height="54" viewBox="0 0 42 54" fill="none" xmlns="http://www.w3.org/2000/svg">
<g id="Layer_1" clip-path="url(#clip0_108_6001)">
<path id="Vector" d="M31.4066 40.4693V44.3276H4.92535V7.30933H31.3908V12.5822C31.1797 12.5822 30.9777 12.5822 30.7768 12.5822C28.8017 12.5822 26.8277 12.5777 24.8526 12.5833C21.715 12.5932 19.3234 14.9352 19.3189 18.0221C19.3098 23.6845 19.311 29.347 19.3189 35.0094C19.3234 38.1195 21.7138 40.4527 24.8966 40.4682C26.8525 40.4781 28.8085 40.4704 30.7644 40.4704C30.9653 40.4704 31.1673 40.4704 31.4055 40.4704L31.4066 40.4693Z" fill="#F7F8F8"/>
<path id="Vector_2" d="M21.1292 26.5069C21.1292 23.7034 21.127 20.901 21.1292 18.0974C21.1315 15.8539 22.6597 14.3586 24.9497 14.3575C29.331 14.3564 33.7124 14.3564 38.0938 14.3575C40.4989 14.3575 41.9989 15.8285 41.9989 18.1826C41.9989 23.7521 42 29.3215 41.9989 34.8899C41.9989 37.1965 40.4707 38.6962 38.1186 38.6973C33.7373 38.6995 29.3559 38.6995 24.9745 38.6973C22.6642 38.6962 21.1326 37.1887 21.1304 34.9153C21.1281 32.1118 21.1304 29.3094 21.1304 26.5058L21.1292 26.5069ZM24.4858 19.1411V21.4123H38.6897V19.1411H24.4858ZM38.6954 27.7244V25.4355H24.4847V27.7244H38.6954Z" fill="#F7F8F8"/>
<path id="Vector_3" d="M34.5792 40.5047H36.3365V41.0404C36.3365 43.1433 36.3444 45.2463 36.3343 47.3481C36.3173 50.7017 34.0284 53.3603 30.664 53.9314C30.278 53.9967 29.8773 53.9956 29.4834 53.9956C21.9227 53.9989 14.3619 54.0033 6.80119 53.9956C2.90964 53.9922 0.0113024 51.1832 0.00791649 47.3691C-0.00449852 33.7941 -0.00336989 20.2191 0.00791649 6.64416C0.012431 2.84891 2.93109 0.0121688 6.80796 0.00663474C14.3879 -0.00332652 21.9667 -0.00221971 29.5466 0.00663474C33.3637 0.011062 36.3027 2.88212 36.3343 6.62423C36.3501 8.57775 36.3376 10.5324 36.3376 12.5346H34.5803C34.5803 12.3475 34.5803 12.1527 34.5803 11.9568C34.5803 10.2048 34.5849 8.45268 34.5803 6.7006C34.5713 3.79855 32.4574 1.72883 29.4879 1.72772C21.9464 1.7244 14.4037 1.7244 6.86213 1.72772C3.84077 1.72883 1.72345 3.81184 1.72232 6.78361C1.71893 20.2667 1.72006 33.7487 1.72232 47.2319C1.72232 50.2147 3.86673 52.3154 6.91067 52.3165C14.415 52.3199 21.9193 52.3199 29.4236 52.3165C32.4495 52.3154 34.5736 50.2346 34.5803 47.2761C34.5849 45.2285 34.5803 43.181 34.5803 41.1345C34.5803 40.9364 34.5803 40.7382 34.5803 40.5058L34.5792 40.5047Z" fill="#F7F8F8"/>
<path id="Vector_4" d="M18.1688 46.985C19.2771 47.1632 20.2015 47.2983 21.1191 47.4665C21.39 47.5163 21.68 47.6137 21.8933 47.7764C22.1574 47.9779 22.5231 48.2678 22.5265 48.5224C22.5299 48.777 22.1913 49.1367 21.9125 49.2772C20.5864 49.9424 19.1349 50.0487 17.6869 49.9291C16.7817 49.8539 15.8743 49.6447 15.0075 49.3735C14.6621 49.2662 14.2558 48.8677 14.1768 48.5346C14.0651 48.0609 14.5798 47.7952 14.9861 47.6912C16.082 47.4078 17.1971 47.1964 18.17 46.9862L18.1688 46.985Z" fill="#F7F8F8"/>
<path id="Vector_5" d="M20.4035 5.16216C19.6902 5.16216 18.9769 5.1688 18.2636 5.15994C17.6271 5.1522 17.2546 4.81905 17.2636 4.28889C17.2727 3.78197 17.6305 3.45325 18.241 3.44771C19.6676 3.43554 21.0931 3.43554 22.5197 3.44993C23.1811 3.45657 23.5265 3.78197 23.5174 4.32209C23.5084 4.85225 23.145 5.15441 22.487 5.16105C21.7929 5.16769 21.0988 5.16216 20.4035 5.16216Z" fill="#F7F8F8"/>
<path id="Vector_6" d="M27.3085 49.8915C26.5151 49.8882 25.8718 49.2485 25.8887 48.4792C25.9056 47.7034 26.5535 47.1046 27.3582 47.119C28.1324 47.1334 28.7475 47.7454 28.7487 48.5014C28.7487 49.2828 28.1144 49.8959 27.3074 49.8926L27.3085 49.8915Z" fill="#F7F8F8"/>
<path id="Vector_7" d="M10.4117 48.5302C10.4026 49.316 9.77174 49.907 8.95799 49.8915C8.18149 49.8771 7.58444 49.2739 7.58331 48.5058C7.58331 47.7133 8.19955 47.1146 9.01217 47.119C9.82253 47.1234 10.4207 47.7266 10.4106 48.5302H10.4117Z" fill="#F7F8F8"/>
<path id="Vector_8" d="M13.652 3.45325C14.1238 3.45546 14.5064 3.82846 14.5109 4.29221C14.5166 4.77146 14.1012 5.17655 13.6215 5.15884C13.1599 5.14113 12.7796 4.746 12.7886 4.2911C12.7976 3.83288 13.1904 3.45214 13.652 3.45325Z" fill="#F7F8F8"/>
</g>
<defs>
<clipPath id="clip0_108_6001">
<rect width="42" height="54" fill="white"/>
</clipPath>
</defs>
</svg>
